{
	"asset":{
		"generator":"Khronos glTF Blender I/O v4.2.83",
		"version":"2.0"
	},
	"scene":0,
	"scenes":[
		{
			"name":"Scene",
			"nodes":[
				0,
				1,
				2,
				3
			]
		}
	],
	"nodes":[
		{
			"name":"Car Display 1",
			"translation":[
				-0.01730399951338768,
				0.9425529837608337,
				2.16021990776062
			]
		},
		{
			"name":"car display 2",
			"translation":[
				-5.6334004402160645,
				1.3562102317810059,
				-0.40660160779953003
			]
		},
		{
			"name":"car display 3",
			"translation":[
				5.771989822387695,
				2.2475717067718506,
				-0.40003639459609985
			]
		},
		{
			"mesh":0,
			"name":"Lobby",
			"translation":[
				0,
				0.2635227143764496,
				1.9128775596618652
			]
		}
	],
	"materials":[
		{
			"doubleSided":true,
			"emissiveFactor":[1,1,1],
			"emissiveTexture":{
				"index":0
			},
			"name":"Lobby Props",
			"normalTexture":{
				"index":1
			},
			"occlusionTexture":{
				"index":3
			},
			"pbrMetallicRoughness":{
				"baseColorTexture":{
					"index":2
				},
				"metallicRoughnessTexture":{
					"index":3
				}
			}
		},
		{
			"doubleSided":true,
			"emissiveFactor":[1,1,1],
			"emissiveTexture":{
				"index":4
			},
			"name":"LobbyRoom_Atlas",
			"normalTexture":{
				"index":5
			},
			"occlusionTexture":{
				"index":7
			},
			"pbrMetallicRoughness":{
				"baseColorTexture":{
					"index":6
				},
				"metallicRoughnessTexture":{
					"index":7
				}
			}
		}
	],
	"meshes":[
		{
			"name":"Cylinder.001",
			"primitives":[
				{
					"attributes":{
						"POSITION":0,
						"NORMAL":1,
						"TEXCOORD_0":2,
						"COLOR_0":3,
						"COLOR_1":4
					},
					"indices":5,
					"material":0
				},
				{
					"attributes":{
						"POSITION":6,
						"NORMAL":7,
						"TEXCOORD_0":8,
						"COLOR_0":9,
						"COLOR_1":10
					},
					"indices":11,
					"material":1
				}
			]
		}
	],
	"textures":[
		{
			"sampler":0,
			"source":0
		},
		{
			"sampler":0,
			"source":1
		},
		{
			"sampler":0,
			"source":2
		},
		{
			"sampler":0,
			"source":3
		},
		{
			"sampler":0,
			"source":4
		},
		{
			"sampler":0,
			"source":5
		},
		{
			"sampler":0,
			"source":6
		},
		{
			"sampler":0,
			"source":7
		}
	],
	"images":[
		{
			"mimeType":"image/png",
			"name":"Lobby2_Emissive",
			"uri":"textures/Lobby2_Emissive.webp"
		},
		{
			"mimeType":"image/png",
			"name":"Lobby2_Normal",
			"uri":"textures/Lobby2_Normal.webp"
		},
		{
			"mimeType":"image/png",
			"name":"Lobby2_BaseColor",
			"uri":"textures/Lobby2_BaseColor.webp"
		},
		{
			"mimeType":"image/png",
			"name":"Lobby2_OcclusionRoughnessMetallic",
			"uri":"textures/Lobby2_OcclusionRoughnessMetallic.webp"
		},
		{
			"mimeType":"image/png",
			"name":"Lobby1_Emissive",
			"uri":"textures/Lobby1_Emissive.webp"
		},
		{
			"mimeType":"image/png",
			"name":"Lobby1_Normal",
			"uri":"textures/Lobby1_Normal.webp"
		},
		{
			"mimeType":"image/png",
			"name":"Lobby1_BaseColor",
			"uri":"textures/Lobby1_BaseColor.webp"
		},
		{
			"mimeType":"image/png",
			"name":"Lobby1_OcclusionRoughnessMetallic",
			"uri":"textures/Lobby1_OcclusionRoughnessMetallic.webp"
		}
	],
	"accessors":[
		{
			"bufferView":0,
			"componentType":5126,
			"count":6635,
			"max":[
				8.142739295959473,
				1.9864771366119385,
				6.7935261726379395
			],
			"min":[
				-8.86393928527832,
				-0.22971463203430176,
				-6.218954086303711
			],
			"type":"VEC3"
		},
		{
			"bufferView":1,
			"componentType":5126,
			"count":6635,
			"type":"VEC3"
		},
		{
			"bufferView":2,
			"componentType":5126,
			"count":6635,
			"type":"VEC2"
		},
		{
			"bufferView":3,
			"componentType":5121,
			"count":6635,
			"normalized":true,
			"type":"VEC4"
		},
		{
			"bufferView":4,
			"componentType":5126,
			"count":6635,
			"type":"VEC3"
		},
		{
			"bufferView":5,
			"componentType":5123,
			"count":15384,
			"type":"SCALAR"
		},
		{
			"bufferView":6,
			"componentType":5126,
			"count":51662,
			"max":[
				9.999998092651367,
				4.886477947235107,
				8.087121963500977
			],
			"min":[
				-10,
				-0.31352272629737854,
				-7.646031379699707
			],
			"type":"VEC3"
		},
		{
			"bufferView":7,
			"componentType":5126,
			"count":51662,
			"type":"VEC3"
		},
		{
			"bufferView":8,
			"componentType":5126,
			"count":51662,
			"type":"VEC2"
		},
		{
			"bufferView":9,
			"componentType":5121,
			"count":51662,
			"normalized":true,
			"type":"VEC4"
		},
		{
			"bufferView":10,
			"componentType":5126,
			"count":51662,
			"type":"VEC3"
		},
		{
			"bufferView":11,
			"componentType":5123,
			"count":150906,
			"type":"SCALAR"
		}
	],
	"bufferViews":[
		{
			"buffer":0,
			"byteLength":79620,
			"byteOffset":0,
			"target":34962
		},
		{
			"buffer":0,
			"byteLength":79620,
			"byteOffset":79620,
			"target":34962
		},
		{
			"buffer":0,
			"byteLength":53080,
			"byteOffset":159240,
			"target":34962
		},
		{
			"buffer":0,
			"byteLength":26540,
			"byteOffset":212320,
			"target":34962
		},
		{
			"buffer":0,
			"byteLength":79620,
			"byteOffset":238860,
			"target":34962
		},
		{
			"buffer":0,
			"byteLength":30768,
			"byteOffset":318480,
			"target":34963
		},
		{
			"buffer":0,
			"byteLength":619944,
			"byteOffset":349248,
			"target":34962
		},
		{
			"buffer":0,
			"byteLength":619944,
			"byteOffset":969192,
			"target":34962
		},
		{
			"buffer":0,
			"byteLength":413296,
			"byteOffset":1589136,
			"target":34962
		},
		{
			"buffer":0,
			"byteLength":206648,
			"byteOffset":2002432,
			"target":34962
		},
		{
			"buffer":0,
			"byteLength":619944,
			"byteOffset":2209080,
			"target":34962
		},
		{
			"buffer":0,
			"byteLength":301812,
			"byteOffset":2829024,
			"target":34963
		}
	],
	"samplers":[
		{
			"magFilter":9729,
			"minFilter":9987
		}
	],
	"buffers":[
		{
			"byteLength":3130836,
			"uri":"Lobby.bin"
		}
	]
}
