{
	"asset":{
		"generator":"Khronos glTF Blender I/O v5.0.21",
		"version":"2.0"
	},
	"scene":0,
	"scenes":[
		{
			"name":"Scene",
			"nodes":[
				8
			]
		}
	],
	"nodes":[
		{
			"mesh":0,
			"name":"body"
		},
		{
			"name":"seat_anchor",
			"translation":[
				0,
				0.49992701411247253,
				-0.36646100878715515
			]
		},
		{
			"mesh":1,
			"name":"SteeringWheel",
			"translation":[
				0.0008382797241210938,
				0.7981469631195068,
				0.12181329727172852
			]
		},
		{
			"mesh":2,
			"name":"underbody",
			"translation":[
				-3.24249267578125e-05,
				0.280861496925354,
				-0.0035600662231445312
			]
		},
		{
			"mesh":3,
			"name":"wheel-back-left.004",
			"translation":[
				0.6405551433563232,
				0.2808326482772827,
				-0.7037472724914551
			]
		},
		{
			"mesh":3,
			"name":"wheel-back-right.004",
			"translation":[
				-0.6398307085037231,
				0.2808326482772827,
				-0.7037472724914551
			]
		},
		{
			"mesh":3,
			"name":"wheel-front-left.004",
			"translation":[
				0.6228940486907959,
				0.2808326482772827,
				0.702782154083252
			]
		},
		{
			"mesh":3,
			"name":"wheel-front-right.004",
			"translation":[
				-0.6574908494949341,
				0.2808326482772827,
				0.702782154083252
			]
		},
		{
			"children":[
				0,
				1,
				2,
				3,
				4,
				5,
				6,
				7
			],
			"name":"BaseRaceKart5"
		}
	],
	"materials":[
		{
			"doubleSided":true,
			"emissiveTexture":{
				"index":0
			},
			"name":"car 2",
			"normalTexture":{
				"index":1
			},
			"pbrMetallicRoughness":{
				"baseColorTexture":{
					"index":2
				},
				"metallicRoughnessTexture":{
					"index":3
				}
			},
			"occlusionTexture":{
				"index":3
			}
		}
	],
	"meshes":[
		{
			"extras":{
				"targetNames":[
					"Damage_Front_Left",
					"Damage_Front_Right",
					"Damage_Back_Left",
					"Damage_Back_Right"
				]
			},
			"name":"body",
			"primitives":[
				{
					"attributes":{
						"POSITION":0,
						"NORMAL":1,
						"TEXCOORD_0":2
					},
					"indices":3,
					"material":0,
					"targets":[
						{
							"POSITION":4,
							"NORMAL":5
						},
						{
							"POSITION":6,
							"NORMAL":7
						},
						{
							"POSITION":8,
							"NORMAL":9
						},
						{
							"POSITION":10,
							"NORMAL":11
						}
					]
				}
			],
			"weights":[
				0,
				0,
				0,
				0
			]
		},
		{
			"name":"SteeringWheel",
			"primitives":[
				{
					"attributes":{
						"POSITION":12,
						"NORMAL":13,
						"TEXCOORD_0":14,
						"TEXCOORD_1":15
					},
					"indices":16,
					"material":0
				}
			]
		},
		{
			"name":"Underbody",
			"primitives":[
				{
					"attributes":{
						"POSITION":17,
						"NORMAL":18,
						"TEXCOORD_0":19
					},
					"indices":20,
					"material":0
				}
			]
		},
		{
			"name":"wheel-back-left.004",
			"primitives":[
				{
					"attributes":{
						"POSITION":21,
						"NORMAL":22,
						"TEXCOORD_0":23
					},
					"indices":24,
					"material":0
				}
			]
		}
	],
	"textures":[
		{
			"sampler":0,
			"source":0
		},
		{
			"sampler":0,
			"source":1
		},
		{
			"sampler":0,
			"source":2
		},
		{
			"sampler":0,
			"source":3
		}
	],
	"images":[
		{
			"mimeType":"image/png",
			"name":"cars_car 2_Emissive.1001",
			"uri":"textures/cars_car%202_Emissive.1001.webp"
		},
		{
			"mimeType":"image/png",
			"name":"cars_car 2_Normal.1001",
			"uri":"textures/cars_car%202_Normal.1001.webp"
		},
		{
			"mimeType":"image/png",
			"name":"cars_car 2_BaseColor.1001",
			"uri":"textures/cars_car%202_BaseColor.1001.webp"
		},
		{
			"mimeType":"image/png",
			"name":"cars_car 2_OcclusionRoughnessMetallic.1001",
			"uri":"textures/cars_car%202_OcclusionRoughnessMetallic.1001.webp"
		}
	],
	"accessors":[
		{
			"bufferView":0,
			"componentType":5126,
			"count":3211,
			"max":[
				0.7202491164207458,
				0.8309230804443359,
				1.4606692790985107
			],
			"min":[
				-0.720314085483551,
				0.09018886089324951,
				-1.3536128997802734
			],
			"type":"VEC3"
		},
		{
			"bufferView":1,
			"componentType":5126,
			"count":3211,
			"type":"VEC3"
		},
		{
			"bufferView":2,
			"componentType":5126,
			"count":3211,
			"type":"VEC2"
		},
		{
			"bufferView":3,
			"componentType":5123,
			"count":12096,
			"type":"SCALAR"
		},
		{
			"componentType":5126,
			"count":3211,
			"max":[
				0.026917248964309692,
				0.11158628761768341,
				0.08128130435943604
			],
			"min":[
				-0.2049771249294281,
				-0.0749344527721405,
				-0.0537780225276947
			],
			"sparse":{
				"count":2466,
				"indices":{
					"bufferView":4,
					"componentType":5123
				},
				"values":{
					"bufferView":5
				}
			},
			"type":"VEC3"
		},
		{
			"bufferView":6,
			"componentType":5126,
			"count":3211,
			"type":"VEC3"
		},
		{
			"componentType":5126,
			"count":3211,
			"max":[
				0.18817996978759766,
				0.1633155345916748,
				0.024733901023864746
			],
			"min":[
				-5.960464477539063e-08,
				-0.0798148512840271,
				-0.06910920143127441
			],
			"sparse":{
				"count":2447,
				"indices":{
					"bufferView":7,
					"componentType":5123
				},
				"values":{
					"bufferView":8
				}
			},
			"type":"VEC3"
		},
		{
			"bufferView":9,
			"componentType":5126,
			"count":3211,
			"type":"VEC3"
		},
		{
			"componentType":5126,
			"count":3211,
			"max":[
				0.1127086877822876,
				0.08751529455184937,
				0.10992467403411865
			],
			"min":[
				-0.06118309497833252,
				-0.07374700903892517,
				-0.01628190279006958
			],
			"sparse":{
				"count":650,
				"indices":{
					"bufferView":10,
					"componentType":5123
				},
				"values":{
					"bufferView":11
				}
			},
			"type":"VEC3"
		},
		{
			"bufferView":12,
			"componentType":5126,
			"count":3211,
			"type":"VEC3"
		},
		{
			"componentType":5126,
			"count":3211,
			"max":[
				0.0503084659576416,
				0.0366780161857605,
				0.10843038558959961
			],
			"min":[
				-0.10314396023750305,
				-0.06758591532707214,
				-0.017020583152770996
			],
			"sparse":{
				"count":719,
				"indices":{
					"bufferView":13,
					"componentType":5123
				},
				"values":{
					"bufferView":14
				}
			},
			"type":"VEC3"
		},
		{
			"bufferView":15,
			"componentType":5126,
			"count":3211,
			"type":"VEC3"
		},
		{
			"bufferView":16,
			"componentType":5126,
			"count":600,
			"max":[
				0.2519078254699707,
				0.22409451007843018,
				0.058394014835357666
			],
			"min":[
				-0.2519078254699707,
				-0.22409451007843018,
				-0.058394014835357666
			],
			"type":"VEC3"
		},
		{
			"bufferView":17,
			"componentType":5126,
			"count":600,
			"type":"VEC3"
		},
		{
			"bufferView":18,
			"componentType":5126,
			"count":600,
			"type":"VEC2"
		},
		{
			"bufferView":19,
			"componentType":5126,
			"count":600,
			"type":"VEC2"
		},
		{
			"bufferView":20,
			"componentType":5123,
			"count":3102,
			"type":"SCALAR"
		},
		{
			"bufferView":21,
			"componentType":5126,
			"count":150,
			"max":[
				0.5214202404022217,
				0.04283388704061508,
				0.8136223554611206
			],
			"min":[
				-0.5214202404022217,
				-0.04283388704061508,
				-0.8136223554611206
			],
			"type":"VEC3"
		},
		{
			"bufferView":22,
			"componentType":5126,
			"count":150,
			"type":"VEC3"
		},
		{
			"bufferView":23,
			"componentType":5126,
			"count":150,
			"type":"VEC2"
		},
		{
			"bufferView":24,
			"componentType":5123,
			"count":396,
			"type":"SCALAR"
		},
		{
			"bufferView":25,
			"componentType":5126,
			"count":484,
			"max":[
				0.14478814601898193,
				0.27765512466430664,
				0.27765512466430664
			],
			"min":[
				-0.14478814601898193,
				-0.27765509486198425,
				-0.27765512466430664
			],
			"type":"VEC3"
		},
		{
			"bufferView":26,
			"componentType":5126,
			"count":484,
			"type":"VEC3"
		},
		{
			"bufferView":27,
			"componentType":5126,
			"count":484,
			"type":"VEC2"
		},
		{
			"bufferView":28,
			"componentType":5123,
			"count":2304,
			"type":"SCALAR"
		}
	],
	"bufferViews":[
		{
			"buffer":0,
			"byteLength":38532,
			"byteOffset":0,
			"target":34962
		},
		{
			"buffer":0,
			"byteLength":38532,
			"byteOffset":38532,
			"target":34962
		},
		{
			"buffer":0,
			"byteLength":25688,
			"byteOffset":77064,
			"target":34962
		},
		{
			"buffer":0,
			"byteLength":24192,
			"byteOffset":102752,
			"target":34963
		},
		{
			"buffer":0,
			"byteLength":4932,
			"byteOffset":126944
		},
		{
			"buffer":0,
			"byteLength":29592,
			"byteOffset":131876
		},
		{
			"buffer":0,
			"byteLength":38532,
			"byteOffset":161468,
			"target":34962
		},
		{
			"buffer":0,
			"byteLength":4894,
			"byteOffset":200000
		},
		{
			"buffer":0,
			"byteLength":29364,
			"byteOffset":204896
		},
		{
			"buffer":0,
			"byteLength":38532,
			"byteOffset":234260,
			"target":34962
		},
		{
			"buffer":0,
			"byteLength":1300,
			"byteOffset":272792
		},
		{
			"buffer":0,
			"byteLength":7800,
			"byteOffset":274092
		},
		{
			"buffer":0,
			"byteLength":38532,
			"byteOffset":281892,
			"target":34962
		},
		{
			"buffer":0,
			"byteLength":1438,
			"byteOffset":320424
		},
		{
			"buffer":0,
			"byteLength":8628,
			"byteOffset":321864
		},
		{
			"buffer":0,
			"byteLength":38532,
			"byteOffset":330492,
			"target":34962
		},
		{
			"buffer":0,
			"byteLength":7200,
			"byteOffset":369024,
			"target":34962
		},
		{
			"buffer":0,
			"byteLength":7200,
			"byteOffset":376224,
			"target":34962
		},
		{
			"buffer":0,
			"byteLength":4800,
			"byteOffset":383424,
			"target":34962
		},
		{
			"buffer":0,
			"byteLength":4800,
			"byteOffset":388224,
			"target":34962
		},
		{
			"buffer":0,
			"byteLength":6204,
			"byteOffset":393024,
			"target":34963
		},
		{
			"buffer":0,
			"byteLength":1800,
			"byteOffset":399228,
			"target":34962
		},
		{
			"buffer":0,
			"byteLength":1800,
			"byteOffset":401028,
			"target":34962
		},
		{
			"buffer":0,
			"byteLength":1200,
			"byteOffset":402828,
			"target":34962
		},
		{
			"buffer":0,
			"byteLength":792,
			"byteOffset":404028,
			"target":34963
		},
		{
			"buffer":0,
			"byteLength":5808,
			"byteOffset":404820,
			"target":34962
		},
		{
			"buffer":0,
			"byteLength":5808,
			"byteOffset":410628,
			"target":34962
		},
		{
			"buffer":0,
			"byteLength":3872,
			"byteOffset":416436,
			"target":34962
		},
		{
			"buffer":0,
			"byteLength":4608,
			"byteOffset":420308,
			"target":34963
		}
	],
	"samplers":[
		{
			"magFilter":9729,
			"minFilter":9987
		}
	],
	"buffers":[
		{
			"byteLength":424916,
			"uri":"BaseRaceKart5.bin"
		}
	]
}
