{
	"asset":{
		"generator":"Khronos glTF Blender I/O v5.0.21",
		"version":"2.0"
	},
	"scene":0,
	"scenes":[
		{
			"name":"Scene",
			"nodes":[
				8
			]
		}
	],
	"nodes":[
		{
			"mesh":0,
			"name":"Body",
			"translation":[
				2.6702880859375e-05,
				1.1124666929244995,
				-0.2455195188522339
			]
		},
		{
			"name":"seat_anchor.007",
			"translation":[
				0,
				0.49992701411247253,
				-0.36646100878715515
			]
		},
		{
			"mesh":1,
			"name":"SteeringWheel.006",
			"translation":[
				0.0009620189666748047,
				1.0007001161575317,
				0.07044865190982819
			]
		},
		{
			"mesh":2,
			"name":"Underbody.004",
			"translation":[
				-3.24249267578125e-05,
				0.3356238901615143,
				-0.12326091527938843
			]
		},
		{
			"mesh":3,
			"name":"wheel-back-left.005",
			"translation":[
				0.654141902923584,
				0.33494091033935547,
				-0.9293481111526489
			]
		},
		{
			"mesh":3,
			"name":"wheel-back-right.005",
			"translation":[
				-0.6540887355804443,
				0.33494091033935547,
				-0.9293481111526489
			]
		},
		{
			"mesh":3,
			"name":"wheel-front-left.005",
			"translation":[
				0.6541421413421631,
				0.33494091033935547,
				0.6345512866973877
			]
		},
		{
			"mesh":3,
			"name":"wheel-front-right.005",
			"translation":[
				-0.6540887355804443,
				0.33494091033935547,
				0.6345514059066772
			]
		},
		{
			"children":[
				0,
				1,
				2,
				3,
				4,
				5,
				6,
				7
			],
			"name":"BaseRaceKart7"
		}
	],
	"materials":[
		{
			"doubleSided":true,
			"emissiveTexture":{
				"index":0
			},
			"name":"car 1",
			"normalTexture":{
				"index":1
			},
			"pbrMetallicRoughness":{
				"baseColorTexture":{
					"index":2
				},
				"metallicRoughnessTexture":{
					"index":3
				}
			}
		}
	],
	"meshes":[
		{
			"name":"body",
			"primitives":[
				{
					"attributes":{
						"POSITION":0,
						"NORMAL":1,
						"TEXCOORD_0":2
					},
					"indices":3,
					"material":0
				}
			]
		},
		{
			"name":"steering-wheel.003",
			"primitives":[
				{
					"attributes":{
						"POSITION":4,
						"NORMAL":5,
						"TEXCOORD_0":6,
						"TEXCOORD_1":7
					},
					"indices":8,
					"material":0
				}
			]
		},
		{
			"name":"Underbody.004",
			"primitives":[
				{
					"attributes":{
						"POSITION":9,
						"NORMAL":10,
						"TEXCOORD_0":11
					},
					"indices":12,
					"material":0
				}
			]
		},
		{
			"name":"wheel-front-right.001",
			"primitives":[
				{
					"attributes":{
						"POSITION":13,
						"NORMAL":14,
						"TEXCOORD_0":15
					},
					"indices":16,
					"material":0
				}
			]
		}
	],
	"textures":[
		{
			"sampler":0,
			"source":0
		},
		{
			"sampler":0,
			"source":1
		},
		{
			"sampler":0,
			"source":2
		},
		{
			"sampler":0,
			"source":3
		}
	],
	"images":[
		{
			"mimeType":"image/png",
			"name":"cars_car 1_Emissive.1001",
			"uri":"textures/cars_car%201_Emissive.1001.png"
		},
		{
			"mimeType":"image/png",
			"name":"cars_car 1_Normal.1001",
			"uri":"textures/cars_car%201_Normal.1001.png"
		},
		{
			"mimeType":"image/png",
			"name":"cars_car 1_BaseColor.1001",
			"uri":"textures/cars_car%201_BaseColor.1001.png"
		},
		{
			"mimeType":"image/png",
			"name":"cars_car 1_OcclusionRoughnessMetallic.1001",
			"uri":"textures/cars_car%201_OcclusionRoughnessMetallic.1001.png"
		}
	],
	"accessors":[
		{
			"bufferView":0,
			"componentType":5126,
			"count":3823,
			"max":[
				0.6642796397209167,
				0.8464041948318481,
				1.2867906093597412
			],
			"min":[
				-0.6642796397209167,
				-0.8464041948318481,
				-1.3298684358596802
			],
			"type":"VEC3"
		},
		{
			"bufferView":1,
			"componentType":5126,
			"count":3823,
			"type":"VEC3"
		},
		{
			"bufferView":2,
			"componentType":5126,
			"count":3823,
			"type":"VEC2"
		},
		{
			"bufferView":3,
			"componentType":5123,
			"count":14112,
			"type":"SCALAR"
		},
		{
			"bufferView":4,
			"componentType":5126,
			"count":600,
			"max":[
				0.2519078254699707,
				0.22409451007843018,
				0.058394014835357666
			],
			"min":[
				-0.2519078254699707,
				-0.22409451007843018,
				-0.058394014835357666
			],
			"type":"VEC3"
		},
		{
			"bufferView":5,
			"componentType":5126,
			"count":600,
			"type":"VEC3"
		},
		{
			"bufferView":6,
			"componentType":5126,
			"count":600,
			"type":"VEC2"
		},
		{
			"bufferView":7,
			"componentType":5126,
			"count":600,
			"type":"VEC2"
		},
		{
			"bufferView":8,
			"componentType":5123,
			"count":3102,
			"type":"SCALAR"
		},
		{
			"bufferView":9,
			"componentType":5126,
			"count":150,
			"max":[
				0.5406840443611145,
				0.04283388704061508,
				0.9371718764305115
			],
			"min":[
				-0.5406840443611145,
				-0.04283388704061508,
				-0.9371718764305115
			],
			"type":"VEC3"
		},
		{
			"bufferView":10,
			"componentType":5126,
			"count":150,
			"type":"VEC3"
		},
		{
			"bufferView":11,
			"componentType":5126,
			"count":150,
			"type":"VEC2"
		},
		{
			"bufferView":12,
			"componentType":5123,
			"count":396,
			"type":"SCALAR"
		},
		{
			"bufferView":13,
			"componentType":5126,
			"count":694,
			"max":[
				0.14478814601898193,
				0.33318614959716797,
				0.33318614959716797
			],
			"min":[
				-0.14478814601898193,
				-0.33318617939949036,
				-0.33318614959716797
			],
			"type":"VEC3"
		},
		{
			"bufferView":14,
			"componentType":5126,
			"count":694,
			"type":"VEC3"
		},
		{
			"bufferView":15,
			"componentType":5126,
			"count":694,
			"type":"VEC2"
		},
		{
			"bufferView":16,
			"componentType":5123,
			"count":2976,
			"type":"SCALAR"
		}
	],
	"bufferViews":[
		{
			"buffer":0,
			"byteLength":45876,
			"byteOffset":0,
			"target":34962
		},
		{
			"buffer":0,
			"byteLength":45876,
			"byteOffset":45876,
			"target":34962
		},
		{
			"buffer":0,
			"byteLength":30584,
			"byteOffset":91752,
			"target":34962
		},
		{
			"buffer":0,
			"byteLength":28224,
			"byteOffset":122336,
			"target":34963
		},
		{
			"buffer":0,
			"byteLength":7200,
			"byteOffset":150560,
			"target":34962
		},
		{
			"buffer":0,
			"byteLength":7200,
			"byteOffset":157760,
			"target":34962
		},
		{
			"buffer":0,
			"byteLength":4800,
			"byteOffset":164960,
			"target":34962
		},
		{
			"buffer":0,
			"byteLength":4800,
			"byteOffset":169760,
			"target":34962
		},
		{
			"buffer":0,
			"byteLength":6204,
			"byteOffset":174560,
			"target":34963
		},
		{
			"buffer":0,
			"byteLength":1800,
			"byteOffset":180764,
			"target":34962
		},
		{
			"buffer":0,
			"byteLength":1800,
			"byteOffset":182564,
			"target":34962
		},
		{
			"buffer":0,
			"byteLength":1200,
			"byteOffset":184364,
			"target":34962
		},
		{
			"buffer":0,
			"byteLength":792,
			"byteOffset":185564,
			"target":34963
		},
		{
			"buffer":0,
			"byteLength":8328,
			"byteOffset":186356,
			"target":34962
		},
		{
			"buffer":0,
			"byteLength":8328,
			"byteOffset":194684,
			"target":34962
		},
		{
			"buffer":0,
			"byteLength":5552,
			"byteOffset":203012,
			"target":34962
		},
		{
			"buffer":0,
			"byteLength":5952,
			"byteOffset":208564,
			"target":34963
		}
	],
	"samplers":[
		{
			"magFilter":9729,
			"minFilter":9987
		}
	],
	"buffers":[
		{
			"byteLength":214516,
			"uri":"BaseRaceKart7.bin"
		}
	]
}
