{
	"asset":{
		"generator":"Khronos glTF Blender I/O v5.0.21",
		"version":"2.0"
	},
	"scene":0,
	"scenes":[
		{
			"name":"Scene",
			"nodes":[
				8
			]
		}
	],
	"nodes":[
		{
			"mesh":0,
			"name":"body",
			"translation":[
				0,
				0.18621011078357697,
				0
			]
		},
		{
			"name":"seat_anchor",
			"translation":[
				0,
				0.49992701411247253,
				-0.36646100878715515
			]
		},
		{
			"mesh":1,
			"name":"SteeringWheel.005",
			"translation":[
				0.0008785238023847342,
				0.9716395139694214,
				0.12035875022411346
			]
		},
		{
			"mesh":2,
			"name":"underbody.002",
			"translation":[
				-3.254413604736328e-05,
				0.33584922552108765,
				-0.05429220199584961
			]
		},
		{
			"mesh":3,
			"name":"wheel-back-left.002",
			"rotation":[
				0,
				1,
				0,
				1.9470718370939721e-07
			],
			"translation":[
				0.6540889739990234,
				0.3351660966873169,
				-0.8625205159187317
			]
		},
		{
			"mesh":4,
			"name":"wheel-back-right.010",
			"rotation":[
				0,
				0,
				-1,
				4.371138828673793e-08
			],
			"scale":[
				-1,
				-1,
				-1
			],
			"translation":[
				-0.6540886759757996,
				0.3351660370826721,
				-0.8625207543373108
			]
		},
		{
			"mesh":5,
			"name":"wheel-front-left.007",
			"rotation":[
				1,
				0,
				0,
				7.549790126404332e-08
			],
			"scale":[
				-1,
				-1,
				-1
			],
			"translation":[
				0.6540886759757996,
				0.3351660668849945,
				0.7035202980041504
			]
		},
		{
			"mesh":6,
			"name":"wheel-front-right.001",
			"translation":[
				-0.6540886759757996,
				0.3351660966873169,
				0.7035202980041504
			]
		},
		{
			"children":[
				0,
				1,
				2,
				3,
				4,
				5,
				6,
				7
			],
			"name":"BaseRaceKart6.001"
		}
	],
	"materials":[
		{
			"doubleSided":true,
			"emissiveFactor":[
				1,
				1,
				1
			],
			"emissiveTexture":{
				"index":0
			},
			"name":"car 3",
			"normalTexture":{
				"index":1
			},
			"pbrMetallicRoughness":{
				"baseColorTexture":{
					"index":2
				},
				"metallicRoughnessTexture":{
					"index":3
				}
			}
		}
	],
	"meshes":[
		{
			"name":"body.003",
			"primitives":[
				{
					"attributes":{
						"POSITION":0,
						"NORMAL":1,
						"TEXCOORD_0":2
					},
					"indices":3,
					"material":0
				}
			]
		},
		{
			"name":"SteeringWheel.005",
			"primitives":[
				{
					"attributes":{
						"POSITION":4,
						"NORMAL":5,
						"TEXCOORD_0":6,
						"TEXCOORD_1":7
					},
					"indices":8,
					"material":0
				}
			]
		},
		{
			"name":"underbody",
			"primitives":[
				{
					"attributes":{
						"POSITION":9,
						"NORMAL":10,
						"TEXCOORD_0":11
					},
					"indices":12,
					"material":0
				}
			]
		},
		{
			"name":"wheel-back-left.005",
			"primitives":[
				{
					"attributes":{
						"POSITION":13,
						"NORMAL":14,
						"TEXCOORD_0":15
					},
					"indices":16,
					"material":0
				}
			]
		},
		{
			"name":"wheel-back-left.002",
			"primitives":[
				{
					"attributes":{
						"POSITION":17,
						"NORMAL":18,
						"TEXCOORD_0":19
					},
					"indices":16,
					"material":0
				}
			]
		},
		{
			"name":"wheel-back-left.006",
			"primitives":[
				{
					"attributes":{
						"POSITION":20,
						"NORMAL":21,
						"TEXCOORD_0":22
					},
					"indices":16,
					"material":0
				}
			]
		},
		{
			"name":"wheel-back-left.003",
			"primitives":[
				{
					"attributes":{
						"POSITION":23,
						"NORMAL":24,
						"TEXCOORD_0":25
					},
					"indices":16,
					"material":0
				}
			]
		}
	],
	"textures":[
		{
			"sampler":0,
			"source":0
		},
		{
			"sampler":0,
			"source":1
		},
		{
			"sampler":0,
			"source":2
		},
		{
			"sampler":0,
			"source":3
		}
	],
	"images":[
		{
			"mimeType":"image/png",
			"name":"cars_car 3_Emissive.1001",
			"uri":"textures/cars_car%203_Emissive.1001.png"
		},
		{
			"mimeType":"image/png",
			"name":"cars_car 3_Normal.1001",
			"uri":"textures/cars_car%203_Normal.1001.png"
		},
		{
			"mimeType":"image/png",
			"name":"cars_car 3_BaseColor.1001",
			"uri":"textures/cars_car%203_BaseColor.1001.png"
		},
		{
			"mimeType":"image/png",
			"name":"cars_car 3_OcclusionRoughnessMetallic.1001",
			"uri":"textures/cars_car%203_OcclusionRoughnessMetallic.1001.png"
		}
	],
	"accessors":[
		{
			"bufferView":0,
			"componentType":5126,
			"count":3082,
			"max":[
				0.6000530123710632,
				1.0018216371536255,
				1.2938565015792847
			],
			"min":[
				-0.600053071975708,
				0.052613526582717896,
				-1.6432496309280396
			],
			"type":"VEC3"
		},
		{
			"bufferView":1,
			"componentType":5126,
			"count":3082,
			"type":"VEC3"
		},
		{
			"bufferView":2,
			"componentType":5126,
			"count":3082,
			"type":"VEC2"
		},
		{
			"bufferView":3,
			"componentType":5123,
			"count":12444,
			"type":"SCALAR"
		},
		{
			"bufferView":4,
			"componentType":5126,
			"count":600,
			"max":[
				0.25186750292778015,
				0.2368120551109314,
				0.059848614037036896
			],
			"min":[
				-0.25194814801216125,
				-0.21137696504592896,
				-0.056939415633678436
			],
			"type":"VEC3"
		},
		{
			"bufferView":5,
			"componentType":5126,
			"count":600,
			"type":"VEC3"
		},
		{
			"bufferView":6,
			"componentType":5126,
			"count":600,
			"type":"VEC2"
		},
		{
			"bufferView":7,
			"componentType":5126,
			"count":600,
			"type":"VEC2"
		},
		{
			"bufferView":8,
			"componentType":5123,
			"count":3102,
			"type":"SCALAR"
		},
		{
			"bufferView":9,
			"componentType":5126,
			"count":150,
			"max":[
				0.5406840443611145,
				0.04283388704061508,
				0.9371718764305115
			],
			"min":[
				-0.5406840443611145,
				-0.04283388704061508,
				-0.9371718764305115
			],
			"type":"VEC3"
		},
		{
			"bufferView":10,
			"componentType":5126,
			"count":150,
			"type":"VEC3"
		},
		{
			"bufferView":11,
			"componentType":5126,
			"count":150,
			"type":"VEC2"
		},
		{
			"bufferView":12,
			"componentType":5123,
			"count":396,
			"type":"SCALAR"
		},
		{
			"bufferView":13,
			"componentType":5126,
			"count":692,
			"max":[
				0.14478814601898193,
				0.3331860899925232,
				0.33318614959716797
			],
			"min":[
				-0.14478814601898193,
				-0.33318620920181274,
				-0.33318617939949036
			],
			"type":"VEC3"
		},
		{
			"bufferView":14,
			"componentType":5126,
			"count":692,
			"type":"VEC3"
		},
		{
			"bufferView":15,
			"componentType":5126,
			"count":692,
			"type":"VEC2"
		},
		{
			"bufferView":16,
			"componentType":5123,
			"count":2976,
			"type":"SCALAR"
		},
		{
			"bufferView":17,
			"componentType":5126,
			"count":692,
			"max":[
				0.14478814601898193,
				0.3331860899925232,
				0.33318614959716797
			],
			"min":[
				-0.14478814601898193,
				-0.33318620920181274,
				-0.33318617939949036
			],
			"type":"VEC3"
		},
		{
			"bufferView":18,
			"componentType":5126,
			"count":692,
			"type":"VEC3"
		},
		{
			"bufferView":19,
			"componentType":5126,
			"count":692,
			"type":"VEC2"
		},
		{
			"bufferView":20,
			"componentType":5126,
			"count":692,
			"max":[
				0.14478814601898193,
				0.3331860899925232,
				0.33318614959716797
			],
			"min":[
				-0.14478814601898193,
				-0.33318620920181274,
				-0.33318617939949036
			],
			"type":"VEC3"
		},
		{
			"bufferView":21,
			"componentType":5126,
			"count":692,
			"type":"VEC3"
		},
		{
			"bufferView":22,
			"componentType":5126,
			"count":692,
			"type":"VEC2"
		},
		{
			"bufferView":23,
			"componentType":5126,
			"count":692,
			"max":[
				0.14478814601898193,
				0.3331860899925232,
				0.33318614959716797
			],
			"min":[
				-0.14478814601898193,
				-0.33318620920181274,
				-0.33318617939949036
			],
			"type":"VEC3"
		},
		{
			"bufferView":24,
			"componentType":5126,
			"count":692,
			"type":"VEC3"
		},
		{
			"bufferView":25,
			"componentType":5126,
			"count":692,
			"type":"VEC2"
		}
	],
	"bufferViews":[
		{
			"buffer":0,
			"byteLength":36984,
			"byteOffset":0,
			"target":34962
		},
		{
			"buffer":0,
			"byteLength":36984,
			"byteOffset":36984,
			"target":34962
		},
		{
			"buffer":0,
			"byteLength":24656,
			"byteOffset":73968,
			"target":34962
		},
		{
			"buffer":0,
			"byteLength":24888,
			"byteOffset":98624,
			"target":34963
		},
		{
			"buffer":0,
			"byteLength":7200,
			"byteOffset":123512,
			"target":34962
		},
		{
			"buffer":0,
			"byteLength":7200,
			"byteOffset":130712,
			"target":34962
		},
		{
			"buffer":0,
			"byteLength":4800,
			"byteOffset":137912,
			"target":34962
		},
		{
			"buffer":0,
			"byteLength":4800,
			"byteOffset":142712,
			"target":34962
		},
		{
			"buffer":0,
			"byteLength":6204,
			"byteOffset":147512,
			"target":34963
		},
		{
			"buffer":0,
			"byteLength":1800,
			"byteOffset":153716,
			"target":34962
		},
		{
			"buffer":0,
			"byteLength":1800,
			"byteOffset":155516,
			"target":34962
		},
		{
			"buffer":0,
			"byteLength":1200,
			"byteOffset":157316,
			"target":34962
		},
		{
			"buffer":0,
			"byteLength":792,
			"byteOffset":158516,
			"target":34963
		},
		{
			"buffer":0,
			"byteLength":8304,
			"byteOffset":159308,
			"target":34962
		},
		{
			"buffer":0,
			"byteLength":8304,
			"byteOffset":167612,
			"target":34962
		},
		{
			"buffer":0,
			"byteLength":5536,
			"byteOffset":175916,
			"target":34962
		},
		{
			"buffer":0,
			"byteLength":5952,
			"byteOffset":181452,
			"target":34963
		},
		{
			"buffer":0,
			"byteLength":8304,
			"byteOffset":187404,
			"target":34962
		},
		{
			"buffer":0,
			"byteLength":8304,
			"byteOffset":195708,
			"target":34962
		},
		{
			"buffer":0,
			"byteLength":5536,
			"byteOffset":204012,
			"target":34962
		},
		{
			"buffer":0,
			"byteLength":8304,
			"byteOffset":209548,
			"target":34962
		},
		{
			"buffer":0,
			"byteLength":8304,
			"byteOffset":217852,
			"target":34962
		},
		{
			"buffer":0,
			"byteLength":5536,
			"byteOffset":226156,
			"target":34962
		},
		{
			"buffer":0,
			"byteLength":8304,
			"byteOffset":231692,
			"target":34962
		},
		{
			"buffer":0,
			"byteLength":8304,
			"byteOffset":239996,
			"target":34962
		},
		{
			"buffer":0,
			"byteLength":5536,
			"byteOffset":248300,
			"target":34962
		}
	],
	"samplers":[
		{
			"magFilter":9729,
			"minFilter":9987
		}
	],
	"buffers":[
		{
			"byteLength":253836,
			"uri":"BaseRaceKart6.bin"
		}
	]
}
