{
	"asset":{
		"generator":"Khronos glTF Blender I/O v5.0.21",
		"version":"2.0"
	},
	"scene":0,
	"scenes":[
		{
			"name":"Scene",
			"nodes":[
				8
			]
		}
	],
	"nodes":[
		{
			"mesh":0,
			"name":"Body",
			"translation":[
				0,
				0.4865947961807251,
				0.13929790258407593
			]
		},
		{
			"name":"seat_anchor",
			"translation":[
				0,
				0.49992692470550537,
				-0.3664608895778656
			]
		},
		{
			"mesh":1,
			"name":"SteeringWheel",
			"translation":[
				0.0009620487689971924,
				0.8144899010658264,
				0.07991542667150497
			]
		},
		{
			"mesh":2,
			"name":"Underbody",
			"translation":[
				-3.254413604736328e-05,
				0.2789924442768097,
				-0.07273781299591064
			]
		},
		{
			"mesh":3,
			"name":"wheel-back-left",
			"translation":[
				0.6119152307510376,
				0.27886962890625,
				-0.7081092596054077
			]
		},
		{
			"mesh":3,
			"name":"wheel-back-right",
			"translation":[
				-0.6118346452713013,
				0.27886962890625,
				-0.708109438419342
			]
		},
		{
			"mesh":3,
			"name":"wheel-front-left",
			"translation":[
				0.6119152307510376,
				0.27886962890625,
				0.6992847323417664
			]
		},
		{
			"mesh":3,
			"name":"wheel-front-right",
			"translation":[
				-0.6118346452713013,
				0.27886962890625,
				0.6992847919464111
			]
		},
		{
			"children":[
				0,
				1,
				2,
				3,
				4,
				5,
				6,
				7
			],
			"name":"BaseRaceKart1"
		}
	],
	"materials":[
		{
			"doubleSided":true,
			"emissiveTexture":{
				"index":0
			},
			"name":"car 1",
			"normalTexture":{
				"index":1
			},
			"pbrMetallicRoughness":{
				"baseColorTexture":{
					"index":2
				},
				"metallicRoughnessTexture":{
					"index":3
				}
			}
		}
	],
	"meshes":[
		{
			"name":"Body",
			"primitives":[
				{
					"attributes":{
						"POSITION":0,
						"NORMAL":1,
						"TEXCOORD_0":2
					},
					"indices":3,
					"material":0
				}
			]
		},
		{
			"name":"SteeringWheel",
			"primitives":[
				{
					"attributes":{
						"POSITION":4,
						"NORMAL":5,
						"TEXCOORD_0":6,
						"TEXCOORD_1":7
					},
					"indices":8,
					"material":0
				}
			]
		},
		{
			"name":"Underbody",
			"primitives":[
				{
					"attributes":{
						"POSITION":9,
						"NORMAL":10,
						"TEXCOORD_0":11
					},
					"indices":12,
					"material":0
				}
			]
		},
		{
			"name":"wheel-front-right.003",
			"primitives":[
				{
					"attributes":{
						"POSITION":13,
						"NORMAL":14,
						"TEXCOORD_0":15
					},
					"indices":16,
					"material":0
				}
			]
		}
	],
	"textures":[
		{
			"sampler":0,
			"source":0
		},
		{
			"sampler":0,
			"source":1
		},
		{
			"sampler":0,
			"source":2
		},
		{
			"sampler":0,
			"source":3
		}
	],
	"images":[
		{
			"mimeType":"image/png",
			"name":"cars_car 1_Emissive.1001",
			"uri":"textures/cars_car%201_Emissive.1001.png"
		},
		{
			"mimeType":"image/png",
			"name":"cars_car 1_Normal.1001",
			"uri":"textures/cars_car%201_Normal.1001.png"
		},
		{
			"mimeType":"image/png",
			"name":"cars_car 1_BaseColor.1001",
			"uri":"textures/cars_car%201_BaseColor.1001.png"
		},
		{
			"mimeType":"image/png",
			"name":"cars_car 1_OcclusionRoughnessMetallic.1001",
			"uri":"textures/cars_car%201_OcclusionRoughnessMetallic.1001.png"
		}
	],
	"accessors":[
		{
			"bufferView":0,
			"componentType":5126,
			"count":2403,
			"max":[
				0.7897176742553711,
				0.39986133575439453,
				1.3059420585632324
			],
			"min":[
				-0.7897176742553711,
				-0.39986133575439453,
				-1.3059420585632324
			],
			"type":"VEC3"
		},
		{
			"bufferView":1,
			"componentType":5126,
			"count":2403,
			"type":"VEC3"
		},
		{
			"bufferView":2,
			"componentType":5126,
			"count":2403,
			"type":"VEC2"
		},
		{
			"bufferView":3,
			"componentType":5123,
			"count":7704,
			"type":"SCALAR"
		},
		{
			"bufferView":4,
			"componentType":5126,
			"count":665,
			"max":[
				0.2519078254699707,
				0.22409456968307495,
				0.058394014835357666
			],
			"min":[
				-0.2519078254699707,
				-0.22409456968307495,
				-0.058394014835357666
			],
			"type":"VEC3"
		},
		{
			"bufferView":5,
			"componentType":5126,
			"count":665,
			"type":"VEC3"
		},
		{
			"bufferView":6,
			"componentType":5126,
			"count":665,
			"type":"VEC2"
		},
		{
			"bufferView":7,
			"componentType":5126,
			"count":665,
			"type":"VEC2"
		},
		{
			"bufferView":8,
			"componentType":5123,
			"count":3102,
			"type":"SCALAR"
		},
		{
			"bufferView":9,
			"componentType":5126,
			"count":150,
			"max":[
				0.5214202404022217,
				0.04283388704061508,
				0.9305503964424133
			],
			"min":[
				-0.5214202404022217,
				-0.04283388704061508,
				-0.7763541340827942
			],
			"type":"VEC3"
		},
		{
			"bufferView":10,
			"componentType":5126,
			"count":150,
			"type":"VEC3"
		},
		{
			"bufferView":11,
			"componentType":5126,
			"count":150,
			"type":"VEC2"
		},
		{
			"bufferView":12,
			"componentType":5123,
			"count":396,
			"type":"SCALAR"
		},
		{
			"bufferView":13,
			"componentType":5126,
			"count":756,
			"max":[
				0.14478814601898193,
				0.27765512466430664,
				0.27765512466430664
			],
			"min":[
				-0.14478814601898193,
				-0.27765512466430664,
				-0.27765512466430664
			],
			"type":"VEC3"
		},
		{
			"bufferView":14,
			"componentType":5126,
			"count":756,
			"type":"VEC3"
		},
		{
			"bufferView":15,
			"componentType":5126,
			"count":756,
			"type":"VEC2"
		},
		{
			"bufferView":16,
			"componentType":5123,
			"count":2688,
			"type":"SCALAR"
		}
	],
	"bufferViews":[
		{
			"buffer":0,
			"byteLength":28836,
			"byteOffset":0,
			"target":34962
		},
		{
			"buffer":0,
			"byteLength":28836,
			"byteOffset":28836,
			"target":34962
		},
		{
			"buffer":0,
			"byteLength":19224,
			"byteOffset":57672,
			"target":34962
		},
		{
			"buffer":0,
			"byteLength":15408,
			"byteOffset":76896,
			"target":34963
		},
		{
			"buffer":0,
			"byteLength":7980,
			"byteOffset":92304,
			"target":34962
		},
		{
			"buffer":0,
			"byteLength":7980,
			"byteOffset":100284,
			"target":34962
		},
		{
			"buffer":0,
			"byteLength":5320,
			"byteOffset":108264,
			"target":34962
		},
		{
			"buffer":0,
			"byteLength":5320,
			"byteOffset":113584,
			"target":34962
		},
		{
			"buffer":0,
			"byteLength":6204,
			"byteOffset":118904,
			"target":34963
		},
		{
			"buffer":0,
			"byteLength":1800,
			"byteOffset":125108,
			"target":34962
		},
		{
			"buffer":0,
			"byteLength":1800,
			"byteOffset":126908,
			"target":34962
		},
		{
			"buffer":0,
			"byteLength":1200,
			"byteOffset":128708,
			"target":34962
		},
		{
			"buffer":0,
			"byteLength":792,
			"byteOffset":129908,
			"target":34963
		},
		{
			"buffer":0,
			"byteLength":9072,
			"byteOffset":130700,
			"target":34962
		},
		{
			"buffer":0,
			"byteLength":9072,
			"byteOffset":139772,
			"target":34962
		},
		{
			"buffer":0,
			"byteLength":6048,
			"byteOffset":148844,
			"target":34962
		},
		{
			"buffer":0,
			"byteLength":5376,
			"byteOffset":154892,
			"target":34963
		}
	],
	"samplers":[
		{
			"magFilter":9729,
			"minFilter":9987
		}
	],
	"buffers":[
		{
			"byteLength":160268,
			"uri":"BaseRaceKart1.bin"
		}
	]
}
