{
	"asset":{
		"generator":"Khronos glTF Blender I/O v5.0.21",
		"version":"2.0"
	},
	"scene":0,
	"scenes":[
		{
			"name":"Scene",
			"nodes":[
				8
			]
		}
	],
	"nodes":[
		{
			"mesh":0,
			"name":"Body",
			"scale":[
				1.100000023841858,
				1.2063956260681152,
				1.2063956260681152
			],
			"translation":[
				9.071826934814453e-05,
				0.5405951142311096,
				-0.11647479236125946
			]
		},
		{
			"name":"seat_anchor",
			"translation":[
				0,
				0.49992701411247253,
				-0.36646100878715515
			]
		},
		{
			"mesh":1,
			"name":"SteeringWheel",
			"translation":[
				0.0009620487689971924,
				0.8017647862434387,
				-0.00017903558909893036
			]
		},
		{
			"mesh":2,
			"name":"Underbody",
			"rotation":[
				-0.70710688829422,
				0,
				0,
				0.7071066498756409
			],
			"translation":[
				-0.00020769124967046082,
				0.21522991359233856,
				-0.045445919036865234
			]
		},
		{
			"mesh":3,
			"name":"wheel-back-left",
			"translation":[
				0.6000000238418579,
				0.24458789825439453,
				-0.6646804809570312
			]
		},
		{
			"mesh":3,
			"name":"wheel-back-right",
			"translation":[
				-0.6000000238418579,
				0.24458789825439453,
				-0.6646804809570312
			]
		},
		{
			"mesh":4,
			"name":"wheel-front-left",
			"translation":[
				0.6000000238418579,
				0.18552112579345703,
				0.5770442485809326
			]
		},
		{
			"mesh":4,
			"name":"wheel-front-right",
			"translation":[
				-0.6000000238418579,
				0.18552112579345703,
				0.5770447254180908
			]
		},
		{
			"children":[
				0,
				1,
				2,
				3,
				4,
				5,
				6,
				7
			],
			"name":"BaseRaceKart2"
		}
	],
	"materials":[
		{
			"doubleSided":true,
			"emissiveTexture":{
				"index":0
			},
			"name":"car 2",
			"normalTexture":{
				"index":1
			},
			"pbrMetallicRoughness":{
				"baseColorTexture":{
					"index":2
				},
				"metallicRoughnessTexture":{
					"index":3
				}
			}
		}
	],
	"meshes":[
		{
			"name":"Body.001",
			"primitives":[
				{
					"attributes":{
						"POSITION":0,
						"NORMAL":1,
						"TEXCOORD_0":2
					},
					"indices":3,
					"material":0
				}
			]
		},
		{
			"name":"SteeringWheel",
			"primitives":[
				{
					"attributes":{
						"POSITION":4,
						"NORMAL":5,
						"TEXCOORD_0":6,
						"TEXCOORD_1":7
					},
					"indices":8,
					"material":0
				}
			]
		},
		{
			"name":"Underbody.001",
			"primitives":[
				{
					"attributes":{
						"POSITION":9,
						"NORMAL":10,
						"TEXCOORD_0":11
					},
					"indices":12,
					"material":0
				}
			]
		},
		{
			"name":"wheel-back-right.002",
			"primitives":[
				{
					"attributes":{
						"POSITION":13,
						"NORMAL":14,
						"TEXCOORD_0":15
					},
					"indices":16,
					"material":0
				}
			]
		},
		{
			"name":"wheel-front-right.005",
			"primitives":[
				{
					"attributes":{
						"POSITION":17,
						"NORMAL":18,
						"TEXCOORD_0":19
					},
					"indices":20,
					"material":0
				}
			]
		}
	],
	"textures":[
		{
			"sampler":0,
			"source":0
		},
		{
			"sampler":0,
			"source":1
		},
		{
			"sampler":0,
			"source":2
		},
		{
			"sampler":0,
			"source":3
		}
	],
	"images":[
		{
			"mimeType":"image/png",
			"name":"cars_car 2_Emissive.1001",
			"uri":"textures/cars_car%202_Emissive.1001.png"
		},
		{
			"mimeType":"image/png",
			"name":"cars_car 2_Normal.1001",
			"uri":"textures/cars_car%202_Normal.1001.png"
		},
		{
			"mimeType":"image/png",
			"name":"cars_car 2_BaseColor.1001",
			"uri":"textures/cars_car%202_BaseColor.1001.png"
		},
		{
			"mimeType":"image/png",
			"name":"cars_car 2_OcclusionRoughnessMetallic.1001",
			"uri":"textures/cars_car%202_OcclusionRoughnessMetallic.1001.png"
		}
	],
	"accessors":[
		{
			"bufferView":0,
			"componentType":5126,
			"count":1883,
			"max":[
				0.5822142362594604,
				0.4081624150276184,
				1.1109416484832764
			],
			"min":[
				-0.5822142362594604,
				-0.4081624150276184,
				-1.1109416484832764
			],
			"type":"VEC3"
		},
		{
			"bufferView":1,
			"componentType":5126,
			"count":1883,
			"type":"VEC3"
		},
		{
			"bufferView":2,
			"componentType":5126,
			"count":1883,
			"type":"VEC2"
		},
		{
			"bufferView":3,
			"componentType":5123,
			"count":7224,
			"type":"SCALAR"
		},
		{
			"bufferView":4,
			"componentType":5126,
			"count":600,
			"max":[
				0.2519078254699707,
				0.21833205223083496,
				0.08253297209739685
			],
			"min":[
				-0.2519078254699707,
				-0.21833205223083496,
				-0.08253297209739685
			],
			"type":"VEC3"
		},
		{
			"bufferView":5,
			"componentType":5126,
			"count":600,
			"type":"VEC3"
		},
		{
			"bufferView":6,
			"componentType":5126,
			"count":600,
			"type":"VEC2"
		},
		{
			"bufferView":7,
			"componentType":5126,
			"count":600,
			"type":"VEC2"
		},
		{
			"bufferView":8,
			"componentType":5123,
			"count":3102,
			"type":"SCALAR"
		},
		{
			"bufferView":9,
			"componentType":5126,
			"count":150,
			"max":[
				0.5214200019836426,
				0.7313300371170044,
				0.07264183461666107
			],
			"min":[
				-0.5214200019836426,
				-0.7313300371170044,
				-0.07264183461666107
			],
			"type":"VEC3"
		},
		{
			"bufferView":10,
			"componentType":5126,
			"count":150,
			"type":"VEC3"
		},
		{
			"bufferView":11,
			"componentType":5126,
			"count":150,
			"type":"VEC2"
		},
		{
			"bufferView":12,
			"componentType":5123,
			"count":396,
			"type":"SCALAR"
		},
		{
			"bufferView":13,
			"componentType":5126,
			"count":484,
			"max":[
				0.1252821385860443,
				0.24024909734725952,
				0.2402491271495819
			],
			"min":[
				-0.12528210878372192,
				-0.24024911224842072,
				-0.2402491569519043
			],
			"type":"VEC3"
		},
		{
			"bufferView":14,
			"componentType":5126,
			"count":484,
			"type":"VEC3"
		},
		{
			"bufferView":15,
			"componentType":5126,
			"count":484,
			"type":"VEC2"
		},
		{
			"bufferView":16,
			"componentType":5123,
			"count":2304,
			"type":"SCALAR"
		},
		{
			"bufferView":17,
			"componentType":5126,
			"count":500,
			"max":[
				0.09582477807998657,
				0.18375977873802185,
				0.18375980854034424
			],
			"min":[
				-0.09582477807998657,
				-0.18375979363918304,
				-0.18375980854034424
			],
			"type":"VEC3"
		},
		{
			"bufferView":18,
			"componentType":5126,
			"count":500,
			"type":"VEC3"
		},
		{
			"bufferView":19,
			"componentType":5126,
			"count":500,
			"type":"VEC2"
		},
		{
			"bufferView":20,
			"componentType":5123,
			"count":2304,
			"type":"SCALAR"
		}
	],
	"bufferViews":[
		{
			"buffer":0,
			"byteLength":22596,
			"byteOffset":0,
			"target":34962
		},
		{
			"buffer":0,
			"byteLength":22596,
			"byteOffset":22596,
			"target":34962
		},
		{
			"buffer":0,
			"byteLength":15064,
			"byteOffset":45192,
			"target":34962
		},
		{
			"buffer":0,
			"byteLength":14448,
			"byteOffset":60256,
			"target":34963
		},
		{
			"buffer":0,
			"byteLength":7200,
			"byteOffset":74704,
			"target":34962
		},
		{
			"buffer":0,
			"byteLength":7200,
			"byteOffset":81904,
			"target":34962
		},
		{
			"buffer":0,
			"byteLength":4800,
			"byteOffset":89104,
			"target":34962
		},
		{
			"buffer":0,
			"byteLength":4800,
			"byteOffset":93904,
			"target":34962
		},
		{
			"buffer":0,
			"byteLength":6204,
			"byteOffset":98704,
			"target":34963
		},
		{
			"buffer":0,
			"byteLength":1800,
			"byteOffset":104908,
			"target":34962
		},
		{
			"buffer":0,
			"byteLength":1800,
			"byteOffset":106708,
			"target":34962
		},
		{
			"buffer":0,
			"byteLength":1200,
			"byteOffset":108508,
			"target":34962
		},
		{
			"buffer":0,
			"byteLength":792,
			"byteOffset":109708,
			"target":34963
		},
		{
			"buffer":0,
			"byteLength":5808,
			"byteOffset":110500,
			"target":34962
		},
		{
			"buffer":0,
			"byteLength":5808,
			"byteOffset":116308,
			"target":34962
		},
		{
			"buffer":0,
			"byteLength":3872,
			"byteOffset":122116,
			"target":34962
		},
		{
			"buffer":0,
			"byteLength":4608,
			"byteOffset":125988,
			"target":34963
		},
		{
			"buffer":0,
			"byteLength":6000,
			"byteOffset":130596,
			"target":34962
		},
		{
			"buffer":0,
			"byteLength":6000,
			"byteOffset":136596,
			"target":34962
		},
		{
			"buffer":0,
			"byteLength":4000,
			"byteOffset":142596,
			"target":34962
		},
		{
			"buffer":0,
			"byteLength":4608,
			"byteOffset":146596,
			"target":34963
		}
	],
	"samplers":[
		{
			"magFilter":9729,
			"minFilter":9987
		}
	],
	"buffers":[
		{
			"byteLength":151204,
			"uri":"BaseRaceKart2.bin"
		}
	]
}
