{
	"asset":{
		"generator":"Khronos glTF Blender I/O v5.0.21",
		"version":"2.0"
	},
	"scene":0,
	"scenes":[
		{
			"name":"Scene",
			"nodes":[
				8
			]
		}
	],
	"nodes":[
		{
			"mesh":0,
			"name":"Body.005",
			"rotation":[
				0,
				0.7071066498756409,
				0,
				0.70710688829422
			],
			"translation":[
				2.6702880859375e-05,
				0.7384830117225647,
				0.005462169647216797
			]
		},
		{
			"name":"seat_anchor.003",
			"translation":[
				0,
				0.49992701411247253,
				-0.36646100878715515
			]
		},
		{
			"mesh":1,
			"name":"SteeringWheel.007",
			"rotation":[
				0,
				0.7071066498756409,
				0,
				0.70710688829422
			],
			"translation":[
				0.0009620189666748047,
				1.0287971496582031,
				0.10162496566772461
			]
		},
		{
			"mesh":2,
			"name":"Underbody",
			"rotation":[
				-0.70710688829422,
				0,
				0,
				0.7071066498756409
			],
			"translation":[
				-1.1682510375976562e-05,
				0.39440444111824036,
				-0.09208488464355469
			]
		},
		{
			"mesh":3,
			"name":"wheel-back-left",
			"translation":[
				0.654141902923584,
				0.3931455612182617,
				-0.682166576385498
			]
		},
		{
			"mesh":3,
			"name":"wheel-back-right",
			"translation":[
				-0.6540887355804443,
				0.3931455612182617,
				-0.682166576385498
			]
		},
		{
			"mesh":3,
			"name":"wheel-front-left",
			"translation":[
				0.6541421413421631,
				0.3931455612182617,
				0.5996828079223633
			]
		},
		{
			"mesh":3,
			"name":"wheel-front-right",
			"translation":[
				-0.6540887355804443,
				0.3931455612182617,
				0.5996828079223633
			]
		},
		{
			"children":[
				0,
				1,
				2,
				3,
				4,
				5,
				6,
				7
			],
			"name":"BaseRaceKart3"
		}
	],
	"materials":[
		{
			"doubleSided":true,
			"emissiveTexture":{
				"index":0
			},
			"name":"car 2",
			"normalTexture":{
				"index":1
			},
			"pbrMetallicRoughness":{
				"baseColorTexture":{
					"index":2
				},
				"metallicRoughnessTexture":{
					"index":3
				}
			},
			"occlusionTexture":{
				"index":3
			}
		}
	],
	"meshes":[
		{
			"extras":{
				"targetNames":[
					"Damage_Front_Left",
					"Damage_Front_Right",
					"Damage_Back_Right",
					"Damage_Back_Left"
				]
			},
			"name":"body.002",
			"primitives":[
				{
					"attributes":{
						"POSITION":0,
						"NORMAL":1,
						"TEXCOORD_0":2
					},
					"indices":3,
					"material":0,
					"targets":[
						{
							"POSITION":4,
							"NORMAL":5
						},
						{
							"POSITION":6,
							"NORMAL":7
						},
						{
							"POSITION":8,
							"NORMAL":9
						},
						{
							"POSITION":10,
							"NORMAL":11
						}
					]
				}
			],
			"weights":[
				0,
				0,
				0,
				0
			]
		},
		{
			"name":"SteeringWheel.002",
			"primitives":[
				{
					"attributes":{
						"POSITION":12,
						"NORMAL":13,
						"TEXCOORD_0":14,
						"TEXCOORD_1":15
					},
					"indices":16,
					"material":0
				}
			]
		},
		{
			"name":"Cylinder.005",
			"primitives":[
				{
					"attributes":{
						"POSITION":17,
						"NORMAL":18,
						"TEXCOORD_0":19
					},
					"indices":20,
					"material":0
				}
			]
		},
		{
			"name":"wheel-front-left.003",
			"primitives":[
				{
					"attributes":{
						"POSITION":21,
						"NORMAL":22,
						"TEXCOORD_0":23
					},
					"indices":24,
					"material":0
				}
			]
		}
	],
	"textures":[
		{
			"sampler":0,
			"source":0
		},
		{
			"sampler":0,
			"source":1
		},
		{
			"sampler":0,
			"source":2
		},
		{
			"sampler":0,
			"source":3
		}
	],
	"images":[
		{
			"mimeType":"image/png",
			"name":"cars_car 2_Emissive.1001",
			"uri":"textures/cars_car%202_Emissive.1001.png"
		},
		{
			"mimeType":"image/png",
			"name":"cars_car 2_Normal.1001",
			"uri":"textures/cars_car%202_Normal.1001.png"
		},
		{
			"mimeType":"image/png",
			"name":"cars_car 2_BaseColor.1001",
			"uri":"textures/cars_car%202_BaseColor.1001.png"
		},
		{
			"mimeType":"image/png",
			"name":"cars_car 2_OcclusionRoughnessMetallic.1001",
			"uri":"textures/cars_car%202_OcclusionRoughnessMetallic.1001.png"
		}
	],
	"accessors":[
		{
			"bufferView":0,
			"componentType":5126,
			"count":3208,
			"max":[
				1.154240608215332,
				0.44570207595825195,
				0.7546573877334595
			],
			"min":[
				-1.154240608215332,
				-0.44570207595825195,
				-0.7546573877334595
			],
			"type":"VEC3"
		},
		{
			"bufferView":1,
			"componentType":5126,
			"count":3208,
			"type":"VEC3"
		},
		{
			"bufferView":2,
			"componentType":5126,
			"count":3208,
			"type":"VEC2"
		},
		{
			"bufferView":3,
			"componentType":5123,
			"count":10368,
			"type":"SCALAR"
		},
		{
			"bufferView":4,
			"componentType":5126,
			"count":3208,
			"max":[
				0.08478084951639175,
				0.11217911541461945,
				0.050180792808532715
			],
			"min":[
				-0.03748953342437744,
				-0.1906399428844452,
				-0.24415665864944458
			],
			"type":"VEC3"
		},
		{
			"bufferView":5,
			"componentType":5126,
			"count":3208,
			"type":"VEC3"
		},
		{
			"bufferView":6,
			"componentType":5126,
			"count":3208,
			"max":[
				0.09750090539455414,
				0.12145820260047913,
				0.2668292820453644
			],
			"min":[
				-0.024561285972595215,
				-0.1411772221326828,
				-0.051520586013793945
			],
			"type":"VEC3"
		},
		{
			"bufferView":7,
			"componentType":5126,
			"count":3208,
			"type":"VEC3"
		},
		{
			"bufferView":8,
			"componentType":5126,
			"count":3208,
			"max":[
				0.01405644416809082,
				0.2807191014289856,
				0.47383224964141846
			],
			"min":[
				-0.06165283918380737,
				0.0006013810634613037,
				-0.0014143652515485883
			],
			"type":"VEC3"
		},
		{
			"bufferView":9,
			"componentType":5126,
			"count":3208,
			"type":"VEC3"
		},
		{
			"bufferView":10,
			"componentType":5126,
			"count":3208,
			"max":[
				0.07115471363067627,
				0.10262401401996613,
				0.0004899501800537109
			],
			"min":[
				-0.1112762987613678,
				-0.08332955837249756,
				-0.38926512002944946
			],
			"type":"VEC3"
		},
		{
			"bufferView":11,
			"componentType":5126,
			"count":3208,
			"type":"VEC3"
		},
		{
			"bufferView":12,
			"componentType":5126,
			"count":600,
			"max":[
				0.058394014835357666,
				0.22409453988075256,
				0.2519078254699707
			],
			"min":[
				-0.058394014835357666,
				-0.22409453988075256,
				-0.2519078254699707
			],
			"type":"VEC3"
		},
		{
			"bufferView":13,
			"componentType":5126,
			"count":600,
			"type":"VEC3"
		},
		{
			"bufferView":14,
			"componentType":5126,
			"count":600,
			"type":"VEC2"
		},
		{
			"bufferView":15,
			"componentType":5126,
			"count":600,
			"type":"VEC2"
		},
		{
			"bufferView":16,
			"componentType":5123,
			"count":3102,
			"type":"SCALAR"
		},
		{
			"bufferView":17,
			"componentType":5126,
			"count":150,
			"max":[
				0.5416962504386902,
				0.8136223554611206,
				0.04283389821648598
			],
			"min":[
				-0.5416962504386902,
				-0.8136223554611206,
				-0.04283389821648598
			],
			"type":"VEC3"
		},
		{
			"bufferView":18,
			"componentType":5126,
			"count":150,
			"type":"VEC3"
		},
		{
			"bufferView":19,
			"componentType":5126,
			"count":150,
			"type":"VEC2"
		},
		{
			"bufferView":20,
			"componentType":5123,
			"count":396,
			"type":"SCALAR"
		},
		{
			"bufferView":21,
			"componentType":5126,
			"count":692,
			"max":[
				0.14478814601898193,
				0.39149370789527893,
				0.3914937376976013
			],
			"min":[
				-0.14478814601898193,
				-0.39149370789527893,
				-0.39149370789527893
			],
			"type":"VEC3"
		},
		{
			"bufferView":22,
			"componentType":5126,
			"count":692,
			"type":"VEC3"
		},
		{
			"bufferView":23,
			"componentType":5126,
			"count":692,
			"type":"VEC2"
		},
		{
			"bufferView":24,
			"componentType":5123,
			"count":2976,
			"type":"SCALAR"
		}
	],
	"bufferViews":[
		{
			"buffer":0,
			"byteLength":38496,
			"byteOffset":0,
			"target":34962
		},
		{
			"buffer":0,
			"byteLength":38496,
			"byteOffset":38496,
			"target":34962
		},
		{
			"buffer":0,
			"byteLength":25664,
			"byteOffset":76992,
			"target":34962
		},
		{
			"buffer":0,
			"byteLength":20736,
			"byteOffset":102656,
			"target":34963
		},
		{
			"buffer":0,
			"byteLength":38496,
			"byteOffset":123392,
			"target":34962
		},
		{
			"buffer":0,
			"byteLength":38496,
			"byteOffset":161888,
			"target":34962
		},
		{
			"buffer":0,
			"byteLength":38496,
			"byteOffset":200384,
			"target":34962
		},
		{
			"buffer":0,
			"byteLength":38496,
			"byteOffset":238880,
			"target":34962
		},
		{
			"buffer":0,
			"byteLength":38496,
			"byteOffset":277376,
			"target":34962
		},
		{
			"buffer":0,
			"byteLength":38496,
			"byteOffset":315872,
			"target":34962
		},
		{
			"buffer":0,
			"byteLength":38496,
			"byteOffset":354368,
			"target":34962
		},
		{
			"buffer":0,
			"byteLength":38496,
			"byteOffset":392864,
			"target":34962
		},
		{
			"buffer":0,
			"byteLength":7200,
			"byteOffset":431360,
			"target":34962
		},
		{
			"buffer":0,
			"byteLength":7200,
			"byteOffset":438560,
			"target":34962
		},
		{
			"buffer":0,
			"byteLength":4800,
			"byteOffset":445760,
			"target":34962
		},
		{
			"buffer":0,
			"byteLength":4800,
			"byteOffset":450560,
			"target":34962
		},
		{
			"buffer":0,
			"byteLength":6204,
			"byteOffset":455360,
			"target":34963
		},
		{
			"buffer":0,
			"byteLength":1800,
			"byteOffset":461564,
			"target":34962
		},
		{
			"buffer":0,
			"byteLength":1800,
			"byteOffset":463364,
			"target":34962
		},
		{
			"buffer":0,
			"byteLength":1200,
			"byteOffset":465164,
			"target":34962
		},
		{
			"buffer":0,
			"byteLength":792,
			"byteOffset":466364,
			"target":34963
		},
		{
			"buffer":0,
			"byteLength":8304,
			"byteOffset":467156,
			"target":34962
		},
		{
			"buffer":0,
			"byteLength":8304,
			"byteOffset":475460,
			"target":34962
		},
		{
			"buffer":0,
			"byteLength":5536,
			"byteOffset":483764,
			"target":34962
		},
		{
			"buffer":0,
			"byteLength":5952,
			"byteOffset":489300,
			"target":34963
		}
	],
	"samplers":[
		{
			"magFilter":9729,
			"minFilter":9987
		}
	],
	"buffers":[
		{
			"byteLength":495252,
			"uri":"BaseRaceKart3.bin"
		}
	]
}
