{
	"asset":{
		"generator":"Khronos glTF Blender I/O v5.0.21",
		"version":"2.0"
	},
	"scene":0,
	"scenes":[
		{
			"name":"Scene",
			"nodes":[
				12
			]
		}
	],
	"nodes":[
		{
			"mesh":0,
			"name":"floor",
			"translation":[
				0.000484466552734375,
				-0.5668572783470154,
				-0.0977230966091156
			]
		},
		{
			"mesh":1,
			"name":"front",
			"translation":[
				-9.059906005859375e-05,
				-0.5691741704940796,
				-0.10076102614402771
			]
		},
		{
			"mesh":2,
			"name":"rear",
			"translation":[
				0,
				-0.08257942646741867,
				0.03853701427578926
			]
		},
		{
			"mesh":3,
			"name":"steeringcolumn",
			"rotation":[
				-0.5660138130187988,
				0,
				0,
				0.8243957757949829
			],
			"translation":[
				-9.059906005859375e-05,
				0.18026486039161682,
				0.1156173050403595
			]
		},
		{
			"children":[
				0,
				1,
				2,
				3
			],
			"mesh":4,
			"name":"body.008",
			"translation":[
				9.059906005859375e-05,
				0.5691741704940796,
				0.10076093673706055
			]
		},
		{
			"name":"seat_anchor.004"
		},
		{
			"mesh":5,
			"name":"SteeringWheel.003",
			"translation":[
				0.0008382797241210938,
				0.7981469631195068,
				0.12181329727172852
			]
		},
		{
			"mesh":6,
			"name":"Underbody.003",
			"translation":[
				-3.24249267578125e-05,
				0.280861496925354,
				-0.0035600662231445312
			]
		},
		{
			"mesh":7,
			"name":"wheel-back-left.009",
			"translation":[
				0.6294527053833008,
				0.2753133773803711,
				-0.7037472724914551
			]
		},
		{
			"mesh":7,
			"name":"wheel-back-right.007",
			"translation":[
				-0.5942974090576172,
				0.2753133773803711,
				-0.7037472724914551
			]
		},
		{
			"mesh":7,
			"name":"wheel-front-left.001",
			"translation":[
				0.6117916107177734,
				0.2753133773803711,
				0.702782154083252
			]
		},
		{
			"mesh":7,
			"name":"wheel-front-right.007",
			"translation":[
				-0.6119575500488281,
				0.2753133773803711,
				0.702782154083252
			]
		},
		{
			"children":[
				4,
				5,
				6,
				7,
				8,
				9,
				10,
				11
			],
			"name":"BaseRaceKart4"
		}
	],
	"materials":[
		{
			"doubleSided":true,
			"emissiveFactor":[
				1,
				1,
				1
			],
			"emissiveTexture":{
				"index":0
			},
			"name":"car 3",
			"normalTexture":{
				"index":1
			},
			"pbrMetallicRoughness":{
				"baseColorTexture":{
					"index":2
				},
				"metallicRoughnessTexture":{
					"index":3
				}
			}
		}
	],
	"meshes":[
		{
			"name":"Plane.034",
			"primitives":[
				{
					"attributes":{
						"POSITION":0,
						"NORMAL":1,
						"TEXCOORD_0":2
					},
					"indices":3,
					"material":0
				}
			]
		},
		{
			"name":"Plane.035",
			"primitives":[
				{
					"attributes":{
						"POSITION":4,
						"NORMAL":5,
						"TEXCOORD_0":6
					},
					"indices":7,
					"material":0
				}
			]
		},
		{
			"name":"body.011",
			"primitives":[
				{
					"attributes":{
						"POSITION":8,
						"NORMAL":9,
						"TEXCOORD_0":10
					},
					"indices":11,
					"material":0
				}
			]
		},
		{
			"name":"Cylinder.002",
			"primitives":[
				{
					"attributes":{
						"POSITION":12,
						"NORMAL":13,
						"TEXCOORD_0":14
					},
					"indices":15,
					"material":0
				}
			]
		},
		{
			"name":"body.012",
			"primitives":[
				{
					"attributes":{
						"POSITION":16,
						"NORMAL":17,
						"TEXCOORD_0":18
					},
					"indices":19,
					"material":0
				}
			]
		},
		{
			"name":"SteeringWheel.003",
			"primitives":[
				{
					"attributes":{
						"POSITION":20,
						"NORMAL":21,
						"TEXCOORD_0":22,
						"TEXCOORD_1":23
					},
					"indices":24,
					"material":0
				}
			]
		},
		{
			"name":"Underbody.003",
			"primitives":[
				{
					"attributes":{
						"POSITION":25,
						"NORMAL":26,
						"TEXCOORD_0":27
					},
					"indices":28,
					"material":0
				}
			]
		},
		{
			"name":"wheel-back-right.007",
			"primitives":[
				{
					"attributes":{
						"POSITION":29,
						"NORMAL":30,
						"TEXCOORD_0":31
					},
					"indices":32,
					"material":0
				}
			]
		}
	],
	"textures":[
		{
			"sampler":0,
			"source":0
		},
		{
			"sampler":0,
			"source":1
		},
		{
			"sampler":0,
			"source":2
		},
		{
			"sampler":0,
			"source":3
		}
	],
	"images":[
		{
			"mimeType":"image/png",
			"name":"cars_car 3_Emissive.1001",
			"uri":"textures/cars_car%203_Emissive.1001.png"
		},
		{
			"mimeType":"image/png",
			"name":"cars_car 3_Normal.1001",
			"uri":"textures/cars_car%203_Normal.1001.png"
		},
		{
			"mimeType":"image/png",
			"name":"cars_car 3_BaseColor.1001",
			"uri":"textures/cars_car%203_BaseColor.1001.png"
		},
		{
			"mimeType":"image/png",
			"name":"cars_car 3_OcclusionRoughnessMetallic.1001",
			"uri":"textures/cars_car%203_OcclusionRoughnessMetallic.1001.png"
		}
	],
	"accessors":[
		{
			"bufferView":0,
			"componentType":5126,
			"count":120,
			"max":[
				0.5459017753601074,
				0.23526883125305176,
				1.3499470949172974
			],
			"min":[
				-0.5459017753601074,
				0.1382221281528473,
				-0.8130479454994202
			],
			"type":"VEC3"
		},
		{
			"bufferView":1,
			"componentType":5126,
			"count":120,
			"type":"VEC3"
		},
		{
			"bufferView":2,
			"componentType":5126,
			"count":120,
			"type":"VEC2"
		},
		{
			"bufferView":3,
			"componentType":5123,
			"count":324,
			"type":"SCALAR"
		},
		{
			"bufferView":4,
			"componentType":5126,
			"count":98,
			"max":[
				0.23032280802726746,
				0.8145939111709595,
				1.3499470949172974
			],
			"min":[
				-0.23032280802726746,
				0.23526883125305176,
				0.19599072635173798
			],
			"type":"VEC3"
		},
		{
			"bufferView":5,
			"componentType":5126,
			"count":98,
			"type":"VEC3"
		},
		{
			"bufferView":6,
			"componentType":5126,
			"count":98,
			"type":"VEC2"
		},
		{
			"bufferView":7,
			"componentType":5123,
			"count":366,
			"type":"SCALAR"
		},
		{
			"bufferView":8,
			"componentType":5126,
			"count":170,
			"max":[
				0.41160815954208374,
				0.42727378010749817,
				-0.5108218193054199
			],
			"min":[
				-0.4116082787513733,
				-0.3326074481010437,
				-1.1597539186477661
			],
			"type":"VEC3"
		},
		{
			"bufferView":9,
			"componentType":5126,
			"count":170,
			"type":"VEC3"
		},
		{
			"bufferView":10,
			"componentType":5126,
			"count":170,
			"type":"VEC2"
		},
		{
			"bufferView":11,
			"componentType":5123,
			"count":594,
			"type":"SCALAR"
		},
		{
			"bufferView":12,
			"componentType":5126,
			"count":22,
			"max":[
				0.02869459241628647,
				0.07331248372793198,
				0.028694594278931618
			],
			"min":[
				-0.02869459241628647,
				-0.07331248372793198,
				-0.028694594278931618
			],
			"type":"VEC3"
		},
		{
			"bufferView":13,
			"componentType":5126,
			"count":22,
			"type":"VEC3"
		},
		{
			"bufferView":14,
			"componentType":5126,
			"count":22,
			"type":"VEC2"
		},
		{
			"bufferView":15,
			"componentType":5123,
			"count":48,
			"type":"SCALAR"
		},
		{
			"bufferView":16,
			"componentType":5126,
			"count":232,
			"max":[
				0.3306913375854492,
				0.2628798484802246,
				0.008934155106544495
			],
			"min":[
				-0.33069148659706116,
				-0.33175796270370483,
				-0.7835673093795776
			],
			"type":"VEC3"
		},
		{
			"bufferView":17,
			"componentType":5126,
			"count":232,
			"type":"VEC3"
		},
		{
			"bufferView":18,
			"componentType":5126,
			"count":232,
			"type":"VEC2"
		},
		{
			"bufferView":19,
			"componentType":5123,
			"count":1110,
			"type":"SCALAR"
		},
		{
			"bufferView":20,
			"componentType":5126,
			"count":600,
			"max":[
				0.2519078254699707,
				0.22409451007843018,
				0.058394014835357666
			],
			"min":[
				-0.2519078254699707,
				-0.22409451007843018,
				-0.058394014835357666
			],
			"type":"VEC3"
		},
		{
			"bufferView":21,
			"componentType":5126,
			"count":600,
			"type":"VEC3"
		},
		{
			"bufferView":22,
			"componentType":5126,
			"count":600,
			"type":"VEC2"
		},
		{
			"bufferView":23,
			"componentType":5126,
			"count":600,
			"type":"VEC2"
		},
		{
			"bufferView":24,
			"componentType":5123,
			"count":3102,
			"type":"SCALAR"
		},
		{
			"bufferView":25,
			"componentType":5126,
			"count":150,
			"max":[
				0.5214202404022217,
				0.04283388704061508,
				0.8136223554611206
			],
			"min":[
				-0.5214202404022217,
				-0.04283388704061508,
				-0.8136223554611206
			],
			"type":"VEC3"
		},
		{
			"bufferView":26,
			"componentType":5126,
			"count":150,
			"type":"VEC3"
		},
		{
			"bufferView":27,
			"componentType":5126,
			"count":150,
			"type":"VEC2"
		},
		{
			"bufferView":28,
			"componentType":5123,
			"count":396,
			"type":"SCALAR"
		},
		{
			"bufferView":29,
			"componentType":5126,
			"count":484,
			"max":[
				0.14478814601898193,
				0.27765512466430664,
				0.27765512466430664
			],
			"min":[
				-0.14478814601898193,
				-0.27765509486198425,
				-0.27765512466430664
			],
			"type":"VEC3"
		},
		{
			"bufferView":30,
			"componentType":5126,
			"count":484,
			"type":"VEC3"
		},
		{
			"bufferView":31,
			"componentType":5126,
			"count":484,
			"type":"VEC2"
		},
		{
			"bufferView":32,
			"componentType":5123,
			"count":2304,
			"type":"SCALAR"
		}
	],
	"bufferViews":[
		{
			"buffer":0,
			"byteLength":1440,
			"byteOffset":0,
			"target":34962
		},
		{
			"buffer":0,
			"byteLength":1440,
			"byteOffset":1440,
			"target":34962
		},
		{
			"buffer":0,
			"byteLength":960,
			"byteOffset":2880,
			"target":34962
		},
		{
			"buffer":0,
			"byteLength":648,
			"byteOffset":3840,
			"target":34963
		},
		{
			"buffer":0,
			"byteLength":1176,
			"byteOffset":4488,
			"target":34962
		},
		{
			"buffer":0,
			"byteLength":1176,
			"byteOffset":5664,
			"target":34962
		},
		{
			"buffer":0,
			"byteLength":784,
			"byteOffset":6840,
			"target":34962
		},
		{
			"buffer":0,
			"byteLength":732,
			"byteOffset":7624,
			"target":34963
		},
		{
			"buffer":0,
			"byteLength":2040,
			"byteOffset":8356,
			"target":34962
		},
		{
			"buffer":0,
			"byteLength":2040,
			"byteOffset":10396,
			"target":34962
		},
		{
			"buffer":0,
			"byteLength":1360,
			"byteOffset":12436,
			"target":34962
		},
		{
			"buffer":0,
			"byteLength":1188,
			"byteOffset":13796,
			"target":34963
		},
		{
			"buffer":0,
			"byteLength":264,
			"byteOffset":14984,
			"target":34962
		},
		{
			"buffer":0,
			"byteLength":264,
			"byteOffset":15248,
			"target":34962
		},
		{
			"buffer":0,
			"byteLength":176,
			"byteOffset":15512,
			"target":34962
		},
		{
			"buffer":0,
			"byteLength":96,
			"byteOffset":15688,
			"target":34963
		},
		{
			"buffer":0,
			"byteLength":2784,
			"byteOffset":15784,
			"target":34962
		},
		{
			"buffer":0,
			"byteLength":2784,
			"byteOffset":18568,
			"target":34962
		},
		{
			"buffer":0,
			"byteLength":1856,
			"byteOffset":21352,
			"target":34962
		},
		{
			"buffer":0,
			"byteLength":2220,
			"byteOffset":23208,
			"target":34963
		},
		{
			"buffer":0,
			"byteLength":7200,
			"byteOffset":25428,
			"target":34962
		},
		{
			"buffer":0,
			"byteLength":7200,
			"byteOffset":32628,
			"target":34962
		},
		{
			"buffer":0,
			"byteLength":4800,
			"byteOffset":39828,
			"target":34962
		},
		{
			"buffer":0,
			"byteLength":4800,
			"byteOffset":44628,
			"target":34962
		},
		{
			"buffer":0,
			"byteLength":6204,
			"byteOffset":49428,
			"target":34963
		},
		{
			"buffer":0,
			"byteLength":1800,
			"byteOffset":55632,
			"target":34962
		},
		{
			"buffer":0,
			"byteLength":1800,
			"byteOffset":57432,
			"target":34962
		},
		{
			"buffer":0,
			"byteLength":1200,
			"byteOffset":59232,
			"target":34962
		},
		{
			"buffer":0,
			"byteLength":792,
			"byteOffset":60432,
			"target":34963
		},
		{
			"buffer":0,
			"byteLength":5808,
			"byteOffset":61224,
			"target":34962
		},
		{
			"buffer":0,
			"byteLength":5808,
			"byteOffset":67032,
			"target":34962
		},
		{
			"buffer":0,
			"byteLength":3872,
			"byteOffset":72840,
			"target":34962
		},
		{
			"buffer":0,
			"byteLength":4608,
			"byteOffset":76712,
			"target":34963
		}
	],
	"samplers":[
		{
			"magFilter":9729,
			"minFilter":9987
		}
	],
	"buffers":[
		{
			"byteLength":81320,
			"uri":"BaseRaceKart4.bin"
		}
	]
}
