{
	"asset":{
		"generator":"Khronos glTF Blender I/O v5.0.21",
		"version":"2.0"
	},
	"scene":0,
	"scenes":[
		{
			"name":"Scene",
			"nodes":[
				8
			]
		}
	],
	"nodes":[
		{
			"mesh":0,
			"name":"Body",
			"translation":[
				2.6702880859375e-05,
				0.8880884647369385,
				-0.19747665524482727
			]
		},
		{
			"name":"seat_anchor.008",
			"translation":[
				0,
				0.49992701411247253,
				-0.36646100878715515
			]
		},
		{
			"mesh":1,
			"name":"SteeringWheel",
			"translation":[
				0.0009620189666748047,
				1.0004115104675293,
				0.09477688372135162
			]
		},
		{
			"mesh":2,
			"name":"underbody.006",
			"translation":[
				-3.24249267578125e-05,
				0.3348359167575836,
				-0.12287601828575134
			]
		},
		{
			"mesh":3,
			"name":"wheel-back-left.006",
			"translation":[
				0.654141902923584,
				0.3346519470214844,
				-0.9050198197364807
			]
		},
		{
			"mesh":3,
			"name":"wheel-back-right.006",
			"translation":[
				-0.6540887355804443,
				0.3346519470214844,
				-0.9050198197364807
			]
		},
		{
			"mesh":3,
			"name":"wheel-front-left.006",
			"translation":[
				0.6541421413421631,
				0.3346519470214844,
				0.6588794589042664
			]
		},
		{
			"mesh":3,
			"name":"wheel-front-right.006",
			"translation":[
				-0.6540887355804443,
				0.3346519470214844,
				0.6588795185089111
			]
		},
		{
			"children":[
				0,
				1,
				2,
				3,
				4,
				5,
				6,
				7
			],
			"name":"BaseRaceKart8"
		}
	],
	"materials":[
		{
			"doubleSided":true,
			"emissiveTexture":{
				"index":0
			},
			"name":"car 1",
			"normalTexture":{
				"index":1
			},
			"pbrMetallicRoughness":{
				"baseColorTexture":{
					"index":2
				},
				"metallicRoughnessTexture":{
					"index":3
				}
			},
			"occlusionTexture":{
				"index":3
			}
		}
	],
	"meshes":[
		{
			"name":"Body.003",
			"primitives":[
				{
					"attributes":{
						"POSITION":0,
						"NORMAL":1,
						"TEXCOORD_0":2
					},
					"indices":3,
					"material":0
				}
			]
		},
		{
			"name":"SteeringWheel",
			"primitives":[
				{
					"attributes":{
						"POSITION":4,
						"NORMAL":5,
						"TEXCOORD_0":6,
						"TEXCOORD_1":7
					},
					"indices":8,
					"material":0
				}
			]
		},
		{
			"name":"Cylinder.008",
			"primitives":[
				{
					"attributes":{
						"POSITION":9,
						"NORMAL":10,
						"TEXCOORD_0":11
					},
					"indices":12,
					"material":0
				}
			]
		},
		{
			"name":"wheel-back-left.007",
			"primitives":[
				{
					"attributes":{
						"POSITION":13,
						"NORMAL":14,
						"TEXCOORD_0":15
					},
					"indices":16,
					"material":0
				}
			]
		}
	],
	"textures":[
		{
			"sampler":0,
			"source":0
		},
		{
			"sampler":0,
			"source":1
		},
		{
			"sampler":0,
			"source":2
		},
		{
			"sampler":0,
			"source":3
		}
	],
	"images":[
		{
			"mimeType":"image/png",
			"name":"cars_car 1_Emissive.1001",
			"uri":"textures/cars_car%201_Emissive.1001.png"
		},
		{
			"mimeType":"image/png",
			"name":"cars_car 1_Normal.1001",
			"uri":"textures/cars_car%201_Normal.1001.png"
		},
		{
			"mimeType":"image/png",
			"name":"cars_car 1_BaseColor.1001",
			"uri":"textures/cars_car%201_BaseColor.1001.png"
		},
		{
			"mimeType":"image/png",
			"name":"cars_car 1_OcclusionRoughnessMetallic.1001",
			"uri":"textures/cars_car%201_OcclusionRoughnessMetallic.1001.png"
		}
	],
	"accessors":[
		{
			"bufferView":0,
			"componentType":5126,
			"count":2793,
			"max":[
				0.6642796397209167,
				0.22471122443675995,
				1.3093984127044678
			],
			"min":[
				-0.6642796397209167,
				-0.6223148107528687,
				-1.3077144622802734
			],
			"type":"VEC3"
		},
		{
			"bufferView":1,
			"componentType":5126,
			"count":2793,
			"type":"VEC3"
		},
		{
			"bufferView":2,
			"componentType":5126,
			"count":2793,
			"type":"VEC2"
		},
		{
			"bufferView":3,
			"componentType":5123,
			"count":10806,
			"type":"SCALAR"
		},
		{
			"bufferView":4,
			"componentType":5126,
			"count":600,
			"max":[
				0.2519078254699707,
				0.22409451007843018,
				0.058394014835357666
			],
			"min":[
				-0.2519078254699707,
				-0.22409451007843018,
				-0.05839402973651886
			],
			"type":"VEC3"
		},
		{
			"bufferView":5,
			"componentType":5126,
			"count":600,
			"type":"VEC3"
		},
		{
			"bufferView":6,
			"componentType":5126,
			"count":600,
			"type":"VEC2"
		},
		{
			"bufferView":7,
			"componentType":5126,
			"count":600,
			"type":"VEC2"
		},
		{
			"bufferView":8,
			"componentType":5123,
			"count":3102,
			"type":"SCALAR"
		},
		{
			"bufferView":9,
			"componentType":5126,
			"count":150,
			"max":[
				0.5394458174705505,
				0.04283388704061508,
				0.9047673344612122
			],
			"min":[
				-0.5394458174705505,
				-0.04283388704061508,
				-0.9047673344612122
			],
			"type":"VEC3"
		},
		{
			"bufferView":10,
			"componentType":5126,
			"count":150,
			"type":"VEC3"
		},
		{
			"bufferView":11,
			"componentType":5126,
			"count":150,
			"type":"VEC2"
		},
		{
			"bufferView":12,
			"componentType":5123,
			"count":396,
			"type":"SCALAR"
		},
		{
			"bufferView":13,
			"componentType":5126,
			"count":694,
			"max":[
				0.14478814601898193,
				0.33318614959716797,
				0.33318614959716797
			],
			"min":[
				-0.14478814601898193,
				-0.33318617939949036,
				-0.33318614959716797
			],
			"type":"VEC3"
		},
		{
			"bufferView":14,
			"componentType":5126,
			"count":694,
			"type":"VEC3"
		},
		{
			"bufferView":15,
			"componentType":5126,
			"count":694,
			"type":"VEC2"
		},
		{
			"bufferView":16,
			"componentType":5123,
			"count":2976,
			"type":"SCALAR"
		}
	],
	"bufferViews":[
		{
			"buffer":0,
			"byteLength":33516,
			"byteOffset":0,
			"target":34962
		},
		{
			"buffer":0,
			"byteLength":33516,
			"byteOffset":33516,
			"target":34962
		},
		{
			"buffer":0,
			"byteLength":22344,
			"byteOffset":67032,
			"target":34962
		},
		{
			"buffer":0,
			"byteLength":21612,
			"byteOffset":89376,
			"target":34963
		},
		{
			"buffer":0,
			"byteLength":7200,
			"byteOffset":110988,
			"target":34962
		},
		{
			"buffer":0,
			"byteLength":7200,
			"byteOffset":118188,
			"target":34962
		},
		{
			"buffer":0,
			"byteLength":4800,
			"byteOffset":125388,
			"target":34962
		},
		{
			"buffer":0,
			"byteLength":4800,
			"byteOffset":130188,
			"target":34962
		},
		{
			"buffer":0,
			"byteLength":6204,
			"byteOffset":134988,
			"target":34963
		},
		{
			"buffer":0,
			"byteLength":1800,
			"byteOffset":141192,
			"target":34962
		},
		{
			"buffer":0,
			"byteLength":1800,
			"byteOffset":142992,
			"target":34962
		},
		{
			"buffer":0,
			"byteLength":1200,
			"byteOffset":144792,
			"target":34962
		},
		{
			"buffer":0,
			"byteLength":792,
			"byteOffset":145992,
			"target":34963
		},
		{
			"buffer":0,
			"byteLength":8328,
			"byteOffset":146784,
			"target":34962
		},
		{
			"buffer":0,
			"byteLength":8328,
			"byteOffset":155112,
			"target":34962
		},
		{
			"buffer":0,
			"byteLength":5552,
			"byteOffset":163440,
			"target":34962
		},
		{
			"buffer":0,
			"byteLength":5952,
			"byteOffset":168992,
			"target":34963
		}
	],
	"samplers":[
		{
			"magFilter":9729,
			"minFilter":9987
		}
	],
	"buffers":[
		{
			"byteLength":174944,
			"uri":"BaseRaceKart8.bin"
		}
	]
}
