{
	"asset":{
		"generator":"Khronos glTF Blender I/O v5.0.21",
		"version":"2.0"
	},
	"scene":0,
	"scenes":[
		{
			"name":"Scene",
			"nodes":[
				0,
				1,
				2,
				3
			]
		}
	],
	"nodes":[
		{
			"mesh":0,
			"name":"kartkids_base_trk_080_trn_wide_l_2x2.003"
		},
		{
			"mesh":1,
			"name":"kartkids_base_trk_080_trn_wide_l_2x2"
		},
		{
			"mesh":2,
			"name":"kartkids_base_trk_080_trn_wide_l_2x2.001"
		},
		{
			"mesh":3,
			"name":"kartkids_base_trk_080_trn_wide_l_2x2.002"
		}
	],
	"materials":[
		{
			"doubleSided":true,
			"name":"concrete",
			"pbrMetallicRoughness":{
				"baseColorFactor":[
					0.27651432156562805,
					0.27651432156562805,
					0.27651432156562805,
					1
				],
				"metallicFactor":0
			}
		},
		{
			"alphaMode":"BLEND",
			"doubleSided":true,
			"emissiveTexture":{
				"index":0
			},
			"name":"asphalt",
			"normalTexture":{
				"index":1
			},
			"pbrMetallicRoughness":{
				"baseColorTexture":{
					"index":2
				},
				"metallicRoughnessTexture":{
					"index":3
				}
			}
		},
		{
			"doubleSided":true,
			"name":"rubber",
			"pbrMetallicRoughness":{
				"baseColorFactor":[
					1,
					0.14362937211990356,
					0.14362937211990356,
					1
				],
				"metallicFactor":0
			}
		}
	],
	"meshes":[
		{
			"name":"Cube.013",
			"primitives":[
				{
					"attributes":{
						"POSITION":0,
						"NORMAL":1,
						"TEXCOORD_0":2
					},
					"indices":3,
					"material":0
				}
			]
		},
		{
			"name":"Cube.101",
			"primitives":[
				{
					"attributes":{
						"POSITION":4,
						"NORMAL":5,
						"TEXCOORD_0":6
					},
					"indices":7,
					"material":1
				}
			]
		},
		{
			"name":"Cube.014",
			"primitives":[
				{
					"attributes":{
						"POSITION":8,
						"NORMAL":9,
						"TEXCOORD_0":10
					},
					"indices":11,
					"material":2
				}
			]
		},
		{
			"name":"Cube.016",
			"primitives":[
				{
					"attributes":{
						"POSITION":12,
						"NORMAL":13,
						"TEXCOORD_0":14
					},
					"indices":15,
					"material":2
				}
			]
		}
	],
	"textures":[
		{
			"sampler":0,
			"source":0
		},
		{
			"sampler":0,
			"source":1
		},
		{
			"sampler":0,
			"source":2
		},
		{
			"sampler":0,
			"source":3
		}
	],
	"images":[
		{
			"mimeType":"image/png",
			"name":"atlas_emissive",
			"uri":"textures/atlas_emissive.png"
		},
		{
			"mimeType":"image/png",
			"name":"atlas_normal",
			"uri":"textures/atlas_normal.png"
		},
		{
			"mimeType":"image/png",
			"name":"atlas_basecolor-atlas_alpha",
			"uri":"textures/atlas_basecolor-atlas_alpha.png"
		},
		{
			"mimeType":"image/png",
			"name":"atlas_ORM",
			"uri":"textures/atlas_ORM.png"
		}
	],
	"accessors":[
		{
			"bufferView":0,
			"componentType":5126,
			"count":200,
			"max":[
				10.000000953674316,
				0.9339278936386108,
				10
			],
			"min":[
				-10.00000286102295,
				0.08392778038978577,
				-10
			],
			"type":"VEC3"
		},
		{
			"bufferView":1,
			"componentType":5126,
			"count":200,
			"type":"VEC3"
		},
		{
			"bufferView":2,
			"componentType":5126,
			"count":200,
			"type":"VEC2"
		},
		{
			"bufferView":3,
			"componentType":5123,
			"count":348,
			"type":"SCALAR"
		},
		{
			"bufferView":4,
			"componentType":5126,
			"count":256,
			"max":[
				10.000000953674316,
				0.08500000834465027,
				10.000000953674316
			],
			"min":[
				-10.00000286102295,
				0,
				-10.000000953674316
			],
			"type":"VEC3"
		},
		{
			"bufferView":5,
			"componentType":5126,
			"count":256,
			"type":"VEC3"
		},
		{
			"bufferView":6,
			"componentType":5126,
			"count":256,
			"type":"VEC2"
		},
		{
			"bufferView":7,
			"componentType":5123,
			"count":720,
			"type":"SCALAR"
		},
		{
			"bufferView":8,
			"componentType":5126,
			"count":106,
			"max":[
				9.000000953674316,
				0.18500548601150513,
				9.999999046325684
			],
			"min":[
				-10.00000286102295,
				0.08500000834465027,
				-9
			],
			"type":"VEC3"
		},
		{
			"bufferView":9,
			"componentType":5126,
			"count":106,
			"type":"VEC3"
		},
		{
			"bufferView":10,
			"componentType":5126,
			"count":106,
			"type":"VEC2"
		},
		{
			"bufferView":11,
			"componentType":5123,
			"count":192,
			"type":"SCALAR"
		},
		{
			"bufferView":12,
			"componentType":5126,
			"count":100,
			"max":[
				1.4500025510787964,
				0.185012549161911,
				10.000001907348633
			],
			"min":[
				-10.000001907348633,
				0.08500000834465027,
				-1.4499999284744263
			],
			"type":"VEC3"
		},
		{
			"bufferView":13,
			"componentType":5126,
			"count":100,
			"type":"VEC3"
		},
		{
			"bufferView":14,
			"componentType":5126,
			"count":100,
			"type":"VEC2"
		},
		{
			"bufferView":15,
			"componentType":5123,
			"count":174,
			"type":"SCALAR"
		}
	],
	"bufferViews":[
		{
			"buffer":0,
			"byteLength":2400,
			"byteOffset":0,
			"target":34962
		},
		{
			"buffer":0,
			"byteLength":2400,
			"byteOffset":2400,
			"target":34962
		},
		{
			"buffer":0,
			"byteLength":1600,
			"byteOffset":4800,
			"target":34962
		},
		{
			"buffer":0,
			"byteLength":696,
			"byteOffset":6400,
			"target":34963
		},
		{
			"buffer":0,
			"byteLength":3072,
			"byteOffset":7096,
			"target":34962
		},
		{
			"buffer":0,
			"byteLength":3072,
			"byteOffset":10168,
			"target":34962
		},
		{
			"buffer":0,
			"byteLength":2048,
			"byteOffset":13240,
			"target":34962
		},
		{
			"buffer":0,
			"byteLength":1440,
			"byteOffset":15288,
			"target":34963
		},
		{
			"buffer":0,
			"byteLength":1272,
			"byteOffset":16728,
			"target":34962
		},
		{
			"buffer":0,
			"byteLength":1272,
			"byteOffset":18000,
			"target":34962
		},
		{
			"buffer":0,
			"byteLength":848,
			"byteOffset":19272,
			"target":34962
		},
		{
			"buffer":0,
			"byteLength":384,
			"byteOffset":20120,
			"target":34963
		},
		{
			"buffer":0,
			"byteLength":1200,
			"byteOffset":20504,
			"target":34962
		},
		{
			"buffer":0,
			"byteLength":1200,
			"byteOffset":21704,
			"target":34962
		},
		{
			"buffer":0,
			"byteLength":800,
			"byteOffset":22904,
			"target":34962
		},
		{
			"buffer":0,
			"byteLength":348,
			"byteOffset":23704,
			"target":34963
		}
	],
	"samplers":[
		{
			"magFilter":9729,
			"minFilter":9987
		}
	],
	"buffers":[
		{
			"byteLength":24052,
			"uri":"kartkids_base_trk_080_trn_wide_l_2x2.bin"
		}
	]
}
