{
	"asset":{
		"generator":"Khronos glTF Blender I/O v5.0.21",
		"version":"2.0"
	},
	"scene":0,
	"scenes":[
		{
			"name":"Scene",
			"nodes":[
				0,
				1,
				2
			]
		}
	],
	"nodes":[
		{
			"mesh":0,
			"name":"kartkids_base_trk_510_srt_startfinish_arch_3x1"
		},
		{
			"mesh":1,
			"name":"kartkids_base_trk_510_srt_startfinish_arch_3x1.001"
		},
		{
			"mesh":2,
			"name":"kartkids_base_trk_510_srt_startfinish_arch_3x1.002"
		}
	],
	"materials":[
		{
			"doubleSided":true,
			"name":"rope",
			"pbrMetallicRoughness":{
				"baseColorFactor":[
					0.800000011920929,
					0.800000011920929,
					0.800000011920929,
					1
				],
				"metallicFactor":0,
				"roughnessFactor":0.5
			}
		},
		{
			"doubleSided":true,
			"name":"fabric",
			"pbrMetallicRoughness":{
				"baseColorFactor":[
					0.8175055980682373,
					0.14140716195106506,
					0.14140716195106506,
					1
				],
				"metallicFactor":0
			}
		},
		{
			"doubleSided":true,
			"name":"stone",
			"pbrMetallicRoughness":{
				"baseColorFactor":[
					0.17904865741729736,
					0.17904865741729736,
					0.17904865741729736,
					1
				],
				"metallicFactor":0
			}
		},
		{
			"alphaMode":"BLEND",
			"doubleSided":true,
			"emissiveTexture":{
				"index":0
			},
			"name":"asphalt",
			"normalTexture":{
				"index":1
			},
			"pbrMetallicRoughness":{
				"baseColorTexture":{
					"index":2
				},
				"metallicRoughnessTexture":{
					"index":3
				}
			}
		},
		{
			"doubleSided":true,
			"name":"rubber.008",
			"pbrMetallicRoughness":{
				"baseColorFactor":[
					1,
					0.14362937211990356,
					0.14362937211990356,
					1
				],
				"metallicFactor":0
			}
		},
		{
			"doubleSided":true,
			"name":"concrete.008",
			"pbrMetallicRoughness":{
				"baseColorFactor":[
					0.27651432156562805,
					0.27651432156562805,
					0.27651432156562805,
					1
				],
				"metallicFactor":0
			}
		}
	],
	"meshes":[
		{
			"name":"kartkids_base_trk_510_srt_startfinish_arch_3x1.001",
			"primitives":[
				{
					"attributes":{
						"POSITION":0,
						"NORMAL":1,
						"TEXCOORD_0":2
					},
					"indices":3,
					"material":0
				},
				{
					"attributes":{
						"POSITION":4,
						"NORMAL":5,
						"TEXCOORD_0":6
					},
					"indices":7,
					"material":1
				},
				{
					"attributes":{
						"POSITION":8,
						"NORMAL":9,
						"TEXCOORD_0":10
					},
					"indices":11,
					"material":2
				}
			]
		},
		{
			"name":"Cube.078",
			"primitives":[
				{
					"attributes":{
						"POSITION":12,
						"NORMAL":13,
						"TEXCOORD_0":14
					},
					"indices":15,
					"material":3
				},
				{
					"attributes":{
						"POSITION":16,
						"NORMAL":17,
						"TEXCOORD_0":18
					},
					"indices":19,
					"material":4
				}
			]
		},
		{
			"name":"Cube.077",
			"primitives":[
				{
					"attributes":{
						"POSITION":20,
						"NORMAL":21,
						"TEXCOORD_0":22
					},
					"indices":23,
					"material":5
				}
			]
		}
	],
	"textures":[
		{
			"sampler":0,
			"source":0
		},
		{
			"sampler":0,
			"source":1
		},
		{
			"sampler":0,
			"source":2
		},
		{
			"sampler":0,
			"source":3
		}
	],
	"images":[
		{
			"mimeType":"image/png",
			"name":"atlas_emissive",
			"uri":"textures/atlas_emissive.png"
		},
		{
			"mimeType":"image/png",
			"name":"atlas_normal",
			"uri":"textures/atlas_normal.png"
		},
		{
			"mimeType":"image/png",
			"name":"atlas_basecolor-atlas_alpha",
			"uri":"textures/atlas_basecolor-atlas_alpha.png"
		},
		{
			"mimeType":"image/png",
			"name":"atlas_ORM",
			"uri":"textures/atlas_ORM.png"
		}
	],
	"accessors":[
		{
			"bufferView":0,
			"componentType":5126,
			"count":234,
			"max":[
				2.2993218898773193,
				3.918954849243164,
				5.3545098304748535
			],
			"min":[
				-2.4103500843048096,
				3.4121928215026855,
				-5.363851547241211
			],
			"type":"VEC3"
		},
		{
			"bufferView":1,
			"componentType":5126,
			"count":234,
			"type":"VEC3"
		},
		{
			"bufferView":2,
			"componentType":5126,
			"count":234,
			"type":"VEC2"
		},
		{
			"bufferView":3,
			"componentType":5123,
			"count":1008,
			"type":"SCALAR"
		},
		{
			"bufferView":4,
			"componentType":5126,
			"count":420,
			"max":[
				2.1817023754119873,
				3.7968697547912598,
				5.305160999298096
			],
			"min":[
				-2.313930034637451,
				2.801284074783325,
				-5.314529895782471
			],
			"type":"VEC3"
		},
		{
			"bufferView":5,
			"componentType":5126,
			"count":420,
			"type":"VEC3"
		},
		{
			"bufferView":6,
			"componentType":5126,
			"count":420,
			"type":"VEC2"
		},
		{
			"bufferView":7,
			"componentType":5123,
			"count":630,
			"type":"SCALAR"
		},
		{
			"bufferView":8,
			"componentType":5126,
			"count":360,
			"max":[
				4.474672317504883,
				4.955694675445557,
				5.580524921417236
			],
			"min":[
				-4.474671363830566,
				0.08499979972839355,
				-5.580523490905762
			],
			"type":"VEC3"
		},
		{
			"bufferView":9,
			"componentType":5126,
			"count":360,
			"type":"VEC3"
		},
		{
			"bufferView":10,
			"componentType":5126,
			"count":360,
			"type":"VEC2"
		},
		{
			"bufferView":11,
			"componentType":5123,
			"count":1008,
			"type":"SCALAR"
		},
		{
			"bufferView":12,
			"componentType":5126,
			"count":120,
			"max":[
				5,
				0.08500000834465027,
				15
			],
			"min":[
				-5,
				0,
				-15
			],
			"type":"VEC3"
		},
		{
			"bufferView":13,
			"componentType":5126,
			"count":120,
			"type":"VEC3"
		},
		{
			"bufferView":14,
			"componentType":5126,
			"count":120,
			"type":"VEC2"
		},
		{
			"bufferView":15,
			"componentType":5123,
			"count":252,
			"type":"SCALAR"
		},
		{
			"bufferView":16,
			"componentType":5126,
			"count":120,
			"max":[
				4,
				0.1850000023841858,
				15
			],
			"min":[
				-4,
				0.08500000834465027,
				-15
			],
			"type":"VEC3"
		},
		{
			"bufferView":17,
			"componentType":5126,
			"count":120,
			"type":"VEC3"
		},
		{
			"bufferView":18,
			"componentType":5126,
			"count":120,
			"type":"VEC2"
		},
		{
			"bufferView":19,
			"componentType":5123,
			"count":180,
			"type":"SCALAR"
		},
		{
			"bufferView":20,
			"componentType":5126,
			"count":144,
			"max":[
				4.999998092651367,
				0.9350000619888306,
				15
			],
			"min":[
				-5.000001907348633,
				0.08500000834465027,
				-15
			],
			"type":"VEC3"
		},
		{
			"bufferView":21,
			"componentType":5126,
			"count":144,
			"type":"VEC3"
		},
		{
			"bufferView":22,
			"componentType":5126,
			"count":144,
			"type":"VEC2"
		},
		{
			"bufferView":23,
			"componentType":5123,
			"count":216,
			"type":"SCALAR"
		}
	],
	"bufferViews":[
		{
			"buffer":0,
			"byteLength":2808,
			"byteOffset":0,
			"target":34962
		},
		{
			"buffer":0,
			"byteLength":2808,
			"byteOffset":2808,
			"target":34962
		},
		{
			"buffer":0,
			"byteLength":1872,
			"byteOffset":5616,
			"target":34962
		},
		{
			"buffer":0,
			"byteLength":2016,
			"byteOffset":7488,
			"target":34963
		},
		{
			"buffer":0,
			"byteLength":5040,
			"byteOffset":9504,
			"target":34962
		},
		{
			"buffer":0,
			"byteLength":5040,
			"byteOffset":14544,
			"target":34962
		},
		{
			"buffer":0,
			"byteLength":3360,
			"byteOffset":19584,
			"target":34962
		},
		{
			"buffer":0,
			"byteLength":1260,
			"byteOffset":22944,
			"target":34963
		},
		{
			"buffer":0,
			"byteLength":4320,
			"byteOffset":24204,
			"target":34962
		},
		{
			"buffer":0,
			"byteLength":4320,
			"byteOffset":28524,
			"target":34962
		},
		{
			"buffer":0,
			"byteLength":2880,
			"byteOffset":32844,
			"target":34962
		},
		{
			"buffer":0,
			"byteLength":2016,
			"byteOffset":35724,
			"target":34963
		},
		{
			"buffer":0,
			"byteLength":1440,
			"byteOffset":37740,
			"target":34962
		},
		{
			"buffer":0,
			"byteLength":1440,
			"byteOffset":39180,
			"target":34962
		},
		{
			"buffer":0,
			"byteLength":960,
			"byteOffset":40620,
			"target":34962
		},
		{
			"buffer":0,
			"byteLength":504,
			"byteOffset":41580,
			"target":34963
		},
		{
			"buffer":0,
			"byteLength":1440,
			"byteOffset":42084,
			"target":34962
		},
		{
			"buffer":0,
			"byteLength":1440,
			"byteOffset":43524,
			"target":34962
		},
		{
			"buffer":0,
			"byteLength":960,
			"byteOffset":44964,
			"target":34962
		},
		{
			"buffer":0,
			"byteLength":360,
			"byteOffset":45924,
			"target":34963
		},
		{
			"buffer":0,
			"byteLength":1728,
			"byteOffset":46284,
			"target":34962
		},
		{
			"buffer":0,
			"byteLength":1728,
			"byteOffset":48012,
			"target":34962
		},
		{
			"buffer":0,
			"byteLength":1152,
			"byteOffset":49740,
			"target":34962
		},
		{
			"buffer":0,
			"byteLength":432,
			"byteOffset":50892,
			"target":34963
		}
	],
	"samplers":[
		{
			"magFilter":9729,
			"minFilter":9987
		}
	],
	"buffers":[
		{
			"byteLength":51324,
			"uri":"kartkids_base_trk_510_srt_startfinish_arch_3x1.bin"
		}
	]
}
