{
	"asset":{
		"generator":"Khronos glTF Blender I/O v5.0.21",
		"version":"2.0"
	},
	"scene":0,
	"scenes":[
		{
			"name":"Scene",
			"nodes":[
				0,
				1
			]
		}
	],
	"nodes":[
		{
			"mesh":0,
			"name":"kartkids_base_trk_460_tun_openframe_mid_1x1",
			"translation":[
				0.07102882862091064,
				-0.020614463835954666,
				0.019819093868136406
			]
		},
		{
			"mesh":1,
			"name":"kartkids_base_trk_460_tun_openframe_mid_1x1.001",
			"translation":[
				0.07102882862091064,
				-0.020614463835954666,
				0.019819093868136406
			]
		}
	],
	"materials":[
		{
			"doubleSided":true,
			"name":"metall",
			"pbrMetallicRoughness":{
				"baseColorFactor":[
					0.4463568329811096,
					0.4463568329811096,
					0.4463568329811096,
					1
				],
				"metallicFactor":0
			}
		},
		{
			"alphaMode":"BLEND",
			"doubleSided":true,
			"emissiveTexture":{
				"index":0
			},
			"name":"asphalt",
			"normalTexture":{
				"index":1
			},
			"pbrMetallicRoughness":{
				"baseColorTexture":{
					"index":2
				},
				"metallicRoughnessTexture":{
					"index":3
				}
			}
		}
	],
	"meshes":[
		{
			"name":"kartkids_base_trk_460_tun_openframe_mid_1x1",
			"primitives":[
				{
					"attributes":{
						"POSITION":0,
						"NORMAL":1,
						"TEXCOORD_0":2
					},
					"indices":3,
					"material":0
				}
			]
		},
		{
			"name":"Cube.048",
			"primitives":[
				{
					"attributes":{
						"POSITION":4,
						"NORMAL":5,
						"TEXCOORD_0":6
					},
					"indices":7,
					"material":1
				}
			]
		}
	],
	"textures":[
		{
			"sampler":0,
			"source":0
		},
		{
			"sampler":0,
			"source":1
		},
		{
			"sampler":0,
			"source":2
		},
		{
			"sampler":0,
			"source":3
		}
	],
	"images":[
		{
			"mimeType":"image/png",
			"name":"atlas_emissive",
			"uri":"textures/atlas_emissive.png"
		},
		{
			"mimeType":"image/png",
			"name":"atlas_normal",
			"uri":"textures/atlas_normal.png"
		},
		{
			"mimeType":"image/png",
			"name":"atlas_basecolor-atlas_alpha",
			"uri":"textures/atlas_basecolor-atlas_alpha.png"
		},
		{
			"mimeType":"image/png",
			"name":"atlas_ORM",
			"uri":"textures/atlas_ORM.png"
		}
	],
	"accessors":[
		{
			"bufferView":0,
			"componentType":5126,
			"count":470,
			"max":[
				4.168542385101318,
				5.655994415283203,
				5
			],
			"min":[
				-4.168543815612793,
				0.08500003814697266,
				-5
			],
			"type":"VEC3"
		},
		{
			"bufferView":1,
			"componentType":5126,
			"count":470,
			"type":"VEC3"
		},
		{
			"bufferView":2,
			"componentType":5126,
			"count":470,
			"type":"VEC2"
		},
		{
			"bufferView":3,
			"componentType":5123,
			"count":768,
			"type":"SCALAR"
		},
		{
			"bufferView":4,
			"componentType":5126,
			"count":40,
			"max":[
				5,
				0.08500000834465027,
				5
			],
			"min":[
				-5,
				0,
				-5
			],
			"type":"VEC3"
		},
		{
			"bufferView":5,
			"componentType":5126,
			"count":40,
			"type":"VEC3"
		},
		{
			"bufferView":6,
			"componentType":5126,
			"count":40,
			"type":"VEC2"
		},
		{
			"bufferView":7,
			"componentType":5123,
			"count":84,
			"type":"SCALAR"
		}
	],
	"bufferViews":[
		{
			"buffer":0,
			"byteLength":5640,
			"byteOffset":0,
			"target":34962
		},
		{
			"buffer":0,
			"byteLength":5640,
			"byteOffset":5640,
			"target":34962
		},
		{
			"buffer":0,
			"byteLength":3760,
			"byteOffset":11280,
			"target":34962
		},
		{
			"buffer":0,
			"byteLength":1536,
			"byteOffset":15040,
			"target":34963
		},
		{
			"buffer":0,
			"byteLength":480,
			"byteOffset":16576,
			"target":34962
		},
		{
			"buffer":0,
			"byteLength":480,
			"byteOffset":17056,
			"target":34962
		},
		{
			"buffer":0,
			"byteLength":320,
			"byteOffset":17536,
			"target":34962
		},
		{
			"buffer":0,
			"byteLength":168,
			"byteOffset":17856,
			"target":34963
		}
	],
	"samplers":[
		{
			"magFilter":9729,
			"minFilter":9987
		}
	],
	"buffers":[
		{
			"byteLength":18024,
			"uri":"kartkids_base_trk_460_tun_openframe_mid_1x1.bin"
		}
	]
}
