{
	"asset": {
		"generator": "Khronos glTF Blender I/O v5.0.21",
		"version": "2.0"
	},
	"scene": 0,
	"scenes": [
		{
			"name": "Scene",
			"nodes": [
				0,
				1,
				2
			]
		}
	],
	"nodes": [
		{
			"mesh": 0,
			"name": "kartkids_base_trk_480_jmp_01_short_25pct_1x1.001"
		},
		{
			"mesh": 1,
			"name": "kartkids_base_trk_480_jmp_01_short_25pct_1x1"
		},
		{
			"mesh": 2,
			"name": "kartkids_base_trk_480_jmp_01_short_25pct_1x1.002"
		}
	],
	"materials": [
		{
			"doubleSided": true,
			"name": "asphalt",
			"normalTexture": {
				"index": 0
			},
			"pbrMetallicRoughness": {
				"baseColorTexture": {
					"index": 1
				},
				"metallicRoughnessTexture": {
					"index": 2
				}
			}
		},
		{
			"doubleSided": true,
			"emissiveTexture": {
				"index": 3
			},
			"name": "rubber",
			"normalTexture": {
				"index": 4
			},
			"pbrMetallicRoughness": {
				"baseColorTexture": {
					"index": 5
				},
				"metallicRoughnessTexture": {
					"index": 6
				}
			}
		}
	],
	"meshes": [
		{
			"name": "kartkids_base_trk_480_jmp_01_short_25pct_1x1.001",
			"primitives": [
				{
					"attributes": {
						"POSITION": 0,
						"NORMAL": 1,
						"TEXCOORD_0": 2
					},
					"indices": 3,
					"material": 0
				},
				{
					"attributes": {
						"POSITION": 4,
						"NORMAL": 5,
						"TEXCOORD_0": 6
					},
					"indices": 7,
					"material": 1
				}
			]
		},
		{
			"name": "Cube.069",
			"primitives": [
				{
					"attributes": {
						"POSITION": 8,
						"NORMAL": 9,
						"TEXCOORD_0": 10
					},
					"indices": 11,
					"material": 1
				}
			]
		},
		{
			"name": "Cube.076",
			"primitives": [
				{
					"attributes": {
						"POSITION": 12,
						"NORMAL": 13,
						"TEXCOORD_0": 14
					},
					"indices": 15,
					"material": 0
				},
				{
					"attributes": {
						"POSITION": 16,
						"NORMAL": 17,
						"TEXCOORD_0": 18
					},
					"indices": 19,
					"material": 1
				}
			]
		}
	],
	"textures": [
		{
			"sampler": 0,
			"source": 0
		},
		{
			"sampler": 0,
			"source": 1
		},
		{
			"sampler": 0,
			"source": 2
		},
		{
			"sampler": 0,
			"source": 3
		},
		{
			"sampler": 0,
			"source": 4
		},
		{
			"sampler": 0,
			"source": 5
		},
		{
			"sampler": 0,
			"source": 6
		}
	],
	"images": [
		{
			"mimeType": "image/webp",
			"name": "AtlasAsphalt1_Normal",
			"uri": "textures/AtlasAsphalt1_Normal.webp"
		},
		{
			"mimeType": "image/webp",
			"name": "AtlasAsphalt1_BaseColor",
			"uri": "textures/AtlasAsphalt1_BaseColor.webp"
		},
		{
			"mimeType": "image/webp",
			"name": "AtlasAsphalt1_OcclusionRoughnessMetallic",
			"uri": "textures/AtlasAsphalt1_OcclusionRoughnessMetallic.webp"
		},
		{
			"mimeType": "image/webp",
			"name": "Rubber_Emissive",
			"uri": "textures/Rubber_Emissive.webp"
		},
		{
			"mimeType": "image/webp",
			"name": "Rubber_Normal",
			"uri": "textures/Rubber_Normal.webp"
		},
		{
			"mimeType": "image/webp",
			"name": "Rubber_BaseColor",
			"uri": "textures/Rubber_BaseColor.webp"
		},
		{
			"mimeType": "image/webp",
			"name": "Rubber_OcclusionRoughnessMetallic",
			"uri": "textures/Rubber_OcclusionRoughnessMetallic.webp"
		}
	],
	"accessors": [
		{
			"bufferView": 0,
			"componentType": 5126,
			"count": 6,
			"max": [
				1.0996233224868774,
				0.795949399471283,
				0.5185055732727051
			],
			"min": [
				-1.1144165992736816,
				0.08499997854232788,
				-1.2634258270263672
			],
			"type": "VEC3"
		},
		{
			"bufferView": 1,
			"componentType": 5126,
			"count": 6,
			"type": "VEC3"
		},
		{
			"bufferView": 2,
			"componentType": 5126,
			"count": 6,
			"type": "VEC2"
		},
		{
			"bufferView": 3,
			"componentType": 5123,
			"count": 12,
			"type": "SCALAR"
		},
		{
			"bufferView": 4,
			"componentType": 5126,
			"count": 136,
			"max": [
				1.406123399734497,
				1.2113794088363647,
				1.2365740537643433
			],
			"min": [
				-1.4209165573120117,
				0.08499997854232788,
				-1.2634258270263672
			],
			"type": "VEC3"
		},
		{
			"bufferView": 5,
			"componentType": 5126,
			"count": 136,
			"type": "VEC3"
		},
		{
			"bufferView": 6,
			"componentType": 5126,
			"count": 136,
			"type": "VEC2"
		},
		{
			"bufferView": 7,
			"componentType": 5123,
			"count": 270,
			"type": "SCALAR"
		},
		{
			"bufferView": 8,
			"componentType": 5126,
			"count": 48,
			"max": [
				4.999998092651367,
				0.9350000619888306,
				5.000000476837158
			],
			"min": [
				-5.000001907348633,
				0.08500000834465027,
				-5
			],
			"type": "VEC3"
		},
		{
			"bufferView": 9,
			"componentType": 5126,
			"count": 48,
			"type": "VEC3"
		},
		{
			"bufferView": 10,
			"componentType": 5126,
			"count": 48,
			"type": "VEC2"
		},
		{
			"bufferView": 11,
			"componentType": 5123,
			"count": 72,
			"type": "SCALAR"
		},
		{
			"bufferView": 12,
			"componentType": 5126,
			"count": 40,
			"max": [
				5,
				0.08500000834465027,
				5
			],
			"min": [
				-5,
				0,
				-5
			],
			"type": "VEC3"
		},
		{
			"bufferView": 13,
			"componentType": 5126,
			"count": 40,
			"type": "VEC3"
		},
		{
			"bufferView": 14,
			"componentType": 5126,
			"count": 40,
			"type": "VEC2"
		},
		{
			"bufferView": 15,
			"componentType": 5123,
			"count": 84,
			"type": "SCALAR"
		},
		{
			"bufferView": 16,
			"componentType": 5126,
			"count": 40,
			"max": [
				3.999999761581421,
				0.1850000023841858,
				5
			],
			"min": [
				-4,
				0.08500000834465027,
				-5
			],
			"type": "VEC3"
		},
		{
			"bufferView": 17,
			"componentType": 5126,
			"count": 40,
			"type": "VEC3"
		},
		{
			"bufferView": 18,
			"componentType": 5126,
			"count": 40,
			"type": "VEC2"
		},
		{
			"bufferView": 19,
			"componentType": 5123,
			"count": 60,
			"type": "SCALAR"
		}
	],
	"bufferViews": [
		{
			"buffer": 0,
			"byteLength": 72,
			"byteOffset": 0,
			"target": 34962
		},
		{
			"buffer": 0,
			"byteLength": 72,
			"byteOffset": 72,
			"target": 34962
		},
		{
			"buffer": 0,
			"byteLength": 48,
			"byteOffset": 144,
			"target": 34962
		},
		{
			"buffer": 0,
			"byteLength": 24,
			"byteOffset": 192,
			"target": 34963
		},
		{
			"buffer": 0,
			"byteLength": 1632,
			"byteOffset": 216,
			"target": 34962
		},
		{
			"buffer": 0,
			"byteLength": 1632,
			"byteOffset": 1848,
			"target": 34962
		},
		{
			"buffer": 0,
			"byteLength": 1088,
			"byteOffset": 3480,
			"target": 34962
		},
		{
			"buffer": 0,
			"byteLength": 540,
			"byteOffset": 4568,
			"target": 34963
		},
		{
			"buffer": 0,
			"byteLength": 576,
			"byteOffset": 5108,
			"target": 34962
		},
		{
			"buffer": 0,
			"byteLength": 576,
			"byteOffset": 5684,
			"target": 34962
		},
		{
			"buffer": 0,
			"byteLength": 384,
			"byteOffset": 6260,
			"target": 34962
		},
		{
			"buffer": 0,
			"byteLength": 144,
			"byteOffset": 6644,
			"target": 34963
		},
		{
			"buffer": 0,
			"byteLength": 480,
			"byteOffset": 6788,
			"target": 34962
		},
		{
			"buffer": 0,
			"byteLength": 480,
			"byteOffset": 7268,
			"target": 34962
		},
		{
			"buffer": 0,
			"byteLength": 320,
			"byteOffset": 7748,
			"target": 34962
		},
		{
			"buffer": 0,
			"byteLength": 168,
			"byteOffset": 8068,
			"target": 34963
		},
		{
			"buffer": 0,
			"byteLength": 480,
			"byteOffset": 8236,
			"target": 34962
		},
		{
			"buffer": 0,
			"byteLength": 480,
			"byteOffset": 8716,
			"target": 34962
		},
		{
			"buffer": 0,
			"byteLength": 320,
			"byteOffset": 9196,
			"target": 34962
		},
		{
			"buffer": 0,
			"byteLength": 120,
			"byteOffset": 9516,
			"target": 34963
		}
	],
	"samplers": [
		{
			"magFilter": 9729,
			"minFilter": 9987
		}
	],
	"buffers": [
		{
			"byteLength": 9636,
			"uri": "kartkids_base_trk_480_jmp_01_short_25pct_1x1.bin"
		}
	]
}