{
	"asset":{
		"generator":"Khronos glTF Blender I/O v5.0.21",
		"version":"2.0"
	},
	"scene":0,
	"scenes":[
		{
			"name":"Scene",
			"nodes":[
				0,
				1
			]
		}
	],
	"nodes":[
		{
			"mesh":0,
			"name":"kartkids_base_trk_190_rmp_up_1x1_z0_to_z2p5.001"
		},
		{
			"mesh":1,
			"name":"kartkids_base_trk_190_rmp_up_1x1_z0_to_z2p5"
		}
	],
	"materials":[
		{
			"alphaMode":"BLEND",
			"doubleSided":true,
			"emissiveTexture":{
				"index":0
			},
			"name":"asphalt",
			"normalTexture":{
				"index":1
			},
			"pbrMetallicRoughness":{
				"baseColorTexture":{
					"index":2
				},
				"metallicRoughnessTexture":{
					"index":3
				}
			}
		},
		{
			"doubleSided":true,
			"name":"rubber",
			"pbrMetallicRoughness":{
				"baseColorFactor":[
					1,
					0.14362937211990356,
					0.14362937211990356,
					1
				],
				"metallicFactor":0
			}
		},
		{
			"doubleSided":true,
			"name":"concrete",
			"pbrMetallicRoughness":{
				"baseColorFactor":[
					0.27651432156562805,
					0.27651432156562805,
					0.27651432156562805,
					1
				],
				"metallicFactor":0
			}
		}
	],
	"meshes":[
		{
			"name":"Cube.055",
			"primitives":[
				{
					"attributes":{
						"POSITION":0,
						"NORMAL":1,
						"TEXCOORD_0":2
					},
					"indices":3,
					"material":0
				},
				{
					"attributes":{
						"POSITION":4,
						"NORMAL":5,
						"TEXCOORD_0":6
					},
					"indices":7,
					"material":1
				}
			]
		},
		{
			"name":"Cube.056",
			"primitives":[
				{
					"attributes":{
						"POSITION":8,
						"NORMAL":9,
						"TEXCOORD_0":10
					},
					"indices":11,
					"material":2
				}
			]
		}
	],
	"textures":[
		{
			"sampler":0,
			"source":0
		},
		{
			"sampler":0,
			"source":1
		},
		{
			"sampler":0,
			"source":2
		},
		{
			"sampler":0,
			"source":3
		}
	],
	"images":[
		{
			"mimeType":"image/png",
			"name":"atlas_emissive",
			"uri":"textures/atlas_emissive.png"
		},
		{
			"mimeType":"image/png",
			"name":"atlas_normal",
			"uri":"textures/atlas_normal.png"
		},
		{
			"mimeType":"image/png",
			"name":"atlas_basecolor-atlas_alpha",
			"uri":"textures/atlas_basecolor-atlas_alpha.png"
		},
		{
			"mimeType":"image/png",
			"name":"atlas_ORM",
			"uri":"textures/atlas_ORM.png"
		}
	],
	"accessors":[
		{
			"bufferView":0,
			"componentType":5126,
			"count":40,
			"max":[
				5,
				2.501072645187378,
				5
			],
			"min":[
				-5,
				0,
				-5
			],
			"type":"VEC3"
		},
		{
			"bufferView":1,
			"componentType":5126,
			"count":40,
			"type":"VEC3"
		},
		{
			"bufferView":2,
			"componentType":5126,
			"count":40,
			"type":"VEC2"
		},
		{
			"bufferView":3,
			"componentType":5123,
			"count":84,
			"type":"SCALAR"
		},
		{
			"bufferView":4,
			"componentType":5126,
			"count":40,
			"max":[
				3.999999761581421,
				2.6010725498199463,
				5
			],
			"min":[
				-4,
				0.0849999189376831,
				-5
			],
			"type":"VEC3"
		},
		{
			"bufferView":5,
			"componentType":5126,
			"count":40,
			"type":"VEC3"
		},
		{
			"bufferView":6,
			"componentType":5126,
			"count":40,
			"type":"VEC2"
		},
		{
			"bufferView":7,
			"componentType":5123,
			"count":60,
			"type":"SCALAR"
		},
		{
			"bufferView":8,
			"componentType":5126,
			"count":48,
			"max":[
				5,
				3.3500008583068848,
				5
			],
			"min":[
				-4.999998092651367,
				0.08392775058746338,
				-5
			],
			"type":"VEC3"
		},
		{
			"bufferView":9,
			"componentType":5126,
			"count":48,
			"type":"VEC3"
		},
		{
			"bufferView":10,
			"componentType":5126,
			"count":48,
			"type":"VEC2"
		},
		{
			"bufferView":11,
			"componentType":5123,
			"count":72,
			"type":"SCALAR"
		}
	],
	"bufferViews":[
		{
			"buffer":0,
			"byteLength":480,
			"byteOffset":0,
			"target":34962
		},
		{
			"buffer":0,
			"byteLength":480,
			"byteOffset":480,
			"target":34962
		},
		{
			"buffer":0,
			"byteLength":320,
			"byteOffset":960,
			"target":34962
		},
		{
			"buffer":0,
			"byteLength":168,
			"byteOffset":1280,
			"target":34963
		},
		{
			"buffer":0,
			"byteLength":480,
			"byteOffset":1448,
			"target":34962
		},
		{
			"buffer":0,
			"byteLength":480,
			"byteOffset":1928,
			"target":34962
		},
		{
			"buffer":0,
			"byteLength":320,
			"byteOffset":2408,
			"target":34962
		},
		{
			"buffer":0,
			"byteLength":120,
			"byteOffset":2728,
			"target":34963
		},
		{
			"buffer":0,
			"byteLength":576,
			"byteOffset":2848,
			"target":34962
		},
		{
			"buffer":0,
			"byteLength":576,
			"byteOffset":3424,
			"target":34962
		},
		{
			"buffer":0,
			"byteLength":384,
			"byteOffset":4000,
			"target":34962
		},
		{
			"buffer":0,
			"byteLength":144,
			"byteOffset":4384,
			"target":34963
		}
	],
	"samplers":[
		{
			"magFilter":9729,
			"minFilter":9987
		}
	],
	"buffers":[
		{
			"byteLength":4528,
			"uri":"kartkids_base_trk_190_rmp_up_1x1_z0_to_z2p5.bin"
		}
	]
}
