{
	"asset":{
		"generator":"Khronos glTF Blender I/O v5.0.21",
		"version":"2.0"
	},
	"scene":0,
	"scenes":[
		{
			"name":"Scene",
			"nodes":[
				0,
				1,
				2,
				3
			]
		}
	],
	"nodes":[
		{
			"mesh":0,
			"name":"kartkids_base_trk_020_trn_90_l_1x1"
		},
		{
			"mesh":1,
			"name":"kartkids_base_trk_020_trn_90_l_1x1.001"
		},
		{
			"mesh":2,
			"name":"kartkids_base_trk_020_trn_90_l_1x1.004"
		},
		{
			"mesh":3,
			"name":"kartkids_base_trk_020_trn_90_l_1x1.002"
		}
	],
	"materials":[
		{
			"doubleSided":true,
			"emissiveTexture":{
				"index":0
			},
			"name":"asphalt",
			"normalTexture":{
				"index":1
			},
			"pbrMetallicRoughness":{
				"baseColorTexture":{
					"index":2
				},
				"metallicRoughnessTexture":{
					"index":3
				}
			}
		},
		{
			"doubleSided":true,
			"emissiveTexture":{
				"index":4
			},
			"name":"rubber",
			"normalTexture":{
				"index":5
			},
			"pbrMetallicRoughness":{
				"baseColorTexture":{
					"index":6
				},
				"metallicRoughnessTexture":{
					"index":7
				}
			}
		}
	],
	"meshes":[
		{
			"name":"Cube.110",
			"primitives":[
				{
					"attributes":{
						"POSITION":0,
						"NORMAL":1,
						"TEXCOORD_0":2
					},
					"indices":3,
					"material":0
				},
				{
					"attributes":{
						"POSITION":4,
						"NORMAL":5,
						"TEXCOORD_0":6
					},
					"indices":7,
					"material":1
				}
			]
		},
		{
			"name":"Cube.112",
			"primitives":[
				{
					"attributes":{
						"POSITION":8,
						"NORMAL":9,
						"TEXCOORD_0":10
					},
					"indices":11,
					"material":1
				}
			]
		},
		{
			"name":"Cube.111",
			"primitives":[
				{
					"attributes":{
						"POSITION":12,
						"NORMAL":13,
						"TEXCOORD_0":14
					},
					"indices":15,
					"material":1
				}
			]
		},
		{
			"name":"Cube.083",
			"primitives":[
				{
					"attributes":{
						"POSITION":16,
						"NORMAL":17,
						"TEXCOORD_0":18
					},
					"indices":19,
					"material":1
				}
			]
		}
	],
	"textures":[
		{
			"sampler":0,
			"source":0
		},
		{
			"sampler":0,
			"source":1
		},
		{
			"sampler":0,
			"source":2
		},
		{
			"sampler":0,
			"source":3
		},
		{
			"sampler":0,
			"source":4
		},
		{
			"sampler":0,
			"source":5
		},
		{
			"sampler":0,
			"source":6
		},
		{
			"sampler":0,
			"source":7
		}
	],
	"images":[
		{
			"mimeType":"image/png",
			"name":"atlas_emissive",
			"uri":"textures/atlas_emissive.png"
		},
		{
			"mimeType":"image/png",
			"name":"atlas_normal",
			"uri":"textures/atlas_normal.png"
		},
		{
			"mimeType":"image/png",
			"name":"atlas_basecolor",
			"uri":"textures/atlas_basecolor.png"
		},
		{
			"mimeType":"image/png",
			"name":"atlas_ORM",
			"uri":"textures/atlas_ORM.png"
		},
		{
			"mimeType":"image/png",
			"name":"TRIM_Emissive",
			"uri":"textures/TRIM_Emissive.png"
		},
		{
			"mimeType":"image/png",
			"name":"TRIM_Normal",
			"uri":"textures/TRIM_Normal.png"
		},
		{
			"mimeType":"image/png",
			"name":"TRIM_BaseColor",
			"uri":"textures/TRIM_BaseColor.png"
		},
		{
			"mimeType":"image/png",
			"name":"TRIM_OcclusionRoughnessMetallic-TRIM_OcclusionRoughnessMetallic.png",
			"uri":"textures/TRIM_OcclusionRoughnessMetallic-TRIM_OcclusionRoughnessMetallic.png.png"
		}
	],
	"accessors":[
		{
			"bufferView":0,
			"componentType":5126,
			"count":64,
			"max":[
				5.000000953674316,
				0.08500000834465027,
				5.000000953674316
			],
			"min":[
				-5.000000953674316,
				0,
				-5.000000953674316
			],
			"type":"VEC3"
		},
		{
			"bufferView":1,
			"componentType":5126,
			"count":64,
			"type":"VEC3"
		},
		{
			"bufferView":2,
			"componentType":5126,
			"count":64,
			"type":"VEC2"
		},
		{
			"bufferView":3,
			"componentType":5123,
			"count":168,
			"type":"SCALAR"
		},
		{
			"bufferView":4,
			"componentType":5126,
			"count":108,
			"max":[
				4.000000953674316,
				0.18500037491321564,
				5.000000953674316
			],
			"min":[
				-5.000000953674316,
				0.08500000834465027,
				-4
			],
			"type":"VEC3"
		},
		{
			"bufferView":5,
			"componentType":5126,
			"count":108,
			"type":"VEC3"
		},
		{
			"bufferView":6,
			"componentType":5126,
			"count":108,
			"type":"VEC2"
		},
		{
			"bufferView":7,
			"componentType":5123,
			"count":186,
			"type":"SCALAR"
		},
		{
			"bufferView":8,
			"componentType":5126,
			"count":172,
			"max":[
				5,
				0.9339278936386108,
				4.999998569488525
			],
			"min":[
				-5.000001430511475,
				0.08392783999443054,
				-5
			],
			"type":"VEC3"
		},
		{
			"bufferView":9,
			"componentType":5126,
			"count":172,
			"type":"VEC3"
		},
		{
			"bufferView":10,
			"componentType":5126,
			"count":172,
			"type":"VEC2"
		},
		{
			"bufferView":11,
			"componentType":5123,
			"count":294,
			"type":"SCALAR"
		},
		{
			"bufferView":12,
			"componentType":5126,
			"count":20,
			"max":[
				-4.499999046325684,
				0.9339278936386108,
				5.000000953674316
			],
			"min":[
				-4.999999046325684,
				0.08392778038978577,
				4.500002861022949
			],
			"type":"VEC3"
		},
		{
			"bufferView":13,
			"componentType":5126,
			"count":20,
			"type":"VEC3"
		},
		{
			"bufferView":14,
			"componentType":5126,
			"count":20,
			"type":"VEC2"
		},
		{
			"bufferView":15,
			"componentType":5123,
			"count":30,
			"type":"SCALAR"
		},
		{
			"bufferView":16,
			"componentType":5126,
			"count":100,
			"max":[
				4.000000953674316,
				0.1850000023841858,
				4.999998569488525
			],
			"min":[
				-5.000001430511475,
				0.08499161154031754,
				-4
			],
			"type":"VEC3"
		},
		{
			"bufferView":17,
			"componentType":5126,
			"count":100,
			"type":"VEC3"
		},
		{
			"bufferView":18,
			"componentType":5126,
			"count":100,
			"type":"VEC2"
		},
		{
			"bufferView":19,
			"componentType":5123,
			"count":174,
			"type":"SCALAR"
		}
	],
	"bufferViews":[
		{
			"buffer":0,
			"byteLength":768,
			"byteOffset":0,
			"target":34962
		},
		{
			"buffer":0,
			"byteLength":768,
			"byteOffset":768,
			"target":34962
		},
		{
			"buffer":0,
			"byteLength":512,
			"byteOffset":1536,
			"target":34962
		},
		{
			"buffer":0,
			"byteLength":336,
			"byteOffset":2048,
			"target":34963
		},
		{
			"buffer":0,
			"byteLength":1296,
			"byteOffset":2384,
			"target":34962
		},
		{
			"buffer":0,
			"byteLength":1296,
			"byteOffset":3680,
			"target":34962
		},
		{
			"buffer":0,
			"byteLength":864,
			"byteOffset":4976,
			"target":34962
		},
		{
			"buffer":0,
			"byteLength":372,
			"byteOffset":5840,
			"target":34963
		},
		{
			"buffer":0,
			"byteLength":2064,
			"byteOffset":6212,
			"target":34962
		},
		{
			"buffer":0,
			"byteLength":2064,
			"byteOffset":8276,
			"target":34962
		},
		{
			"buffer":0,
			"byteLength":1376,
			"byteOffset":10340,
			"target":34962
		},
		{
			"buffer":0,
			"byteLength":588,
			"byteOffset":11716,
			"target":34963
		},
		{
			"buffer":0,
			"byteLength":240,
			"byteOffset":12304,
			"target":34962
		},
		{
			"buffer":0,
			"byteLength":240,
			"byteOffset":12544,
			"target":34962
		},
		{
			"buffer":0,
			"byteLength":160,
			"byteOffset":12784,
			"target":34962
		},
		{
			"buffer":0,
			"byteLength":60,
			"byteOffset":12944,
			"target":34963
		},
		{
			"buffer":0,
			"byteLength":1200,
			"byteOffset":13004,
			"target":34962
		},
		{
			"buffer":0,
			"byteLength":1200,
			"byteOffset":14204,
			"target":34962
		},
		{
			"buffer":0,
			"byteLength":800,
			"byteOffset":15404,
			"target":34962
		},
		{
			"buffer":0,
			"byteLength":348,
			"byteOffset":16204,
			"target":34963
		}
	],
	"samplers":[
		{
			"magFilter":9729,
			"minFilter":9987
		}
	],
	"buffers":[
		{
			"byteLength":16552,
			"uri":"kartkids_base_trk_020_trn_90_l_1x1.bin"
		}
	]
}
