{
	"asset": {
		"generator": "Khronos glTF Blender I/O v5.0.21",
		"version": "2.0"
	},
	"scene": 0,
	"scenes": [
		{
			"name": "Scene",
			"nodes": [
				0,
				1
			]
		}
	],
	"nodes": [
		{
			"mesh": 0,
			"name": "kartkids_base_trk_010_rd_straight_1x1.013"
		},
		{
			"mesh": 1,
			"name": "kartkids_base_trk_440_tun_closed_exit_1x1.002"
		}
	],
	"materials": [
		{
			"doubleSided": true,
			"name": "asphalt",
			"normalTexture": {
				"index": 0
			},
			"pbrMetallicRoughness": {
				"baseColorTexture": {
					"index": 1
				},
				"metallicRoughnessTexture": {
					"index": 2
				}
			}
		},
		{
			"alphaMode": "BLEND",
			"doubleSided": true,
			"emissiveTexture": {
				"index": 3
			},
			"name": "TUNNELS",
			"normalTexture": {
				"index": 4
			},
			"pbrMetallicRoughness": {
				"baseColorTexture": {
					"index": 5
				},
				"metallicRoughnessTexture": {
					"index": 6
				}
			}
		}
	],
	"meshes": [
		{
			"name": "Cube.054",
			"primitives": [
				{
					"attributes": {
						"POSITION": 0,
						"NORMAL": 1,
						"TEXCOORD_0": 2
					},
					"indices": 3,
					"material": 0
				}
			]
		},
		{
			"name": "kartkids_base_trk_440_tun_closed_exit_1x1.004",
			"primitives": [
				{
					"attributes": {
						"POSITION": 4,
						"NORMAL": 5,
						"TEXCOORD_0": 6
					},
					"indices": 7,
					"material": 1
				}
			]
		}
	],
	"textures": [
		{
			"sampler": 0,
			"source": 0
		},
		{
			"sampler": 0,
			"source": 1
		},
		{
			"sampler": 0,
			"source": 2
		},
		{
			"sampler": 0,
			"source": 3
		},
		{
			"sampler": 0,
			"source": 4
		},
		{
			"sampler": 0,
			"source": 5
		},
		{
			"sampler": 0,
			"source": 6
		}
	],
	"images": [
		{
			"mimeType": "image/webp",
			"name": "AtlasAsphalt1_Normal",
			"uri": "textures/AtlasAsphalt1_Normal.webp"
		},
		{
			"mimeType": "image/webp",
			"name": "AtlasAsphalt1_BaseColor",
			"uri": "textures/AtlasAsphalt1_BaseColor.webp"
		},
		{
			"mimeType": "image/webp",
			"name": "AtlasAsphalt1_OcclusionRoughnessMetallic",
			"uri": "textures/AtlasAsphalt1_OcclusionRoughnessMetallic.webp"
		},
		{
			"mimeType": "image/webp",
			"name": "TUNNELS_Emissive",
			"uri": "textures/TUNNELS_Emissive.webp"
		},
		{
			"mimeType": "image/webp",
			"name": "TUNNELS_Normal",
			"uri": "textures/TUNNELS_Normal.webp"
		},
		{
			"mimeType": "image/webp",
			"name": "TUNNELS_BaseColor",
			"uri": "textures/TUNNELS_BaseColor.webp"
		},
		{
			"mimeType": "image/webp",
			"name": "TUNNELS_OcclusionRoughnessMetallic",
			"uri": "textures/TUNNELS_OcclusionRoughnessMetallic.webp"
		}
	],
	"accessors": [
		{
			"bufferView": 0,
			"componentType": 5126,
			"count": 40,
			"max": [
				5,
				0.08500000834465027,
				5
			],
			"min": [
				-5,
				0,
				-5
			],
			"type": "VEC3"
		},
		{
			"bufferView": 1,
			"componentType": 5126,
			"count": 40,
			"type": "VEC3"
		},
		{
			"bufferView": 2,
			"componentType": 5126,
			"count": 40,
			"type": "VEC2"
		},
		{
			"bufferView": 3,
			"componentType": 5123,
			"count": 84,
			"type": "SCALAR"
		},
		{
			"bufferView": 4,
			"componentType": 5126,
			"count": 592,
			"max": [
				4.040860652923584,
				5.394376754760742,
				4.487679958343506
			],
			"min": [
				-4.040860652923584,
				0.0849997028708458,
				-4.487679958343506
			],
			"type": "VEC3"
		},
		{
			"bufferView": 5,
			"componentType": 5126,
			"count": 592,
			"type": "VEC3"
		},
		{
			"bufferView": 6,
			"componentType": 5126,
			"count": 592,
			"type": "VEC2"
		},
		{
			"bufferView": 7,
			"componentType": 5123,
			"count": 1428,
			"type": "SCALAR"
		}
	],
	"bufferViews": [
		{
			"buffer": 0,
			"byteLength": 480,
			"byteOffset": 0,
			"target": 34962
		},
		{
			"buffer": 0,
			"byteLength": 480,
			"byteOffset": 480,
			"target": 34962
		},
		{
			"buffer": 0,
			"byteLength": 320,
			"byteOffset": 960,
			"target": 34962
		},
		{
			"buffer": 0,
			"byteLength": 168,
			"byteOffset": 1280,
			"target": 34963
		},
		{
			"buffer": 0,
			"byteLength": 7104,
			"byteOffset": 1448,
			"target": 34962
		},
		{
			"buffer": 0,
			"byteLength": 7104,
			"byteOffset": 8552,
			"target": 34962
		},
		{
			"buffer": 0,
			"byteLength": 4736,
			"byteOffset": 15656,
			"target": 34962
		},
		{
			"buffer": 0,
			"byteLength": 2856,
			"byteOffset": 20392,
			"target": 34963
		}
	],
	"samplers": [
		{
			"magFilter": 9729,
			"minFilter": 9987
		}
	],
	"buffers": [
		{
			"byteLength": 23248,
			"uri": "kartkids_base_trk_440_tun_closed_exit_1x1.bin"
		}
	]
}