{
	"asset":{
		"generator":"Khronos glTF Blender I/O v5.0.21",
		"version":"2.0"
	},
	"scene":0,
	"scenes":[
		{
			"name":"Scene",
			"nodes":[
				0,
				1,
				2,
				3,
				4
			]
		}
	],
	"nodes":[
		{
			"mesh":0,
			"name":"kartkids_base_trk_150_jct_tjunction_3x3"
		},
		{
			"mesh":1,
			"name":"kartkids_base_trk_150_jct_tjunction_3x3.004"
		},
		{
			"mesh":2,
			"name":"kartkids_base_trk_150_jct_tjunction_3x3.001"
		},
		{
			"mesh":3,
			"name":"kartkids_base_trk_150_jct_tjunction_3x3.003"
		},
		{
			"mesh":4,
			"name":"kartkids_base_trk_150_jct_tjunction_3x3.002"
		}
	],
	"materials":[
		{
			"doubleSided":true,
			"emissiveTexture":{
				"index":0
			},
			"name":"asphalt",
			"normalTexture":{
				"index":1
			},
			"pbrMetallicRoughness":{
				"baseColorTexture":{
					"index":2
				},
				"metallicRoughnessTexture":{
					"index":3
				}
			}
		},
		{
			"doubleSided":true,
			"emissiveTexture":{
				"index":4
			},
			"name":"rubber",
			"normalTexture":{
				"index":5
			},
			"pbrMetallicRoughness":{
				"baseColorTexture":{
					"index":6
				},
				"metallicRoughnessTexture":{
					"index":7
				}
			}
		}
	],
	"meshes":[
		{
			"name":"Cube.043",
			"primitives":[
				{
					"attributes":{
						"POSITION":0,
						"NORMAL":1,
						"TEXCOORD_0":2
					},
					"indices":3,
					"material":0
				},
				{
					"attributes":{
						"POSITION":4,
						"NORMAL":5,
						"TEXCOORD_0":6
					},
					"indices":7,
					"material":1
				}
			]
		},
		{
			"name":"Cube.045",
			"primitives":[
				{
					"attributes":{
						"POSITION":8,
						"NORMAL":9,
						"TEXCOORD_0":10
					},
					"indices":11,
					"material":1
				}
			]
		},
		{
			"name":"Cube.046",
			"primitives":[
				{
					"attributes":{
						"POSITION":12,
						"NORMAL":13,
						"TEXCOORD_0":14
					},
					"indices":15,
					"material":1
				}
			]
		},
		{
			"name":"Cube.074",
			"primitives":[
				{
					"attributes":{
						"POSITION":16,
						"NORMAL":17,
						"TEXCOORD_0":18
					},
					"indices":19,
					"material":1
				}
			]
		},
		{
			"name":"Cube.075",
			"primitives":[
				{
					"attributes":{
						"POSITION":20,
						"NORMAL":21,
						"TEXCOORD_0":22
					},
					"indices":19,
					"material":1
				}
			]
		}
	],
	"textures":[
		{
			"sampler":0,
			"source":0
		},
		{
			"sampler":0,
			"source":1
		},
		{
			"sampler":0,
			"source":2
		},
		{
			"sampler":0,
			"source":3
		},
		{
			"sampler":0,
			"source":4
		},
		{
			"sampler":0,
			"source":5
		},
		{
			"sampler":0,
			"source":6
		},
		{
			"sampler":0,
			"source":7
		}
	],
	"images":[
		{
			"mimeType":"image/png",
			"name":"atlas_emissive",
			"uri":"textures/atlas_emissive.png"
		},
		{
			"mimeType":"image/png",
			"name":"atlas_normal",
			"uri":"textures/atlas_normal.png"
		},
		{
			"mimeType":"image/png",
			"name":"atlas_basecolor",
			"uri":"textures/atlas_basecolor.png"
		},
		{
			"mimeType":"image/png",
			"name":"atlas_ORM",
			"uri":"textures/atlas_ORM.png"
		},
		{
			"mimeType":"image/png",
			"name":"TRIM_Emissive",
			"uri":"textures/TRIM_Emissive.png"
		},
		{
			"mimeType":"image/png",
			"name":"TRIM_Normal",
			"uri":"textures/TRIM_Normal.png"
		},
		{
			"mimeType":"image/png",
			"name":"TRIM_BaseColor",
			"uri":"textures/TRIM_BaseColor.png"
		},
		{
			"mimeType":"image/png",
			"name":"TRIM_OcclusionRoughnessMetallic-TRIM_OcclusionRoughnessMetallic.png",
			"uri":"textures/TRIM_OcclusionRoughnessMetallic-TRIM_OcclusionRoughnessMetallic.png.png"
		}
	],
	"accessors":[
		{
			"bufferView":0,
			"componentType":5126,
			"count":576,
			"max":[
				15,
				0.08500000834465027,
				15
			],
			"min":[
				-15,
				0,
				-15
			],
			"type":"VEC3"
		},
		{
			"bufferView":1,
			"componentType":5126,
			"count":576,
			"type":"VEC3"
		},
		{
			"bufferView":2,
			"componentType":5126,
			"count":576,
			"type":"VEC2"
		},
		{
			"bufferView":3,
			"componentType":5123,
			"count":1584,
			"type":"SCALAR"
		},
		{
			"bufferView":4,
			"componentType":5126,
			"count":24,
			"max":[
				6,
				0.08500000834465027,
				14
			],
			"min":[
				-6,
				0.08500000834465027,
				4
			],
			"type":"VEC3"
		},
		{
			"bufferView":5,
			"componentType":5126,
			"count":24,
			"type":"VEC3"
		},
		{
			"bufferView":6,
			"componentType":5126,
			"count":24,
			"type":"VEC2"
		},
		{
			"bufferView":7,
			"componentType":5123,
			"count":36,
			"type":"SCALAR"
		},
		{
			"bufferView":8,
			"componentType":5126,
			"count":200,
			"max":[
				14.999987602233887,
				0.18500003218650818,
				6.4499969482421875
			],
			"min":[
				-15,
				0.08495104312896729,
				-15.000001907348633
			],
			"type":"VEC3"
		},
		{
			"bufferView":9,
			"componentType":5126,
			"count":200,
			"type":"VEC3"
		},
		{
			"bufferView":10,
			"componentType":5126,
			"count":200,
			"type":"VEC2"
		},
		{
			"bufferView":11,
			"componentType":5123,
			"count":348,
			"type":"SCALAR"
		},
		{
			"bufferView":12,
			"componentType":5126,
			"count":184,
			"max":[
				15,
				0.9339278936386108,
				5.5
			],
			"min":[
				-15,
				0.08392763137817383,
				-15
			],
			"type":"VEC3"
		},
		{
			"bufferView":13,
			"componentType":5126,
			"count":184,
			"type":"VEC3"
		},
		{
			"bufferView":14,
			"componentType":5126,
			"count":184,
			"type":"VEC2"
		},
		{
			"bufferView":15,
			"componentType":5123,
			"count":348,
			"type":"SCALAR"
		},
		{
			"bufferView":16,
			"componentType":5126,
			"count":20,
			"max":[
				15,
				0.9339278936386108,
				15
			],
			"min":[
				-15,
				0.08392781019210815,
				14.5
			],
			"type":"VEC3"
		},
		{
			"bufferView":17,
			"componentType":5126,
			"count":20,
			"type":"VEC3"
		},
		{
			"bufferView":18,
			"componentType":5126,
			"count":20,
			"type":"VEC2"
		},
		{
			"bufferView":19,
			"componentType":5123,
			"count":30,
			"type":"SCALAR"
		},
		{
			"bufferView":20,
			"componentType":5126,
			"count":20,
			"max":[
				15,
				0.18500003218650818,
				14
			],
			"min":[
				-14.999999046325684,
				0.08500003814697266,
				13.550003051757812
			],
			"type":"VEC3"
		},
		{
			"bufferView":21,
			"componentType":5126,
			"count":20,
			"type":"VEC3"
		},
		{
			"bufferView":22,
			"componentType":5126,
			"count":20,
			"type":"VEC2"
		}
	],
	"bufferViews":[
		{
			"buffer":0,
			"byteLength":6912,
			"byteOffset":0,
			"target":34962
		},
		{
			"buffer":0,
			"byteLength":6912,
			"byteOffset":6912,
			"target":34962
		},
		{
			"buffer":0,
			"byteLength":4608,
			"byteOffset":13824,
			"target":34962
		},
		{
			"buffer":0,
			"byteLength":3168,
			"byteOffset":18432,
			"target":34963
		},
		{
			"buffer":0,
			"byteLength":288,
			"byteOffset":21600,
			"target":34962
		},
		{
			"buffer":0,
			"byteLength":288,
			"byteOffset":21888,
			"target":34962
		},
		{
			"buffer":0,
			"byteLength":192,
			"byteOffset":22176,
			"target":34962
		},
		{
			"buffer":0,
			"byteLength":72,
			"byteOffset":22368,
			"target":34963
		},
		{
			"buffer":0,
			"byteLength":2400,
			"byteOffset":22440,
			"target":34962
		},
		{
			"buffer":0,
			"byteLength":2400,
			"byteOffset":24840,
			"target":34962
		},
		{
			"buffer":0,
			"byteLength":1600,
			"byteOffset":27240,
			"target":34962
		},
		{
			"buffer":0,
			"byteLength":696,
			"byteOffset":28840,
			"target":34963
		},
		{
			"buffer":0,
			"byteLength":2208,
			"byteOffset":29536,
			"target":34962
		},
		{
			"buffer":0,
			"byteLength":2208,
			"byteOffset":31744,
			"target":34962
		},
		{
			"buffer":0,
			"byteLength":1472,
			"byteOffset":33952,
			"target":34962
		},
		{
			"buffer":0,
			"byteLength":696,
			"byteOffset":35424,
			"target":34963
		},
		{
			"buffer":0,
			"byteLength":240,
			"byteOffset":36120,
			"target":34962
		},
		{
			"buffer":0,
			"byteLength":240,
			"byteOffset":36360,
			"target":34962
		},
		{
			"buffer":0,
			"byteLength":160,
			"byteOffset":36600,
			"target":34962
		},
		{
			"buffer":0,
			"byteLength":60,
			"byteOffset":36760,
			"target":34963
		},
		{
			"buffer":0,
			"byteLength":240,
			"byteOffset":36820,
			"target":34962
		},
		{
			"buffer":0,
			"byteLength":240,
			"byteOffset":37060,
			"target":34962
		},
		{
			"buffer":0,
			"byteLength":160,
			"byteOffset":37300,
			"target":34962
		}
	],
	"samplers":[
		{
			"magFilter":9729,
			"minFilter":9987
		}
	],
	"buffers":[
		{
			"byteLength":37460,
			"uri":"kartkids_base_trk_150_jct_tjunction_3x3.bin"
		}
	]
}
