{
	"asset":{
		"generator":"Khronos glTF Blender I/O v5.0.21",
		"version":"2.0"
	},
	"scene":0,
	"scenes":[
		{
			"name":"Scene",
			"nodes":[
				0,
				1,
				2
			]
		}
	],
	"nodes":[
		{
			"mesh":0,
			"name":"kartkids_base_trk_490_jmp_02_mid_50pct_railed_1x1.001"
		},
		{
			"mesh":1,
			"name":"kartkids_base_trk_490_jmp_02_mid_50pct_railed_1x1"
		},
		{
			"mesh":2,
			"name":"kartkids_base_trk_490_jmp_02_mid_50pct_railed_1x1.002"
		}
	],
	"materials":[
		{
			"alphaMode":"BLEND",
			"doubleSided":true,
			"emissiveTexture":{
				"index":0
			},
			"name":"asphalt",
			"normalTexture":{
				"index":1
			},
			"pbrMetallicRoughness":{
				"baseColorTexture":{
					"index":2
				},
				"metallicRoughnessTexture":{
					"index":3
				}
			}
		},
		{
			"doubleSided":true,
			"name":"concrete",
			"pbrMetallicRoughness":{
				"baseColorFactor":[
					0.27651432156562805,
					0.27651432156562805,
					0.27651432156562805,
					1
				],
				"metallicFactor":0
			}
		},
		{
			"doubleSided":true,
			"name":"metall",
			"pbrMetallicRoughness":{
				"baseColorFactor":[
					0.4463568329811096,
					0.4463568329811096,
					0.4463568329811096,
					1
				],
				"metallicFactor":0
			}
		},
		{
			"doubleSided":true,
			"name":"concrete.001",
			"pbrMetallicRoughness":{
				"baseColorFactor":[
					0.27651432156562805,
					0.27651432156562805,
					0.27651432156562805,
					1
				],
				"metallicFactor":0
			}
		},
		{
			"doubleSided":true,
			"name":"rubber.001",
			"pbrMetallicRoughness":{
				"baseColorFactor":[
					1,
					0.14362937211990356,
					0.14362937211990356,
					1
				],
				"metallicFactor":0
			}
		}
	],
	"meshes":[
		{
			"name":"kartkids_base_trk_490_jmp_02_mid_50pct_railed_1x1.001",
			"primitives":[
				{
					"attributes":{
						"POSITION":0,
						"NORMAL":1,
						"TEXCOORD_0":2
					},
					"indices":3,
					"material":0
				},
				{
					"attributes":{
						"POSITION":4,
						"NORMAL":5,
						"TEXCOORD_0":6
					},
					"indices":7,
					"material":1
				},
				{
					"attributes":{
						"POSITION":8,
						"NORMAL":9,
						"TEXCOORD_0":10
					},
					"indices":11,
					"material":2
				}
			]
		},
		{
			"name":"Cube.002",
			"primitives":[
				{
					"attributes":{
						"POSITION":12,
						"NORMAL":13,
						"TEXCOORD_0":14
					},
					"indices":15,
					"material":3
				}
			]
		},
		{
			"name":"Cube.026",
			"primitives":[
				{
					"attributes":{
						"POSITION":16,
						"NORMAL":17,
						"TEXCOORD_0":18
					},
					"indices":19,
					"material":0
				},
				{
					"attributes":{
						"POSITION":20,
						"NORMAL":21,
						"TEXCOORD_0":22
					},
					"indices":23,
					"material":4
				}
			]
		}
	],
	"textures":[
		{
			"sampler":0,
			"source":0
		},
		{
			"sampler":0,
			"source":1
		},
		{
			"sampler":0,
			"source":2
		},
		{
			"sampler":0,
			"source":3
		}
	],
	"images":[
		{
			"mimeType":"image/png",
			"name":"atlas_emissive",
			"uri":"textures/atlas_emissive.png"
		},
		{
			"mimeType":"image/png",
			"name":"atlas_normal",
			"uri":"textures/atlas_normal.png"
		},
		{
			"mimeType":"image/png",
			"name":"atlas_basecolor-atlas_alpha",
			"uri":"textures/atlas_basecolor-atlas_alpha.png"
		},
		{
			"mimeType":"image/png",
			"name":"atlas_ORM",
			"uri":"textures/atlas_ORM.png"
		}
	],
	"accessors":[
		{
			"bufferView":0,
			"componentType":5126,
			"count":60,
			"max":[
				1.8532801866531372,
				2.5850000381469727,
				2.980313777923584
			],
			"min":[
				-1.8532805442810059,
				0.08500003814697266,
				-2.019686698913574
			],
			"type":"VEC3"
		},
		{
			"bufferView":1,
			"componentType":5126,
			"count":60,
			"type":"VEC3"
		},
		{
			"bufferView":2,
			"componentType":5126,
			"count":60,
			"type":"VEC2"
		},
		{
			"bufferView":3,
			"componentType":5123,
			"count":150,
			"type":"SCALAR"
		},
		{
			"bufferView":4,
			"componentType":5126,
			"count":108,
			"max":[
				1.8532801866531372,
				2.8208236694335938,
				2.980313777923584
			],
			"min":[
				-1.8532805442810059,
				0.08500003814697266,
				-2.019686698913574
			],
			"type":"VEC3"
		},
		{
			"bufferView":5,
			"componentType":5126,
			"count":108,
			"type":"VEC3"
		},
		{
			"bufferView":6,
			"componentType":5126,
			"count":108,
			"type":"VEC2"
		},
		{
			"bufferView":7,
			"componentType":5123,
			"count":204,
			"type":"SCALAR"
		},
		{
			"bufferView":8,
			"componentType":5126,
			"count":180,
			"max":[
				1.8532800674438477,
				0.7946926355361938,
				-2.056948661804199
			],
			"min":[
				-1.859947919845581,
				0.08500003814697266,
				-4.313024997711182
			],
			"type":"VEC3"
		},
		{
			"bufferView":9,
			"componentType":5126,
			"count":180,
			"type":"VEC3"
		},
		{
			"bufferView":10,
			"componentType":5126,
			"count":180,
			"type":"VEC2"
		},
		{
			"bufferView":11,
			"componentType":5123,
			"count":768,
			"type":"SCALAR"
		},
		{
			"bufferView":12,
			"componentType":5126,
			"count":48,
			"max":[
				4.999998092651367,
				0.9350000619888306,
				5.000000476837158
			],
			"min":[
				-5.000001907348633,
				0.08500000834465027,
				-5
			],
			"type":"VEC3"
		},
		{
			"bufferView":13,
			"componentType":5126,
			"count":48,
			"type":"VEC3"
		},
		{
			"bufferView":14,
			"componentType":5126,
			"count":48,
			"type":"VEC2"
		},
		{
			"bufferView":15,
			"componentType":5123,
			"count":72,
			"type":"SCALAR"
		},
		{
			"bufferView":16,
			"componentType":5126,
			"count":40,
			"max":[
				5,
				0.08500000834465027,
				5
			],
			"min":[
				-5,
				0,
				-5
			],
			"type":"VEC3"
		},
		{
			"bufferView":17,
			"componentType":5126,
			"count":40,
			"type":"VEC3"
		},
		{
			"bufferView":18,
			"componentType":5126,
			"count":40,
			"type":"VEC2"
		},
		{
			"bufferView":19,
			"componentType":5123,
			"count":84,
			"type":"SCALAR"
		},
		{
			"bufferView":20,
			"componentType":5126,
			"count":40,
			"max":[
				3.999999761581421,
				0.1850000023841858,
				5
			],
			"min":[
				-4,
				0.08500000834465027,
				-5
			],
			"type":"VEC3"
		},
		{
			"bufferView":21,
			"componentType":5126,
			"count":40,
			"type":"VEC3"
		},
		{
			"bufferView":22,
			"componentType":5126,
			"count":40,
			"type":"VEC2"
		},
		{
			"bufferView":23,
			"componentType":5123,
			"count":60,
			"type":"SCALAR"
		}
	],
	"bufferViews":[
		{
			"buffer":0,
			"byteLength":720,
			"byteOffset":0,
			"target":34962
		},
		{
			"buffer":0,
			"byteLength":720,
			"byteOffset":720,
			"target":34962
		},
		{
			"buffer":0,
			"byteLength":480,
			"byteOffset":1440,
			"target":34962
		},
		{
			"buffer":0,
			"byteLength":300,
			"byteOffset":1920,
			"target":34963
		},
		{
			"buffer":0,
			"byteLength":1296,
			"byteOffset":2220,
			"target":34962
		},
		{
			"buffer":0,
			"byteLength":1296,
			"byteOffset":3516,
			"target":34962
		},
		{
			"buffer":0,
			"byteLength":864,
			"byteOffset":4812,
			"target":34962
		},
		{
			"buffer":0,
			"byteLength":408,
			"byteOffset":5676,
			"target":34963
		},
		{
			"buffer":0,
			"byteLength":2160,
			"byteOffset":6084,
			"target":34962
		},
		{
			"buffer":0,
			"byteLength":2160,
			"byteOffset":8244,
			"target":34962
		},
		{
			"buffer":0,
			"byteLength":1440,
			"byteOffset":10404,
			"target":34962
		},
		{
			"buffer":0,
			"byteLength":1536,
			"byteOffset":11844,
			"target":34963
		},
		{
			"buffer":0,
			"byteLength":576,
			"byteOffset":13380,
			"target":34962
		},
		{
			"buffer":0,
			"byteLength":576,
			"byteOffset":13956,
			"target":34962
		},
		{
			"buffer":0,
			"byteLength":384,
			"byteOffset":14532,
			"target":34962
		},
		{
			"buffer":0,
			"byteLength":144,
			"byteOffset":14916,
			"target":34963
		},
		{
			"buffer":0,
			"byteLength":480,
			"byteOffset":15060,
			"target":34962
		},
		{
			"buffer":0,
			"byteLength":480,
			"byteOffset":15540,
			"target":34962
		},
		{
			"buffer":0,
			"byteLength":320,
			"byteOffset":16020,
			"target":34962
		},
		{
			"buffer":0,
			"byteLength":168,
			"byteOffset":16340,
			"target":34963
		},
		{
			"buffer":0,
			"byteLength":480,
			"byteOffset":16508,
			"target":34962
		},
		{
			"buffer":0,
			"byteLength":480,
			"byteOffset":16988,
			"target":34962
		},
		{
			"buffer":0,
			"byteLength":320,
			"byteOffset":17468,
			"target":34962
		},
		{
			"buffer":0,
			"byteLength":120,
			"byteOffset":17788,
			"target":34963
		}
	],
	"samplers":[
		{
			"magFilter":9729,
			"minFilter":9987
		}
	],
	"buffers":[
		{
			"byteLength":17908,
			"uri":"kartkids_base_trk_490_jmp_02_mid_50pct_railed_1x1.bin"
		}
	]
}
