{
	"asset":{
		"generator":"Khronos glTF Blender I/O v5.0.21",
		"version":"2.0"
	},
	"scene":0,
	"scenes":[
		{
			"name":"Scene",
			"nodes":[
				0,
				1,
				2
			]
		}
	],
	"nodes":[
		{
			"mesh":0,
			"name":"kartkids_base_trk_400_brg_mid_1x1"
		},
		{
			"mesh":1,
			"name":"kartkids_base_trk_400_brg_mid_1x1.001"
		},
		{
			"mesh":2,
			"name":"kartkids_base_trk_400_brg_mid_1x1.002"
		}
	],
	"materials":[
		{
			"doubleSided":true,
			"emissiveTexture":{
				"index":0
			},
			"name":"rubber",
			"normalTexture":{
				"index":1
			},
			"pbrMetallicRoughness":{
				"baseColorTexture":{
					"index":2
				},
				"metallicRoughnessTexture":{
					"index":3
				}
			}
		},
		{
			"doubleSided":true,
			"emissiveTexture":{
				"index":4
			},
			"name":"asphalt",
			"normalTexture":{
				"index":5
			},
			"pbrMetallicRoughness":{
				"baseColorTexture":{
					"index":6
				},
				"metallicRoughnessTexture":{
					"index":7
				}
			}
		}
	],
	"meshes":[
		{
			"name":"kartkids_base_trk_400_brg_mid_1x1.001",
			"primitives":[
				{
					"attributes":{
						"POSITION":0,
						"NORMAL":1,
						"TEXCOORD_0":2
					},
					"indices":3,
					"material":0
				}
			]
		},
		{
			"name":"Cube.088",
			"primitives":[
				{
					"attributes":{
						"POSITION":4,
						"NORMAL":5,
						"TEXCOORD_0":6
					},
					"indices":7,
					"material":1
				},
				{
					"attributes":{
						"POSITION":8,
						"NORMAL":9,
						"TEXCOORD_0":10
					},
					"indices":11,
					"material":0
				}
			]
		},
		{
			"name":"Cube.115",
			"primitives":[
				{
					"attributes":{
						"POSITION":12,
						"NORMAL":13,
						"TEXCOORD_0":14
					},
					"indices":15,
					"material":0
				}
			]
		}
	],
	"textures":[
		{
			"sampler":0,
			"source":0
		},
		{
			"sampler":0,
			"source":1
		},
		{
			"sampler":0,
			"source":2
		},
		{
			"sampler":0,
			"source":3
		},
		{
			"sampler":0,
			"source":4
		},
		{
			"sampler":0,
			"source":5
		},
		{
			"sampler":0,
			"source":6
		},
		{
			"sampler":0,
			"source":7
		}
	],
	"images":[
		{
			"mimeType":"image/png",
			"name":"TRIM_Emissive",
			"uri":"textures/TRIM_Emissive.png"
		},
		{
			"mimeType":"image/png",
			"name":"TRIM_Normal",
			"uri":"textures/TRIM_Normal.png"
		},
		{
			"mimeType":"image/png",
			"name":"TRIM_BaseColor",
			"uri":"textures/TRIM_BaseColor.png"
		},
		{
			"mimeType":"image/png",
			"name":"TRIM_OcclusionRoughnessMetallic-TRIM_OcclusionRoughnessMetallic.png",
			"uri":"textures/TRIM_OcclusionRoughnessMetallic-TRIM_OcclusionRoughnessMetallic.png.png"
		},
		{
			"mimeType":"image/png",
			"name":"atlas_emissive",
			"uri":"textures/atlas_emissive.png"
		},
		{
			"mimeType":"image/png",
			"name":"atlas_normal",
			"uri":"textures/atlas_normal.png"
		},
		{
			"mimeType":"image/png",
			"name":"atlas_basecolor",
			"uri":"textures/atlas_basecolor.png"
		},
		{
			"mimeType":"image/png",
			"name":"atlas_ORM",
			"uri":"textures/atlas_ORM.png"
		}
	],
	"accessors":[
		{
			"bufferView":0,
			"componentType":5126,
			"count":96,
			"max":[
				5,
				4.916072368621826,
				0.937355101108551
			],
			"min":[
				-5,
				0,
				-0.9372673630714417
			],
			"type":"VEC3"
		},
		{
			"bufferView":1,
			"componentType":5126,
			"count":96,
			"type":"VEC3"
		},
		{
			"bufferView":2,
			"componentType":5126,
			"count":96,
			"type":"VEC2"
		},
		{
			"bufferView":3,
			"componentType":5123,
			"count":144,
			"type":"SCALAR"
		},
		{
			"bufferView":4,
			"componentType":5126,
			"count":40,
			"max":[
				5,
				5.001072406768799,
				5
			],
			"min":[
				-5,
				4.916072368621826,
				-5
			],
			"type":"VEC3"
		},
		{
			"bufferView":5,
			"componentType":5126,
			"count":40,
			"type":"VEC3"
		},
		{
			"bufferView":6,
			"componentType":5126,
			"count":40,
			"type":"VEC2"
		},
		{
			"bufferView":7,
			"componentType":5123,
			"count":84,
			"type":"SCALAR"
		},
		{
			"bufferView":8,
			"componentType":5126,
			"count":40,
			"max":[
				3.999999761581421,
				5.101072788238525,
				5
			],
			"min":[
				-4,
				5.001072406768799,
				-5
			],
			"type":"VEC3"
		},
		{
			"bufferView":9,
			"componentType":5126,
			"count":40,
			"type":"VEC3"
		},
		{
			"bufferView":10,
			"componentType":5126,
			"count":40,
			"type":"VEC2"
		},
		{
			"bufferView":11,
			"componentType":5123,
			"count":60,
			"type":"SCALAR"
		},
		{
			"bufferView":12,
			"componentType":5126,
			"count":384,
			"max":[
				4.999998092651367,
				7.456813812255859,
				5.000002384185791
			],
			"min":[
				-4.999998092651367,
				4.999999523162842,
				-5
			],
			"type":"VEC3"
		},
		{
			"bufferView":13,
			"componentType":5126,
			"count":384,
			"type":"VEC3"
		},
		{
			"bufferView":14,
			"componentType":5126,
			"count":384,
			"type":"VEC2"
		},
		{
			"bufferView":15,
			"componentType":5123,
			"count":576,
			"type":"SCALAR"
		}
	],
	"bufferViews":[
		{
			"buffer":0,
			"byteLength":1152,
			"byteOffset":0,
			"target":34962
		},
		{
			"buffer":0,
			"byteLength":1152,
			"byteOffset":1152,
			"target":34962
		},
		{
			"buffer":0,
			"byteLength":768,
			"byteOffset":2304,
			"target":34962
		},
		{
			"buffer":0,
			"byteLength":288,
			"byteOffset":3072,
			"target":34963
		},
		{
			"buffer":0,
			"byteLength":480,
			"byteOffset":3360,
			"target":34962
		},
		{
			"buffer":0,
			"byteLength":480,
			"byteOffset":3840,
			"target":34962
		},
		{
			"buffer":0,
			"byteLength":320,
			"byteOffset":4320,
			"target":34962
		},
		{
			"buffer":0,
			"byteLength":168,
			"byteOffset":4640,
			"target":34963
		},
		{
			"buffer":0,
			"byteLength":480,
			"byteOffset":4808,
			"target":34962
		},
		{
			"buffer":0,
			"byteLength":480,
			"byteOffset":5288,
			"target":34962
		},
		{
			"buffer":0,
			"byteLength":320,
			"byteOffset":5768,
			"target":34962
		},
		{
			"buffer":0,
			"byteLength":120,
			"byteOffset":6088,
			"target":34963
		},
		{
			"buffer":0,
			"byteLength":4608,
			"byteOffset":6208,
			"target":34962
		},
		{
			"buffer":0,
			"byteLength":4608,
			"byteOffset":10816,
			"target":34962
		},
		{
			"buffer":0,
			"byteLength":3072,
			"byteOffset":15424,
			"target":34962
		},
		{
			"buffer":0,
			"byteLength":1152,
			"byteOffset":18496,
			"target":34963
		}
	],
	"samplers":[
		{
			"magFilter":9729,
			"minFilter":9987
		}
	],
	"buffers":[
		{
			"byteLength":19648,
			"uri":"kartkids_base_trk_400_brg_mid_1x1.bin"
		}
	]
}
