{
	"asset": {
		"generator": "Khronos glTF Blender I/O v5.0.21",
		"version": "2.0"
	},
	"scene": 0,
	"scenes": [
		{
			"name": "Scene",
			"nodes": [
				0,
				1,
				2,
				3,
				4
			]
		}
	],
	"nodes": [
		{
			"mesh": 0,
			"name": "kartkids_base_trk_140_jct_ysplit_3x3"
		},
		{
			"mesh": 1,
			"name": "kartkids_base_trk_140_jct_ysplit_3x3.004"
		},
		{
			"mesh": 2,
			"name": "kartkids_base_trk_140_jct_ysplit_3x3.003"
		},
		{
			"mesh": 3,
			"name": "kartkids_base_trk_140_jct_ysplit_3x3.002"
		},
		{
			"mesh": 4,
			"name": "kartkids_base_trk_140_jct_ysplit_3x3.001"
		}
	],
	"materials": [
		{
			"doubleSided": true,
			"name": "asphalt",
			"normalTexture": {
				"index": 0
			},
			"pbrMetallicRoughness": {
				"baseColorTexture": {
					"index": 1
				},
				"metallicRoughnessTexture": {
					"index": 2
				}
			}
		},
		{
			"doubleSided": true,
			"emissiveTexture": {
				"index": 3
			},
			"name": "rubber",
			"normalTexture": {
				"index": 4
			},
			"pbrMetallicRoughness": {
				"baseColorTexture": {
					"index": 5
				},
				"metallicRoughnessTexture": {
					"index": 6
				}
			}
		}
	],
	"meshes": [
		{
			"name": "Cube.036",
			"primitives": [
				{
					"attributes": {
						"POSITION": 0,
						"NORMAL": 1,
						"TEXCOORD_0": 2
					},
					"indices": 3,
					"material": 0
				}
			]
		},
		{
			"name": "Cube.038",
			"primitives": [
				{
					"attributes": {
						"POSITION": 4,
						"NORMAL": 5,
						"TEXCOORD_0": 6
					},
					"indices": 7,
					"material": 1
				}
			]
		},
		{
			"name": "Cube.037",
			"primitives": [
				{
					"attributes": {
						"POSITION": 8,
						"NORMAL": 9,
						"TEXCOORD_0": 10
					},
					"indices": 11,
					"material": 1
				}
			]
		},
		{
			"name": "Cube.040",
			"primitives": [
				{
					"attributes": {
						"POSITION": 12,
						"NORMAL": 13,
						"TEXCOORD_0": 14
					},
					"indices": 15,
					"material": 1
				}
			]
		},
		{
			"name": "Cube.039",
			"primitives": [
				{
					"attributes": {
						"POSITION": 16,
						"NORMAL": 17,
						"TEXCOORD_0": 18
					},
					"indices": 19,
					"material": 1
				}
			]
		}
	],
	"textures": [
		{
			"sampler": 0,
			"source": 0
		},
		{
			"sampler": 0,
			"source": 1
		},
		{
			"sampler": 0,
			"source": 2
		},
		{
			"sampler": 0,
			"source": 3
		},
		{
			"sampler": 0,
			"source": 4
		},
		{
			"sampler": 0,
			"source": 5
		},
		{
			"sampler": 0,
			"source": 6
		}
	],
	"images": [
		{
			"mimeType": "image/webp",
			"name": "AtlasAsphalt1_Normal",
			"uri": "textures/AtlasAsphalt1_Normal.webp"
		},
		{
			"mimeType": "image/webp",
			"name": "AtlasAsphalt1_BaseColor",
			"uri": "textures/AtlasAsphalt1_BaseColor.webp"
		},
		{
			"mimeType": "image/webp",
			"name": "AtlasAsphalt1_OcclusionRoughnessMetallic",
			"uri": "textures/AtlasAsphalt1_OcclusionRoughnessMetallic.webp"
		},
		{
			"mimeType": "image/webp",
			"name": "Rubber_Emissive",
			"uri": "textures/Rubber_Emissive.webp"
		},
		{
			"mimeType": "image/webp",
			"name": "Rubber_Normal",
			"uri": "textures/Rubber_Normal.webp"
		},
		{
			"mimeType": "image/webp",
			"name": "Rubber_BaseColor",
			"uri": "textures/Rubber_BaseColor.webp"
		},
		{
			"mimeType": "image/webp",
			"name": "Rubber_OcclusionRoughnessMetallic",
			"uri": "textures/Rubber_OcclusionRoughnessMetallic.webp"
		}
	],
	"accessors": [
		{
			"bufferView": 0,
			"componentType": 5126,
			"count": 576,
			"max": [
				15.000001907348633,
				0.08500000834465027,
				15.000001907348633
			],
			"min": [
				-15.000001907348633,
				0,
				-15.000001907348633
			],
			"type": "VEC3"
		},
		{
			"bufferView": 1,
			"componentType": 5126,
			"count": 576,
			"type": "VEC3"
		},
		{
			"bufferView": 2,
			"componentType": 5126,
			"count": 576,
			"type": "VEC2"
		},
		{
			"bufferView": 3,
			"componentType": 5123,
			"count": 1620,
			"type": "SCALAR"
		},
		{
			"bufferView": 4,
			"componentType": 5126,
			"count": 200,
			"max": [
				14,
				0.18500089645385742,
				15.000001907348633
			],
			"min": [
				-13.999998092651367,
				0.08498699218034744,
				-15
			],
			"type": "VEC3"
		},
		{
			"bufferView": 5,
			"componentType": 5126,
			"count": 200,
			"type": "VEC3"
		},
		{
			"bufferView": 6,
			"componentType": 5126,
			"count": 200,
			"type": "VEC2"
		},
		{
			"bufferView": 7,
			"componentType": 5123,
			"count": 348,
			"type": "SCALAR"
		},
		{
			"bufferView": 8,
			"componentType": 5126,
			"count": 136,
			"max": [
				15.000001907348633,
				0.9339278936386108,
				15.000001907348633
			],
			"min": [
				-14.999998092651367,
				0.08392778038978577,
				-15
			],
			"type": "VEC3"
		},
		{
			"bufferView": 9,
			"componentType": 5126,
			"count": 136,
			"type": "VEC3"
		},
		{
			"bufferView": 10,
			"componentType": 5126,
			"count": 136,
			"type": "VEC2"
		},
		{
			"bufferView": 11,
			"componentType": 5123,
			"count": 348,
			"type": "SCALAR"
		},
		{
			"bufferView": 12,
			"componentType": 5126,
			"count": 112,
			"max": [
				5.500002861022949,
				0.9339278936386108,
				15
			],
			"min": [
				-5.499997138977051,
				0.08392778038978577,
				8.612016677856445
			],
			"type": "VEC3"
		},
		{
			"bufferView": 13,
			"componentType": 5126,
			"count": 112,
			"type": "VEC3"
		},
		{
			"bufferView": 14,
			"componentType": 5126,
			"count": 112,
			"type": "VEC2"
		},
		{
			"bufferView": 15,
			"componentType": 5123,
			"count": 294,
			"type": "SCALAR"
		},
		{
			"bufferView": 16,
			"componentType": 5126,
			"count": 110,
			"max": [
				6.4500017166137695,
				0.18502046167850494,
				15.00000286102295
			],
			"min": [
				-6.449995994567871,
				0.08500002324581146,
				7.603438377380371
			],
			"type": "VEC3"
		},
		{
			"bufferView": 17,
			"componentType": 5126,
			"count": 110,
			"type": "VEC3"
		},
		{
			"bufferView": 18,
			"componentType": 5126,
			"count": 110,
			"type": "VEC2"
		},
		{
			"bufferView": 19,
			"componentType": 5123,
			"count": 192,
			"type": "SCALAR"
		}
	],
	"bufferViews": [
		{
			"buffer": 0,
			"byteLength": 6912,
			"byteOffset": 0,
			"target": 34962
		},
		{
			"buffer": 0,
			"byteLength": 6912,
			"byteOffset": 6912,
			"target": 34962
		},
		{
			"buffer": 0,
			"byteLength": 4608,
			"byteOffset": 13824,
			"target": 34962
		},
		{
			"buffer": 0,
			"byteLength": 3240,
			"byteOffset": 18432,
			"target": 34963
		},
		{
			"buffer": 0,
			"byteLength": 2400,
			"byteOffset": 21672,
			"target": 34962
		},
		{
			"buffer": 0,
			"byteLength": 2400,
			"byteOffset": 24072,
			"target": 34962
		},
		{
			"buffer": 0,
			"byteLength": 1600,
			"byteOffset": 26472,
			"target": 34962
		},
		{
			"buffer": 0,
			"byteLength": 696,
			"byteOffset": 28072,
			"target": 34963
		},
		{
			"buffer": 0,
			"byteLength": 1632,
			"byteOffset": 28768,
			"target": 34962
		},
		{
			"buffer": 0,
			"byteLength": 1632,
			"byteOffset": 30400,
			"target": 34962
		},
		{
			"buffer": 0,
			"byteLength": 1088,
			"byteOffset": 32032,
			"target": 34962
		},
		{
			"buffer": 0,
			"byteLength": 696,
			"byteOffset": 33120,
			"target": 34963
		},
		{
			"buffer": 0,
			"byteLength": 1344,
			"byteOffset": 33816,
			"target": 34962
		},
		{
			"buffer": 0,
			"byteLength": 1344,
			"byteOffset": 35160,
			"target": 34962
		},
		{
			"buffer": 0,
			"byteLength": 896,
			"byteOffset": 36504,
			"target": 34962
		},
		{
			"buffer": 0,
			"byteLength": 588,
			"byteOffset": 37400,
			"target": 34963
		},
		{
			"buffer": 0,
			"byteLength": 1320,
			"byteOffset": 37988,
			"target": 34962
		},
		{
			"buffer": 0,
			"byteLength": 1320,
			"byteOffset": 39308,
			"target": 34962
		},
		{
			"buffer": 0,
			"byteLength": 880,
			"byteOffset": 40628,
			"target": 34962
		},
		{
			"buffer": 0,
			"byteLength": 384,
			"byteOffset": 41508,
			"target": 34963
		}
	],
	"samplers": [
		{
			"magFilter": 9729,
			"minFilter": 9987
		}
	],
	"buffers": [
		{
			"byteLength": 41892,
			"uri": "kartkids_base_trk_140_jct_ysplit_3x3.bin"
		}
	]
}