{
	"asset":{
		"generator":"Khronos glTF Blender I/O v5.0.21",
		"version":"2.0"
	},
	"scene":0,
	"scenes":[
		{
			"name":"Scene",
			"nodes":[
				0,
				1
			]
		}
	],
	"nodes":[
		{
			"mesh":0,
			"name":"kartkids_base_trk_600__Turbo_2x2",
			"scale":[
				0.20000000298023224,
				0.10000000149011612,
				0.20000000298023224
			]
		},
		{
			"mesh":1,
			"name":"kartkids_base_trk_600__Turbo_borders_2x2",
			"scale":[
				0.20000000298023224,
				1,
				0.20000000298023224
			]
		}
	],
	"materials":[
		{
			"doubleSided":true,
			"emissiveTexture":{
				"index":0
			},
			"name":"rubber",
			"normalTexture":{
				"index":1
			},
			"pbrMetallicRoughness":{
				"baseColorTexture":{
					"index":2
				},
				"metallicRoughnessTexture":{
					"index":3
				}
			}
		},
		{
			"doubleSided":true,
			"name":"TurboTile",
			"normalTexture":{
				"index":4
			},
			"pbrMetallicRoughness":{
				"baseColorTexture":{
					"index":5
				},
				"metallicRoughnessTexture":{
					"index":6
				}
			}
		},
		{
			"alphaMode":"BLEND",
			"doubleSided":true,
			"name":"TurboTile_Arrow",
			"normalTexture":{
				"index":7
			},
			"pbrMetallicRoughness":{
				"baseColorTexture":{
					"index":8
				},
				"metallicRoughnessTexture":{
					"index":9
				}
			}
		}
	],
	"meshes":[
		{
			"name":"Cube.001",
			"primitives":[
				{
					"attributes":{
						"POSITION":0,
						"NORMAL":1,
						"TEXCOORD_0":2
					},
					"indices":3,
					"material":0
				}
			]
		},
		{
			"name":"Cube.002",
			"primitives":[
				{
					"attributes":{
						"POSITION":4,
						"NORMAL":5,
						"TEXCOORD_0":6
					},
					"indices":7,
					"material":1
				},
				{
					"attributes":{
						"POSITION":8,
						"NORMAL":9,
						"TEXCOORD_0":10
					},
					"indices":11,
					"material":2
				}
			]
		}
	],
	"textures":[
		{
			"sampler":0,
			"source":0
		},
		{
			"sampler":0,
			"source":1
		},
		{
			"sampler":0,
			"source":2
		},
		{
			"sampler":0,
			"source":3
		},
		{
			"sampler":0,
			"source":4
		},
		{
			"sampler":0,
			"source":5
		},
		{
			"sampler":0,
			"source":6
		},
		{
			"sampler":0,
			"source":7
		},
		{
			"sampler":0,
			"source":8
		},
		{
			"sampler":0,
			"source":9
		}
	],
	"images":[
		{
			"mimeType":"image/png",
			"name":"Rubber_Emissive",
			"uri":"textures/Rubber_Emissive.webp"
		},
		{
			"mimeType":"image/png",
			"name":"Rubber_Normal",
			"uri":"textures/Rubber_Normal.webp"
		},
		{
			"mimeType":"image/png",
			"name":"Rubber_BaseColor",
			"uri":"textures/Rubber_BaseColor.webp"
		},
		{
			"mimeType":"image/png",
			"name":"Rubber_OcclusionRoughnessMetallic",
			"uri":"textures/Rubber_OcclusionRoughnessMetallic.webp"
		},
		{
			"mimeType":"image/png",
			"name":"TurboTile_Normal",
			"uri":"textures/TurboTile_Normal.webp"
		},
		{
			"mimeType":"image/png",
			"name":"TurboTile_BaseColor",
			"uri":"textures/TurboTile_BaseColor.webp"
		},
		{
			"mimeType":"image/png",
			"name":"TurboTile_OcclusionRoughnessMetallic",
			"uri":"textures/TurboTile_OcclusionRoughnessMetallic.webp"
		},
		{
			"mimeType":"image/png",
			"name":"TurboTileArrow_Normal",
			"uri":"textures/TurboTileArrow_Normal.webp"
		},
		{
			"mimeType":"image/png",
			"name":"TurboTileArrow_BaseColor",
			"uri":"textures/TurboTileArrow_BaseColor.webp"
		},
		{
			"mimeType":"image/png",
			"name":"TurboTileArrow_OcclusionRoughnessMetallic",
			"uri":"textures/TurboTileArrow_OcclusionRoughnessMetallic.webp"
		}
	],
	"accessors":[
		{
			"bufferView":0,
			"componentType":5126,
			"count":48,
			"max":[
				5.000001907348633,
				0.9350000619888306,
				5
			],
			"min":[
				-4.999998092651367,
				0.08500000834465027,
				-5.000000476837158
			],
			"type":"VEC3"
		},
		{
			"bufferView":1,
			"componentType":5126,
			"count":48,
			"type":"VEC3"
		},
		{
			"bufferView":2,
			"componentType":5126,
			"count":48,
			"type":"VEC2"
		},
		{
			"bufferView":3,
			"componentType":5123,
			"count":72,
			"type":"SCALAR"
		},
		{
			"bufferView":4,
			"componentType":5126,
			"count":102,
			"max":[
				5,
				0.08500000834465027,
				5
			],
			"min":[
				-5,
				0,
				-5
			],
			"type":"VEC3"
		},
		{
			"bufferView":5,
			"componentType":5126,
			"count":102,
			"type":"VEC3"
		},
		{
			"bufferView":6,
			"componentType":5126,
			"count":102,
			"type":"VEC2"
		},
		{
			"bufferView":7,
			"componentType":5123,
			"count":168,
			"type":"SCALAR"
		},
		{
			"bufferView":8,
			"componentType":5126,
			"count":4,
			"max":[
				5,
				0.11915021389722824,
				5
			],
			"min":[
				-5,
				0.11915021389722824,
				-5
			],
			"type":"VEC3"
		},
		{
			"bufferView":9,
			"componentType":5126,
			"count":4,
			"type":"VEC3"
		},
		{
			"bufferView":10,
			"componentType":5126,
			"count":4,
			"type":"VEC2"
		},
		{
			"bufferView":11,
			"componentType":5123,
			"count":6,
			"type":"SCALAR"
		}
	],
	"bufferViews":[
		{
			"buffer":0,
			"byteLength":576,
			"byteOffset":0,
			"target":34962
		},
		{
			"buffer":0,
			"byteLength":576,
			"byteOffset":576,
			"target":34962
		},
		{
			"buffer":0,
			"byteLength":384,
			"byteOffset":1152,
			"target":34962
		},
		{
			"buffer":0,
			"byteLength":144,
			"byteOffset":1536,
			"target":34963
		},
		{
			"buffer":0,
			"byteLength":1224,
			"byteOffset":1680,
			"target":34962
		},
		{
			"buffer":0,
			"byteLength":1224,
			"byteOffset":2904,
			"target":34962
		},
		{
			"buffer":0,
			"byteLength":816,
			"byteOffset":4128,
			"target":34962
		},
		{
			"buffer":0,
			"byteLength":336,
			"byteOffset":4944,
			"target":34963
		},
		{
			"buffer":0,
			"byteLength":48,
			"byteOffset":5280,
			"target":34962
		},
		{
			"buffer":0,
			"byteLength":48,
			"byteOffset":5328,
			"target":34962
		},
		{
			"buffer":0,
			"byteLength":32,
			"byteOffset":5376,
			"target":34962
		},
		{
			"buffer":0,
			"byteLength":12,
			"byteOffset":5408,
			"target":34963
		}
	],
	"samplers":[
		{
			"magFilter":9729,
			"minFilter":9987
		}
	],
	"buffers":[
		{
			"byteLength":5420,
			"uri":"kartkids_base_trk_600__Turbo_2x2.bin"
		}
	]
}
