{
	"asset":{
		"generator":"Khronos glTF Blender I/O v5.0.21",
		"version":"2.0"
	},
	"scene":0,
	"scenes":[
		{
			"name":"Scene",
			"nodes":[
				0,
				1,
				2
			]
		}
	],
	"nodes":[
		{
			"mesh":0,
			"name":"kartkids_base_trk_520_trn_90_l_3x3"
		},
		{
			"mesh":1,
			"name":"kartkids_base_trk_520_trn_90_l_3x3.002"
		},
		{
			"mesh":2,
			"name":"kartkids_base_trk_520_trn_90_l_3x3.001"
		}
	],
	"materials":[
		{
			"alphaMode":"BLEND",
			"doubleSided":true,
			"emissiveTexture":{
				"index":0
			},
			"name":"asphalt 2",
			"normalTexture":{
				"index":1
			},
			"pbrMetallicRoughness":{
				"baseColorTexture":{
					"index":2
				},
				"metallicRoughnessTexture":{
					"index":3
				}
			}
		},
		{
			"doubleSided":true,
			"emissiveTexture":{
				"index":4
			},
			"name":"rubber",
			"normalTexture":{
				"index":5
			},
			"pbrMetallicRoughness":{
				"baseColorTexture":{
					"index":6
				},
				"metallicRoughnessTexture":{
					"index":7
				}
			}
		}
	],
	"meshes":[
		{
			"name":"Cube.091",
			"primitives":[
				{
					"attributes":{
						"POSITION":0,
						"NORMAL":1,
						"TEXCOORD_0":2
					},
					"indices":3,
					"material":0
				}
			]
		},
		{
			"name":"Cube.090",
			"primitives":[
				{
					"attributes":{
						"POSITION":4,
						"NORMAL":5,
						"TEXCOORD_0":6
					},
					"indices":7,
					"material":1
				}
			]
		},
		{
			"name":"Cube.089",
			"primitives":[
				{
					"attributes":{
						"POSITION":8,
						"NORMAL":9,
						"TEXCOORD_0":10
					},
					"indices":11,
					"material":1
				}
			]
		}
	],
	"textures":[
		{
			"sampler":0,
			"source":0
		},
		{
			"sampler":0,
			"source":1
		},
		{
			"sampler":0,
			"source":2
		},
		{
			"sampler":0,
			"source":3
		},
		{
			"sampler":0,
			"source":4
		},
		{
			"sampler":0,
			"source":5
		},
		{
			"sampler":0,
			"source":6
		},
		{
			"sampler":0,
			"source":7
		}
	],
	"images":[
		{
			"mimeType":"image/png",
			"name":"atlas_emissive",
			"uri":"textures/atlas_emissive.png"
		},
		{
			"mimeType":"image/png",
			"name":"atlas_normal",
			"uri":"textures/atlas_normal.png"
		},
		{
			"mimeType":"image/png",
			"name":"atlas_basecolor-atlas_alpha",
			"uri":"textures/atlas_basecolor-atlas_alpha.png"
		},
		{
			"mimeType":"image/png",
			"name":"atlas_ORM",
			"uri":"textures/atlas_ORM.png"
		},
		{
			"mimeType":"image/png",
			"name":"TRIM_Emissive",
			"uri":"textures/TRIM_Emissive.png"
		},
		{
			"mimeType":"image/png",
			"name":"TRIM_Normal",
			"uri":"textures/TRIM_Normal.png"
		},
		{
			"mimeType":"image/png",
			"name":"TRIM_BaseColor",
			"uri":"textures/TRIM_BaseColor.png"
		},
		{
			"mimeType":"image/png",
			"name":"TRIM_OcclusionRoughnessMetallic-TRIM_OcclusionRoughnessMetallic.png",
			"uri":"textures/TRIM_OcclusionRoughnessMetallic-TRIM_OcclusionRoughnessMetallic.png.png"
		}
	],
	"accessors":[
		{
			"bufferView":0,
			"componentType":5126,
			"count":360,
			"max":[
				14.916359901428223,
				0.06610618531703949,
				15.020256042480469
			],
			"min":[
				-15.08364200592041,
				-0.018893824890255928,
				-14.979745864868164
			],
			"type":"VEC3"
		},
		{
			"bufferView":1,
			"componentType":5126,
			"count":360,
			"type":"VEC3"
		},
		{
			"bufferView":2,
			"componentType":5126,
			"count":360,
			"type":"VEC2"
		},
		{
			"bufferView":3,
			"componentType":5123,
			"count":756,
			"type":"SCALAR"
		},
		{
			"bufferView":4,
			"componentType":5126,
			"count":220,
			"max":[
				13.916359901428223,
				0.1661146730184555,
				15.020255088806152
			],
			"min":[
				-15.083649635314941,
				0.06610617786645889,
				-13.979743957519531
			],
			"type":"VEC3"
		},
		{
			"bufferView":5,
			"componentType":5126,
			"count":220,
			"type":"VEC3"
		},
		{
			"bufferView":6,
			"componentType":5126,
			"count":220,
			"type":"VEC2"
		},
		{
			"bufferView":7,
			"componentType":5123,
			"count":384,
			"type":"SCALAR"
		},
		{
			"bufferView":8,
			"componentType":5126,
			"count":236,
			"max":[
				14.916359901428223,
				0.9150340557098389,
				15.020255088806152
			],
			"min":[
				-15.08364200592041,
				0.06503398716449738,
				-14.979743957519531
			],
			"type":"VEC3"
		},
		{
			"bufferView":9,
			"componentType":5126,
			"count":236,
			"type":"VEC3"
		},
		{
			"bufferView":10,
			"componentType":5126,
			"count":236,
			"type":"VEC2"
		},
		{
			"bufferView":11,
			"componentType":5123,
			"count":384,
			"type":"SCALAR"
		}
	],
	"bufferViews":[
		{
			"buffer":0,
			"byteLength":4320,
			"byteOffset":0,
			"target":34962
		},
		{
			"buffer":0,
			"byteLength":4320,
			"byteOffset":4320,
			"target":34962
		},
		{
			"buffer":0,
			"byteLength":2880,
			"byteOffset":8640,
			"target":34962
		},
		{
			"buffer":0,
			"byteLength":1512,
			"byteOffset":11520,
			"target":34963
		},
		{
			"buffer":0,
			"byteLength":2640,
			"byteOffset":13032,
			"target":34962
		},
		{
			"buffer":0,
			"byteLength":2640,
			"byteOffset":15672,
			"target":34962
		},
		{
			"buffer":0,
			"byteLength":1760,
			"byteOffset":18312,
			"target":34962
		},
		{
			"buffer":0,
			"byteLength":768,
			"byteOffset":20072,
			"target":34963
		},
		{
			"buffer":0,
			"byteLength":2832,
			"byteOffset":20840,
			"target":34962
		},
		{
			"buffer":0,
			"byteLength":2832,
			"byteOffset":23672,
			"target":34962
		},
		{
			"buffer":0,
			"byteLength":1888,
			"byteOffset":26504,
			"target":34962
		},
		{
			"buffer":0,
			"byteLength":768,
			"byteOffset":28392,
			"target":34963
		}
	],
	"samplers":[
		{
			"magFilter":9729,
			"minFilter":9987
		}
	],
	"buffers":[
		{
			"byteLength":29160,
			"uri":"kartkids_base_trk_520_trn_90_l_3x3.bin"
		}
	]
}
