{
	"asset": {
		"generator": "Khronos glTF Blender I/O v5.0.21",
		"version": "2.0"
	},
	"scene": 0,
	"scenes": [
		{
			"name": "Scene",
			"nodes": [
				0,
				1,
				2,
				3,
				4
			]
		}
	],
	"nodes": [
		{
			"mesh": 0,
			"name": "kartkids_base_trk_550_chicane_90_l_3x3.002"
		},
		{
			"mesh": 1,
			"name": "kartkids_base_trk_550_chicane_90_l_3x3"
		},
		{
			"mesh": 2,
			"name": "kartkids_base_trk_550_chicane_90_l_3x3.003"
		},
		{
			"mesh": 3,
			"name": "kartkids_base_trk_550_chicane_90_l_3x3.001"
		},
		{
			"mesh": 4,
			"name": "kartkids_base_trk_550_chicane_90_l_3x3.004"
		}
	],
	"materials": [
		{
			"doubleSided": true,
			"name": "asphalt",
			"normalTexture": {
				"index": 0
			},
			"pbrMetallicRoughness": {
				"baseColorTexture": {
					"index": 1
				},
				"metallicRoughnessTexture": {
					"index": 2
				}
			},
			"occlusionTexture": {
					"index": 2
			}
		},
		{
			"doubleSided": true,
			"emissiveTexture": {
				"index": 3
			},
			"name": "rubber",
			"normalTexture": {
				"index": 4
			},
			"pbrMetallicRoughness": {
				"baseColorTexture": {
					"index": 5
				},
				"metallicRoughnessTexture": {
					"index": 6
				}
			},
			"occlusionTexture": {
					"index": 6
			}
		}
	],
	"meshes": [
		{
			"name": "Cube.168",
			"primitives": [
				{
					"attributes": {
						"POSITION": 0,
						"NORMAL": 1,
						"TEXCOORD_0": 2
					},
					"indices": 3,
					"material": 0
				},
				{
					"attributes": {
						"POSITION": 4,
						"NORMAL": 5,
						"TEXCOORD_0": 6
					},
					"indices": 7,
					"material": 1
				}
			]
		},
		{
			"name": "Cube.169",
			"primitives": [
				{
					"attributes": {
						"POSITION": 8,
						"NORMAL": 9,
						"TEXCOORD_0": 10
					},
					"indices": 11,
					"material": 1
				}
			]
		},
		{
			"name": "Cube.170",
			"primitives": [
				{
					"attributes": {
						"POSITION": 12,
						"NORMAL": 13,
						"TEXCOORD_0": 14
					},
					"indices": 15,
					"material": 1
				}
			]
		},
		{
			"name": "Cube.171",
			"primitives": [
				{
					"attributes": {
						"POSITION": 16,
						"NORMAL": 17,
						"TEXCOORD_0": 18
					},
					"indices": 19,
					"material": 1
				}
			]
		},
		{
			"name": "Cube.172",
			"primitives": [
				{
					"attributes": {
						"POSITION": 20,
						"NORMAL": 21,
						"TEXCOORD_0": 22
					},
					"indices": 23,
					"material": 1
				}
			]
		}
	],
	"textures": [
		{
			"sampler": 0,
			"source": 0
		},
		{
			"sampler": 0,
			"source": 1
		},
		{
			"sampler": 0,
			"source": 2
		},
		{
			"sampler": 0,
			"source": 3
		},
		{
			"sampler": 0,
			"source": 4
		},
		{
			"sampler": 0,
			"source": 5
		},
		{
			"sampler": 0,
			"source": 6
		}
	],
	"images": [
		{
			"mimeType": "image/webp",
			"name": "AtlasAsphalt1_Normal",
			"uri": "textures/AtlasAsphalt1_Normal.webp"
		},
		{
			"mimeType": "image/webp",
			"name": "AtlasAsphalt1_BaseColor",
			"uri": "textures/AtlasAsphalt1_BaseColor.webp"
		},
		{
			"mimeType": "image/webp",
			"name": "AtlasAsphalt1_OcclusionRoughnessMetallic",
			"uri": "textures/AtlasAsphalt1_OcclusionRoughnessMetallic.webp"
		},
		{
			"mimeType": "image/webp",
			"name": "Rubber_Emissive",
			"uri": "textures/Rubber_Emissive.webp"
		},
		{
			"mimeType": "image/webp",
			"name": "Rubber_Normal",
			"uri": "textures/Rubber_Normal.webp"
		},
		{
			"mimeType": "image/webp",
			"name": "Rubber_BaseColor",
			"uri": "textures/Rubber_BaseColor.webp"
		},
		{
			"mimeType": "image/webp",
			"name": "Rubber_OcclusionRoughnessMetallic",
			"uri": "textures/Rubber_OcclusionRoughnessMetallic.webp"
		}
	],
	"accessors": [
		{
			"bufferView": 0,
			"componentType": 5126,
			"count": 592,
			"max": [
				15,
				0.08500000834465027,
				15
			],
			"min": [
				-15,
				0,
				-15
			],
			"type": "VEC3"
		},
		{
			"bufferView": 1,
			"componentType": 5126,
			"count": 592,
			"type": "VEC3"
		},
		{
			"bufferView": 2,
			"componentType": 5126,
			"count": 592,
			"type": "VEC2"
		},
		{
			"bufferView": 3,
			"componentType": 5123,
			"count": 1668,
			"type": "SCALAR"
		},
		{
			"bufferView": 4,
			"componentType": 5126,
			"count": 44,
			"max": [
				5.000000476837158,
				0.08500000834465027,
				5.000000476837158
			],
			"min": [
				-5.000000476837158,
				0.08500000834465027,
				-5
			],
			"type": "VEC3"
		},
		{
			"bufferView": 5,
			"componentType": 5126,
			"count": 44,
			"type": "VEC3"
		},
		{
			"bufferView": 6,
			"componentType": 5126,
			"count": 44,
			"type": "VEC2"
		},
		{
			"bufferView": 7,
			"componentType": 5123,
			"count": 96,
			"type": "SCALAR"
		},
		{
			"bufferView": 8,
			"componentType": 5126,
			"count": 190,
			"max": [
				9.5367431640625e-07,
				0.18500003218650818,
				15.000001907348633
			],
			"min": [
				-14.058159828186035,
				0.0849621593952179,
				-3.9999990463256836
			],
			"type": "VEC3"
		},
		{
			"bufferView": 9,
			"componentType": 5126,
			"count": 190,
			"type": "VEC3"
		},
		{
			"bufferView": 10,
			"componentType": 5126,
			"count": 190,
			"type": "VEC2"
		},
		{
			"bufferView": 11,
			"componentType": 5123,
			"count": 330,
			"type": "SCALAR"
		},
		{
			"bufferView": 12,
			"componentType": 5126,
			"count": 130,
			"max": [
				9.5367431640625e-07,
				0.9339279532432556,
				15
			],
			"min": [
				-15.05179500579834,
				0.08392772078514099,
				-4.999999046325684
			],
			"type": "VEC3"
		},
		{
			"bufferView": 13,
			"componentType": 5126,
			"count": 130,
			"type": "VEC3"
		},
		{
			"bufferView": 14,
			"componentType": 5126,
			"count": 130,
			"type": "VEC2"
		},
		{
			"bufferView": 15,
			"componentType": 5123,
			"count": 330,
			"type": "SCALAR"
		},
		{
			"bufferView": 16,
			"componentType": 5126,
			"count": 130,
			"max": [
				15.051795959472656,
				0.9339279532432556,
				5
			],
			"min": [
				-2.384185791015625e-07,
				0.08392772078514099,
				-15
			],
			"type": "VEC3"
		},
		{
			"bufferView": 17,
			"componentType": 5126,
			"count": 130,
			"type": "VEC3"
		},
		{
			"bufferView": 18,
			"componentType": 5126,
			"count": 130,
			"type": "VEC2"
		},
		{
			"bufferView": 19,
			"componentType": 5123,
			"count": 330,
			"type": "SCALAR"
		},
		{
			"bufferView": 20,
			"componentType": 5126,
			"count": 190,
			"max": [
				14.058160781860352,
				0.18500003218650818,
				3.999999761581421
			],
			"min": [
				7.152557373046875e-07,
				0.0849621519446373,
				-15.000001907348633
			],
			"type": "VEC3"
		},
		{
			"bufferView": 21,
			"componentType": 5126,
			"count": 190,
			"type": "VEC3"
		},
		{
			"bufferView": 22,
			"componentType": 5126,
			"count": 190,
			"type": "VEC2"
		},
		{
			"bufferView": 23,
			"componentType": 5123,
			"count": 330,
			"type": "SCALAR"
		}
	],
	"bufferViews": [
		{
			"buffer": 0,
			"byteLength": 7104,
			"byteOffset": 0,
			"target": 34962
		},
		{
			"buffer": 0,
			"byteLength": 7104,
			"byteOffset": 7104,
			"target": 34962
		},
		{
			"buffer": 0,
			"byteLength": 4736,
			"byteOffset": 14208,
			"target": 34962
		},
		{
			"buffer": 0,
			"byteLength": 3336,
			"byteOffset": 18944,
			"target": 34963
		},
		{
			"buffer": 0,
			"byteLength": 528,
			"byteOffset": 22280,
			"target": 34962
		},
		{
			"buffer": 0,
			"byteLength": 528,
			"byteOffset": 22808,
			"target": 34962
		},
		{
			"buffer": 0,
			"byteLength": 352,
			"byteOffset": 23336,
			"target": 34962
		},
		{
			"buffer": 0,
			"byteLength": 192,
			"byteOffset": 23688,
			"target": 34963
		},
		{
			"buffer": 0,
			"byteLength": 2280,
			"byteOffset": 23880,
			"target": 34962
		},
		{
			"buffer": 0,
			"byteLength": 2280,
			"byteOffset": 26160,
			"target": 34962
		},
		{
			"buffer": 0,
			"byteLength": 1520,
			"byteOffset": 28440,
			"target": 34962
		},
		{
			"buffer": 0,
			"byteLength": 660,
			"byteOffset": 29960,
			"target": 34963
		},
		{
			"buffer": 0,
			"byteLength": 1560,
			"byteOffset": 30620,
			"target": 34962
		},
		{
			"buffer": 0,
			"byteLength": 1560,
			"byteOffset": 32180,
			"target": 34962
		},
		{
			"buffer": 0,
			"byteLength": 1040,
			"byteOffset": 33740,
			"target": 34962
		},
		{
			"buffer": 0,
			"byteLength": 660,
			"byteOffset": 34780,
			"target": 34963
		},
		{
			"buffer": 0,
			"byteLength": 1560,
			"byteOffset": 35440,
			"target": 34962
		},
		{
			"buffer": 0,
			"byteLength": 1560,
			"byteOffset": 37000,
			"target": 34962
		},
		{
			"buffer": 0,
			"byteLength": 1040,
			"byteOffset": 38560,
			"target": 34962
		},
		{
			"buffer": 0,
			"byteLength": 660,
			"byteOffset": 39600,
			"target": 34963
		},
		{
			"buffer": 0,
			"byteLength": 2280,
			"byteOffset": 40260,
			"target": 34962
		},
		{
			"buffer": 0,
			"byteLength": 2280,
			"byteOffset": 42540,
			"target": 34962
		},
		{
			"buffer": 0,
			"byteLength": 1520,
			"byteOffset": 44820,
			"target": 34962
		},
		{
			"buffer": 0,
			"byteLength": 660,
			"byteOffset": 46340,
			"target": 34963
		}
	],
	"samplers": [
		{
			"magFilter": 9729,
			"minFilter": 9987
		}
	],
	"buffers": [
		{
			"byteLength": 47000,
			"uri": "kartkids_base_trk_550_chicane_90_l_3x3.bin"
		}
	]
}