{
	"asset":{
		"generator":"Khronos glTF Blender I/O v5.0.21",
		"version":"2.0"
	},
	"scene":0,
	"scenes":[
		{
			"name":"Scene",
			"nodes":[
				0,
				1
			]
		}
	],
	"nodes":[
		{
			"mesh":0,
			"name":"kartkids_base_trk_270_rmp_transition_flat_to_up_1x1_z5"
		},
		{
			"mesh":1,
			"name":"kartkids_base_trk_270_rmp_transition_flat_to_up_1x1_z5.001"
		}
	],
	"materials":[
		{
			"alphaMode":"BLEND",
			"doubleSided":true,
			"emissiveTexture":{
				"index":0
			},
			"name":"asphalt",
			"normalTexture":{
				"index":1
			},
			"pbrMetallicRoughness":{
				"baseColorTexture":{
					"index":2
				},
				"metallicRoughnessTexture":{
					"index":3
				}
			}
		},
		{
			"doubleSided":true,
			"name":"rubber",
			"pbrMetallicRoughness":{
				"baseColorFactor":[
					1,
					0.14362937211990356,
					0.14362937211990356,
					1
				],
				"metallicFactor":0
			}
		},
		{
			"doubleSided":true,
			"name":"concrete",
			"pbrMetallicRoughness":{
				"baseColorFactor":[
					0.27651432156562805,
					0.27651432156562805,
					0.27651432156562805,
					1
				],
				"metallicFactor":0
			}
		}
	],
	"meshes":[
		{
			"name":"Cube.008",
			"primitives":[
				{
					"attributes":{
						"POSITION":0,
						"NORMAL":1,
						"TEXCOORD_0":2
					},
					"indices":3,
					"material":0
				},
				{
					"attributes":{
						"POSITION":4,
						"NORMAL":5,
						"TEXCOORD_0":6
					},
					"indices":7,
					"material":1
				}
			]
		},
		{
			"name":"Cube.007",
			"primitives":[
				{
					"attributes":{
						"POSITION":8,
						"NORMAL":9,
						"TEXCOORD_0":10
					},
					"indices":11,
					"material":2
				}
			]
		}
	],
	"textures":[
		{
			"sampler":0,
			"source":0
		},
		{
			"sampler":0,
			"source":1
		},
		{
			"sampler":0,
			"source":2
		},
		{
			"sampler":0,
			"source":3
		}
	],
	"images":[
		{
			"mimeType":"image/png",
			"name":"atlas_emissive",
			"uri":"textures/atlas_emissive.png"
		},
		{
			"mimeType":"image/png",
			"name":"atlas_normal",
			"uri":"textures/atlas_normal.png"
		},
		{
			"mimeType":"image/png",
			"name":"atlas_basecolor-atlas_alpha",
			"uri":"textures/atlas_basecolor-atlas_alpha.png"
		},
		{
			"mimeType":"image/png",
			"name":"atlas_ORM",
			"uri":"textures/atlas_ORM.png"
		}
	],
	"accessors":[
		{
			"bufferView":0,
			"componentType":5126,
			"count":104,
			"max":[
				5,
				5.001072883605957,
				5
			],
			"min":[
				-5,
				0,
				-5
			],
			"type":"VEC3"
		},
		{
			"bufferView":1,
			"componentType":5126,
			"count":104,
			"type":"VEC3"
		},
		{
			"bufferView":2,
			"componentType":5126,
			"count":104,
			"type":"VEC2"
		},
		{
			"bufferView":3,
			"componentType":5123,
			"count":180,
			"type":"SCALAR"
		},
		{
			"bufferView":4,
			"componentType":5126,
			"count":88,
			"max":[
				3.999999761581421,
				5.101072311401367,
				5
			],
			"min":[
				-4,
				0.08500003814697266,
				-5
			],
			"type":"VEC3"
		},
		{
			"bufferView":5,
			"componentType":5126,
			"count":88,
			"type":"VEC3"
		},
		{
			"bufferView":6,
			"componentType":5126,
			"count":88,
			"type":"VEC2"
		},
		{
			"bufferView":7,
			"componentType":5123,
			"count":132,
			"type":"SCALAR"
		},
		{
			"bufferView":8,
			"componentType":5126,
			"count":96,
			"max":[
				4.999998092651367,
				5.850001335144043,
				5
			],
			"min":[
				-5,
				0.08392739295959473,
				-5
			],
			"type":"VEC3"
		},
		{
			"bufferView":9,
			"componentType":5126,
			"count":96,
			"type":"VEC3"
		},
		{
			"bufferView":10,
			"componentType":5126,
			"count":96,
			"type":"VEC2"
		},
		{
			"bufferView":11,
			"componentType":5123,
			"count":168,
			"type":"SCALAR"
		}
	],
	"bufferViews":[
		{
			"buffer":0,
			"byteLength":1248,
			"byteOffset":0,
			"target":34962
		},
		{
			"buffer":0,
			"byteLength":1248,
			"byteOffset":1248,
			"target":34962
		},
		{
			"buffer":0,
			"byteLength":832,
			"byteOffset":2496,
			"target":34962
		},
		{
			"buffer":0,
			"byteLength":360,
			"byteOffset":3328,
			"target":34963
		},
		{
			"buffer":0,
			"byteLength":1056,
			"byteOffset":3688,
			"target":34962
		},
		{
			"buffer":0,
			"byteLength":1056,
			"byteOffset":4744,
			"target":34962
		},
		{
			"buffer":0,
			"byteLength":704,
			"byteOffset":5800,
			"target":34962
		},
		{
			"buffer":0,
			"byteLength":264,
			"byteOffset":6504,
			"target":34963
		},
		{
			"buffer":0,
			"byteLength":1152,
			"byteOffset":6768,
			"target":34962
		},
		{
			"buffer":0,
			"byteLength":1152,
			"byteOffset":7920,
			"target":34962
		},
		{
			"buffer":0,
			"byteLength":768,
			"byteOffset":9072,
			"target":34962
		},
		{
			"buffer":0,
			"byteLength":336,
			"byteOffset":9840,
			"target":34963
		}
	],
	"samplers":[
		{
			"magFilter":9729,
			"minFilter":9987
		}
	],
	"buffers":[
		{
			"byteLength":10176,
			"uri":"kartkids_base_trk_270_rmp_transition_flat_to_up_1x1_z5.bin"
		}
	]
}
